<?xml version="1.0" encoding="utf-8"?>
<!-- Generator: Adobe Illustrator 26.0.1, SVG Export Plug-In . SVG Version: 6.00 Build 0)  -->
<svg version="1.1" id="Layer_1" xmlns="http://www.w3.org/2000/svg" xmlns:xlink="http://www.w3.org/1999/xlink" x="0px" y="0px"
	 viewBox="0 0 186 53" style="enable-background:new 0 0 186 53;" xml:space="preserve">
<style type="text/css">
	.st0{fill:#FFFFFF;}
</style>
<g id="Group_105313" transform="translate(-552.551 -235.932)">
	<g id="Group_105311">
		<path id="Path_78334" class="st0" d="M612.7,275.3c0.2,0,0.2-0.1,0.2-0.3c0-0.5,0-1.1,0-1.7h2.4v-1.2h6.9v1.4c0.2,0,0.3,0,0.4,0
			c1.5,0,3,0,4.5,0c0.2,0,0.3,0,0.4-0.2c0-0.1,0.2-0.1,0.3-0.1c2.3-1,4.5-1.9,6.8-2.8c0.2-0.1,0.4-0.3,0.4-0.5c0-7,0-13.9,0-20.9
			v-0.5h0.7v-5.1h0.1c0.1-0.1,0.3-0.3,0.3-0.5c0.8-2.2,1.7-4.4,2.5-6.6c0-0.1,0.1-0.2,0.1-0.4c0.1,0.2,0.1,0.2,0.1,0.3
			c0.8,2.2,1.7,4.4,2.5,6.6c0.1,0.2,0.2,0.3,0.3,0.4l0.1-0.1v5.1h0.7v0.5c0,7,0,13.9,0,20.9c0,0.3,0.1,0.5,0.4,0.6
			c2.3,0.9,4.6,1.9,6.9,2.9c0.1,0.1,0.3,0.1,0.4,0.1c1.6,0,3.3,0,4.9,0c0.1,0,0.1,0,0.2,0v-1.4h6.9v1.2h2.4v14.6h-14.6v1.2h-22.4
			v-1.2H627c-4.6,0-9.3,0-13.9,0c-0.2,0-0.3,0-0.5,0v-12.3 M636.8,255.6v13.8c0.3-0.1,0.6-0.2,0.9-0.4c0.5-0.3,1.2-0.3,1.7,0
			c0.3,0.1,0.6,0.3,0.9,0.4v-13.8c-0.8,1-2.3,1.1-3.2,0.3C637,255.8,636.9,255.7,636.8,255.6 M629.8,273.2L629.8,273.2l17.7,0.1
			c-0.1-0.1-0.2-0.1-0.2-0.1c-2.8-1.2-5.6-2.4-8.5-3.5c-0.2,0-0.3,0-0.5,0c-2.6,1.1-5.2,2.2-7.8,3.3
			C630.3,273,630,273.1,629.8,273.2 M640.8,251.8V269c0,0.6,0.1,0.7,0.7,0.8v-18.6h-5.8v18.6c0.7-0.1,0.7-0.2,0.7-0.8
			c0-5.6,0-11.2,0-16.8v-0.4H640.8z M663.7,286.9c0-0.6,0-1.1,0-1.6c0-0.3-0.1-0.4-0.4-0.4c-4.4,0-8.8,0-13.1,0c-0.1,0-0.2,0-0.3,0
			v1.9h13.8V286.9z M627.4,284.9h-13.8v1.9h13.8V284.9z M639.6,288.1v-0.4c0-3.2,0-6.5,0-9.7c0-0.7-0.2-1.4-0.4-2.1
			c-0.1-0.1-0.2-0.2-0.3-0.2c-0.2,0-0.5,0-0.7,0c-0.1,0-0.2,0.1-0.2,0.1c-0.2,0.5-0.3,1.1-0.4,1.6c0,3.5,0,6.9,0,10.4
			c0,0.1,0,0.2,0,0.4L639.6,288.1z M661.2,272.7H656v1.5h-6.1v1.1h13.7V274h-2.4V272.7z M623.3,284.1c0-0.1,0-0.2,0-0.3
			c0-2.3,0-4.6,0-6.9c0-0.2-0.1-0.4-0.1-0.6c-0.1-0.1-0.2-0.2-0.3-0.2c-0.7,0-1.3,0-2,0c-0.1,0-0.2,0.1-0.3,0.1
			c-0.1,0.3-0.2,0.6-0.2,0.9c0,2.2,0,4.4,0,6.6v0.3L623.3,284.1z M660.2,284.1v-0.4c0-2,0-4,0-5.9c0-0.5-0.1-1-0.3-1.4
			c-0.1-0.1-0.2-0.2-0.3-0.2c-0.5,0-1.1,0-1.6,0c-0.1,0-0.2,0-0.3,0.1c-0.2,0.4-0.3,0.9-0.4,1.3c0,2,0,4.1,0,6.1v0.4H660.2z
			 M613.7,275.2h13.8v-0.9h-6.1c0-0.4,0-0.7,0-1.1c0-0.3-0.1-0.4-0.4-0.4c-1.5,0-3,0-4.5,0c-0.1,0-0.2,0-0.4,0v1.2h-2.4L613.7,275.2
			L613.7,275.2z M643.7,288.1v-0.4c0-3.4,0-6.7,0-10.1c0-0.6-0.1-1.1-0.3-1.7c0-0.2-0.2-0.3-0.4-0.3l0,0c-0.1,0-0.3,0-0.4,0
			c-0.1,0-0.2,0.1-0.2,0.1c-0.2,0.5-0.4,1.1-0.4,1.7c0,3.4,0,6.8,0,10.2v0.4L643.7,288.1z M633.5,288.2c0.5,0,0.9,0,1.3,0
			c0.3,0,0.4-0.1,0.4-0.4c0-3.3,0-6.6,0-9.8c0-0.7-0.2-1.4-0.4-2.1c0-0.1-0.1-0.2-0.2-0.2c-0.2,0-0.5,0-0.5,0.1
			c-0.2,0.5-0.4,1.1-0.4,1.6c0,3.4,0,6.9,0,10.3L633.5,288.2 M625.1,284.1h2.3v-8h-1.6c-0.5,0-0.6,0.1-0.7,0.6c0,0.1,0,0.2,0,0.3
			c0,2.2,0,4.5,0,6.7V284.1z M647.5,288.1v-0.4c0-3.2,0-6.5,0-9.7c0-0.7-0.2-1.5-0.5-2.2c-0.1-0.1-0.1-0.1-0.3-0.2
			c-0.1,0-0.3,0-0.3,0.1c-0.2,0.4-0.3,0.9-0.3,1.3c0,3.5,0,7.1,0,10.6c0,0.1,0,0.2,0,0.4L647.5,288.1z M618.6,284.1
			C618.6,284,618.6,284,618.6,284.1c0-2.4,0-4.8,0-7.1c0-0.6-0.2-0.8-0.9-0.8c-0.2,0-0.5,0-0.7,0c-0.1,0-0.2,0.1-0.3,0.1
			c-0.1,0.3-0.2,0.6-0.2,0.9c0,2.2,0,4.4,0,6.5v0.4H618.6z M655.5,284.1c0-0.1,0-0.1,0-0.2c0-2.1,0-4.3,0-6.4
			c-0.1-0.4-0.2-0.8-0.4-1.2c-0.1-0.2-1.2-0.2-1.3,0c-0.2,0.4-0.3,0.9-0.4,1.3c0,2.1,0,4.1,0,6.2c0,0.1,0,0.2,0,0.3L655.5,284.1z
			 M631.2,288.1v-0.4c0-3.3,0-6.7,0-10c0-0.6-0.2-1.3-0.4-1.9c0-0.1-0.1-0.1-0.2-0.1c-0.1,0-0.2,0.1-0.2,0.1
			c-0.2,0.5-0.4,1.1-0.4,1.6c0,3.5,0,6.9,0,10.4c0,0.1,0,0.2,0,0.4L631.2,288.1z M628.3,274.8H649v-0.6c-0.4,0-0.7-0.1-1.1-0.1
			c-6.1,0-12.2,0-18.3,0c-0.1,0-0.2,0-0.3,0s-0.1,0-0.2,0.1c-0.1,0.1-0.2,0.1-0.4,0.2c-0.1,0-0.2,0-0.3,0L628.3,274.8z M651.7,284.1
			v-0.4c0-2,0-4,0-6c0-0.5-0.2-1-0.4-1.4c0-0.1-0.1-0.1-0.2-0.1c-0.4,0-0.9,0-1.3,0v8L651.7,284.1z M663.7,284.1v-8
			c-0.4,0-0.8,0-1.2,0c-0.1,0-0.2,0.1-0.2,0.1c-0.2,0.4-0.3,0.7-0.3,1.1c0,2.1,0,4.2,0,6.3c0,0.1,0,0.2,0,0.4L663.7,284.1z
			 M613.5,276.1v7.9h1.3v-0.4c0-2.2,0-4.3,0-6.5c0-0.3-0.1-0.6-0.2-0.9c0-0.1-0.1-0.1-0.2-0.1C614.1,276.1,613.8,276.1,613.5,276.1
			 M628.4,275.7v12.4h0.7v-0.5c0-3.2,0-6.4,0-9.6c0-0.7,0.1-1.5,0.3-2.1c0-0.1,0.1-0.2,0.1-0.3L628.4,275.7z M638.6,238.4
			L638.6,238.4l-1.9,4.8h3.7L638.6,238.4 M636.7,288.1v-0.5c0-3.1,0-6.3,0-9.4c-0.1-0.8,0.1-1.6,0.4-2.4c0-0.1,0-0.1,0-0.2h-1.5
			c0,0.1,0.1,0.3,0.1,0.4c0.2,0.6,0.3,1.2,0.3,1.8c0,3.3,0,6.6,0,9.8v0.4L636.7,288.1z M631.6,275.7c0.1,0.2,0.1,0.4,0.2,0.5
			c0.2,0.5,0.3,1,0.3,1.5c0,3.3,0,6.6,0,10v0.4h0.7v-0.4c0-3.4,0-6.8,0-10.2c0-0.3,0.1-0.6,0.1-0.9c0.1-0.3,0.2-0.5,0.3-0.8
			L631.6,275.7z M641.1,288.1v-0.4c0-3.3,0-6.6,0-9.9c0-0.5,0.1-1,0.2-1.5c0.1-0.2,0.1-0.4,0.2-0.6H640c0.1,0.2,0.1,0.3,0.1,0.5
			c0.2,0.5,0.3,1.1,0.3,1.6c0,3.3,0,6.6,0,9.9v0.4H641.1z M649,288.1v-12.4h-1.1c0.1,0.2,0.1,0.4,0.2,0.5c0.2,0.6,0.3,1.1,0.3,1.7
			c0,3.2,0,6.4,0,9.6C648.3,288.2,648.3,288.2,649,288.1 M644.2,275.7c0.3,0.8,0.5,1.7,0.3,2.6c0,3.1,0,6.2,0,9.4
			c0,0.5,0,0.5,0.5,0.5c0.1,0,0.1,0,0.2,0v-0.4c0-2.7,0-5.5,0-8.2c0-1.3-0.2-2.6,0.3-3.8L644.2,275.7z M637.1,254.2
			c0,0.8,0.7,1.5,1.5,1.5s1.5-0.7,1.5-1.5s-0.7-1.5-1.5-1.5l0,0C637.8,252.7,637.1,253.4,637.1,254.2L637.1,254.2 M635.7,250.3h5.8
			v-1h-5.8V250.3z M655.8,276.1c0,0.1,0.1,0.3,0.1,0.4c0.2,0.4,0.2,0.8,0.2,1.3c0,2,0,3.9,0,5.9v0.4h0.5v-0.4c0-1.8,0-3.5,0-5.3
			c-0.1-0.7,0-1.4,0.3-2v-0.1L655.8,276.1z M652.9,284.1v-0.4c0-1.9,0-3.7,0-5.6c0-0.6,0.1-1.2,0.3-1.7c0-0.1,0-0.1,0-0.2H652
			c0,0.1,0.1,0.2,0.1,0.3c0.2,0.4,0.3,0.9,0.2,1.3c0,2,0,3.9,0,5.9v0.4L652.9,284.1z M619.8,284.1v-0.5c0-1.2,0-2.5,0-3.7
			c-0.1-1.2,0-2.5,0.2-3.7h-0.8c0,0.6,0.1,1.1,0.1,1.7c0,1.9,0,3.9,0,5.8v0.4L619.8,284.1z M615.3,276.1c0,0.6,0.1,1.1,0.1,1.7
			c0,2,0,3.9,0,5.9v0.4h0.5c0-0.2,0-0.3,0-0.5c0.1-2.5-0.1-5,0.1-7.5H615.3z M623.8,276.1c0,0.4,0.1,0.8,0.1,1.2c0,2.1,0,4.2,0,6.3
			v0.4h0.5v-0.4c0-2.1,0-4.1,0-6.2c0-0.4,0-0.9,0.1-1.3H623.8z M661.3,284.1v-0.4c0-1.2,0-2.4,0-3.5c0.1-1.3-0.2-2.7,0.3-4h-1.2
			c0.3,0.6,0.4,1.3,0.3,1.9c0,1.9,0,3.7,0,5.6v0.4H661.3z M640.8,244.1h-0.7v4.3h0.7V244.1z M638.8,248.4h0.7v-4.3h-0.7V248.4z
			 M636.4,248.4h0.5v-4.3h-0.5V248.4z M638.1,244.1h-0.5v4.3h0.5V244.1z M636.8,252.8l0.8-0.7h-0.8V252.8z M640.3,252.8v-0.6h-0.8
			L640.3,252.8"/>
	</g>
	<g id="Group_105298" transform="translate(552.701 257.301)">
		<path id="Path_78296" class="st0" d="M0,29.2v-11c0.2,0.1,0.3,0.1,0.4,0.2c1,0.5,2,1,3,1.5C3.6,20,3.8,20,4,20.1
			c4.2,0,8.4,0,12.6,0c0.8-0.1,1.5-0.2,2.3-0.4c1.7-0.3,3.3-0.6,5-1c0.2,0,0.3-0.1,0.4-0.3c1.8-2.3,3.6-4.7,5.4-7
			c0.1-0.1,0.1-0.2,0.1-0.4c0-1.1,0-2.1,0-3.2V7.7l-0.9-0.1V7.5l0.9-0.1V6.3h-0.9c0-0.1,0-0.1,0-0.2c0.2,0,0.4,0,0.6,0
			s0.3-0.1,0.3-0.3c0-0.3,0-0.6,0-0.9h0.6c0,0.3,0,0.6,0,0.9c0,0.1,0.1,0.2,0.1,0.3c0.1-0.1,0.2-0.2,0.2-0.3c0-1.7,0-3.5,0-5.2V0H35
			c0,0.1,0,0.3,0,0.4c0,0.8,0,1.5,0,2.3c0,0.4-0.1,0.5-0.5,0.5c-1,0-2.1,0-3.1,0c-0.4,0-0.5,0.1-0.5,0.5c0,0.7,0,1.4,0,2.1
			C30.9,5.9,31,6,31,6.1c0.1-0.1,0.2-0.2,0.2-0.3c0-0.3,0-0.6,0-0.9h0.6c0,0.3,0,0.6,0,0.9s0.1,0.4,0.4,0.4c0.2,0,0.3,0,0.5,0v0.1
			l-0.9,0.1v1.2h0.9c0,0.1,0,0.1,0,0.2l-0.9,0.1c0,0.7,0,1.4,0,2c-0.1,0.9,0.2,1.9,0.9,2.6c1.6,2,3,4,4.6,6c0.2,0.2,0.4,0.4,0.7,0.4
			c2.1,0.4,4.3,0.9,6.4,1.3c0.3,0.1,0.5,0.1,0.8,0.1c4.1,0,8.2,0,12.4,0c0.3,0,0.5-0.1,0.8-0.2c1-0.5,2-1,2.9-1.5
			c0.1-0.1,0.3-0.1,0.4-0.2c0,0.2,0,0.3,0,0.5c0,3.4,0,6.7,0,10.1c0,0.4-0.1,0.5-0.5,0.5c-14.8,0-29.7,0-44.5,0L0,29.2 M44.6,20.3
			c-3.6-0.9-7.4-1.5-11.1-1.8v1.9h-1.1c0,0.8,0,1.5,0,2.2c0,0.3-0.1,0.4-0.4,0.4c-0.7,0-1.5,0-2.2,0c-0.3,0-0.4-0.1-0.4-0.4
			c0-0.7,0-1.4,0-2.2h-1.1v-1.9c-3.7,0.3-7.5,0.9-11.1,1.8V29H18v-7.5h2.8c0,0.2,0,0.3,0,0.5c0,0.7,0,1.4,0,2.1c0,1.5,0,3,0,4.5
			c0,0.2-0.1,0.4,0.2,0.4c0.4,0,0.9,0,1.4,0v-0.5c0-2.2,0-4.4,0-6.6c0-0.3,0.1-0.5,0.4-0.5c0.6,0,1.3,0,1.9,0c0.3,0,0.4,0.1,0.4,0.4
			c0,2.2,0,4.4,0,6.6V29c0.7,0,1.3,0,1.9,0c0.3,0,0.4-0.1,0.4-0.4c0-1.2,0-2.4,0-3.6c0-0.1,0-0.3,0-0.4h2.8V29h1.6v-4.4h2.8v0.5
			c0,1.2,0,2.4,0,3.6c0,0.1,0.1,0.4,0.2,0.4c0.7,0,1.3,0,2.1,0v-0.5c0-2.2,0-4.4,0-6.6c0-0.2,0-0.4,0.3-0.4c0.8,0,1.5,0,2.3,0
			c0.2,0,0.3,0.1,0.3,0.3c0,0.3,0,0.5,0,0.8c0,2,0,4.1,0,6.1c0,0.1,0.1,0.4,0.2,0.4c0.5,0,0.9,0,1.4,0v-7.5h2.8V29h0.7L44.6,20.3z
			 M11.8,24.7V29h1c0.6,0,0.6,0,0.6-0.5c0-1.1,0-2.2,0-3.3c0-0.3,0.1-0.4,0.4-0.4c0.7,0,1.4,0,2.1,0c0.3,0,0.4,0.1,0.4,0.4
			c0,1.2,0,2.3,0,3.5c0,0.1,0,0.3,0,0.4H17v-8.6H4V29h0.7v-4.2c0.8,0,1.6,0,2.3,0c0.3,0,0.5,0.1,0.4,0.4c0,1.2,0,2.3,0,3.5
			c0,0.2-0.1,0.4,0.2,0.4C8,29,8.5,29,9,29v-0.5c0-1.1,0-2.3,0-3.4c0-0.2-0.1-0.4,0.2-0.4C10,24.7,10.9,24.7,11.8,24.7 M45.6,24.7
			c0.8,0,1.6,0,2.4,0c0.3,0,0.4,0.1,0.4,0.4c0,1.1,0,2.3,0,3.4c0,0.2,0,0.3,0,0.5H50c0-1.1,0-2.1,0-3.2c0-1,0-1,1-1h1.8V29
			c0.4,0,0.8,0,1.1,0s0.5-0.1,0.5-0.4c0-1.2,0-2.3,0-3.5c0-0.3,0.1-0.4,0.3-0.3c0.7,0,1.4,0,2.1,0c0.3,0,0.4,0.1,0.4,0.4
			c0,1.2,0,2.3,0,3.5c0,0.1,0,0.3,0,0.4h0.7v-8.6h-13V29h0.7V24.7z M31,9.2h-0.2c0-0.4,0-0.8,0-1.1c0-0.1-0.1-0.2-0.2-0.3
			c0,0.1-0.1,0.2-0.1,0.3c0,0.9,0,1.8,0,2.7c0,0.3-0.1,0.7-0.3,0.9c-1.3,2.1-2.6,4.2-3.8,6.3c-0.1,0.1-0.1,0.2-0.2,0.4
			c0.7,0,1.3-0.1,1.9-0.1c0.3,0,0.4,0.1,0.4,0.4c0,0.5,0,0.9,0,1.5h1.2v2.5h2.5v-2.5h1.1c0-0.5,0-1,0-1.5c0-0.3,0.1-0.4,0.4-0.4
			c0.6,0,1.2,0.1,1.9,0.1c-0.1-0.2-0.2-0.3-0.2-0.4c-1.3-2.1-2.5-4.1-3.8-6.2c-0.2-0.3-0.3-0.7-0.3-1.1c0-0.9,0-1.8,0-2.7
			c0-0.1-0.1-0.2-0.1-0.3C31.1,7.8,31,7.9,31,8C30.9,8.4,31,8.8,31,9.2 M3.6,29c0-0.1,0-0.1,0-0.2c0-2.8,0-5.5,0-8.3
			c0-0.2-0.1-0.3-0.3-0.4c-0.9-0.5-1.9-1-2.9-1.5c-0.1,0-0.2-0.1-0.3-0.1V29H3.6z M61.5,29V18.6c-0.2,0.1-0.3,0.1-0.4,0.2
			c-0.9,0.5-1.8,0.9-2.7,1.4c-0.2,0.1-0.4,0.3-0.3,0.5c0,2.6,0,5.3,0,7.9c0,0.1,0,0.3,0,0.4H61.5z M36.9,29c0.7,0,1.3,0,1.9,0
			c0.3,0,0.4-0.1,0.4-0.4c0-2.2,0-4.3,0-6.5c0-0.1,0-0.2,0-0.4h-2.3L36.9,29z M22.4,21.7v2.6c0,1.4,0,2.9,0,4.3
			c0,0.1,0.1,0.4,0.2,0.4c0.7,0,1.4,0,2.2,0v-7.3H22.4z M41.3,29h2.3v-7.3h-2.3V29z M20.4,21.7h-2.3V29h2.3V21.7z M31.9,29h2.3
			c0-1.1,0-2.3,0-3.4c0-0.9,0-0.9-0.9-0.9h-1.5V29H31.9z M29.8,24.8h-2.3V29h2.3V24.8z M54.5,25c0,1.3,0,2.6,0,3.9
			c0,0.1,0.1,0.1,0.2,0.2c0.7,0,1.4,0,2.2,0v-4L54.5,25z M45.8,29c0.7,0,1.3,0,2,0c0.3,0,0.4-0.1,0.4-0.4c0-1.1,0-2.1,0-3.2V25h-2.4
			V29z M13.5,25c0,1.3,0,2.6,0,3.8c0,0.1,0.1,0.2,0.2,0.2c0.7,0,1.4,0,2.2,0v-4H13.5z M4.8,29c0.7,0,1.4,0,2,0
			c0.3,0,0.4-0.1,0.4-0.4c0-0.7,0-1.5,0-2.2V25H4.8V29z M52.5,25h-2.3v4h2.3V25z M11.5,25H9.2v4h2.3V25z M34.7,3V0.2h-2v1.5H31
			c0,0.3,0,0.6,0,0.9C30.9,2.9,31,3,31.3,3c0.5,0,1,0,1.5,0H34.7 M30.2,7.7H30c0,0.1,0,0.3,0,0.4c0,0.9,0,1.9,0,2.8
			c0,0.2-0.1,0.5-0.2,0.6c-1.7,2.3-3.4,4.5-5.1,6.7c-0.1,0.1-0.1,0.2-0.2,0.3c0.3,0,0.7-0.1,1-0.1c0.2,0,0.4-0.2,0.5-0.3
			c1.4-2.2,2.7-4.4,4.1-6.7c0.1-0.2,0.2-0.4,0.2-0.6c0-0.9,0-1.9,0-2.8C30.2,8,30.2,7.9,30.2,7.7 M31.7,7.7h-0.1
			c0,0.1,0,0.1-0.1,0.2c0,1,0,2.1,0,3.1c0,0.1,0,0.3,0.1,0.4c1.4,2.3,2.8,4.5,4.1,6.8c0.1,0.1,0.1,0.2,0.2,0.2
			c0.4,0.1,0.8,0.1,1.3,0.2c-0.1-0.2-0.2-0.2-0.2-0.3c-1.7-2.2-3.4-4.5-5.1-6.7c-0.1-0.2-0.2-0.4-0.2-0.6c0-0.9,0-1.9,0-2.8
			C31.7,8,31.7,7.9,31.7,7.7 M32.5,0.2H31v1.3h1.5V0.2z M31.3,6.9L31.3,6.9c0-0.1,0-0.3,0-0.4s-0.1-0.1-0.1-0.2
			c-0.1,0-0.2,0.1-0.2,0.1c0,0.3,0,0.6,0,0.9c0,0.1,0.1,0.1,0.1,0.1l0.1-0.1C31.3,7.2,31.3,7,31.3,6.9 M30.4,6.8L30.4,6.8
			c0.1,0.2,0.1,0.3,0.1,0.5c0,0.1,0.1,0.2,0.1,0.2c0.1-0.1,0.1-0.1,0.2-0.2c0-0.1,0-0.3,0-0.4c0-0.2,0.2-0.5-0.2-0.5
			C30.5,6.5,30.4,6.6,30.4,6.8 M31.5,7.5c0.2-0.4,0.2-0.8,0-1.2V7.5z M30.2,6.3h-0.1v1.2h0.1V6.3z M31.5,6h0.1V5h-0.1V6z M30.2,5
			h-0.1v1h0.1V5z"/>
		<path id="Path_78297" class="st0" d="M10.4,23.3c-0.4,0-0.7,0-1.1,0c-0.2,0-0.3,0-0.3-0.3c0-0.4,0-0.8,0-1.2
			c0-0.1,0.1-0.2,0.3-0.3c0.7,0,1.5,0,2.2,0c0.2,0,0.3,0.1,0.3,0.3c0,0.4,0,0.8,0,1.1c0,0.2-0.1,0.3-0.3,0.3
			C11.1,23.3,10.7,23.3,10.4,23.3 M9.2,21.8v1.3c0.7,0,1.4,0,2.2,0c0.1,0,0.2-0.1,0.2-0.2c0-0.4,0-0.7,0-1.1
			C11.6,21.8,9.2,21.8,9.2,21.8z"/>
		<path id="Path_78298" class="st0" d="M13.4,21.6c0.9,0,1.7,0,2.6,0c0.1,0,0.2,0.1,0.2,0.2c0,0.4,0,0.8,0,1.3
			c0,0.1-0.1,0.2-0.2,0.2c-0.8,0-1.6,0-2.3,0c-0.1,0-0.2-0.1-0.2-0.2C13.3,22.6,13.4,22.1,13.4,21.6 M15.9,21.8h-1.4c-1,0-1,0-1,1
			v0.1c0,0.1,0.1,0.2,0.2,0.2c0.7,0,1.4,0,2.2,0V21.8z"/>
		<path id="Path_78299" class="st0" d="M6,23.3c-0.4,0-0.7,0-1.1,0c-0.2,0-0.3-0.1-0.3-0.3c0-0.4,0-0.8,0-1.2c0-0.2,0.1-0.3,0.3-0.3
			c0.7,0,1.5,0,2.2,0c0.2,0,0.3,0.1,0.3,0.3c0,0.4,0,0.8,0,1.2c0,0.2-0.1,0.3-0.3,0.3C6.7,23.3,6.3,23.3,6,23.3L6,23.3z M7.2,21.8
			H4.8v1.3c0.7,0,1.5,0,2.2,0c0.1,0,0.2-0.1,0.2-0.2C7.2,22.6,7.2,22.2,7.2,21.8"/>
		<path id="Path_78300" class="st0" d="M51.3,23.3c-0.4,0-0.7,0-1.1,0c-0.2,0-0.3-0.1-0.3-0.3c0-0.4,0-0.8,0-1.2
			c0-0.1,0.1-0.2,0.2-0.2c0.8,0,1.5,0,2.3,0c0.1,0,0.2,0.1,0.3,0.3c0,0.4,0,0.8,0,1.2c0,0.2-0.1,0.3-0.3,0.3
			C52.1,23.3,51.7,23.3,51.3,23.3 M52.5,21.8h-2.4v1.3c0.7,0,1.4,0,2.2,0c0.1,0,0.2-0.1,0.2-0.2C52.6,22.6,52.5,22.2,52.5,21.8"/>
		<path id="Path_78301" class="st0" d="M46.9,23.3c-0.4,0-0.7,0-1.1,0c-0.2,0-0.3-0.1-0.3-0.3c0-0.4,0-0.8,0-1.1
			c0-0.2,0.1-0.3,0.3-0.3c0.7,0,1.5,0,2.2,0c0.2,0,0.3,0.1,0.3,0.3c0,0.4,0,0.8,0,1.1c0,0.2-0.1,0.3-0.3,0.3
			C47.7,23.3,47.3,23.3,46.9,23.3 M45.8,23.1c0.7,0,1.4,0,2.1,0c0.1,0,0.2-0.1,0.2-0.2c0-0.4,0-0.8,0-1.1h-2.4v1.3H45.8z"/>
		<path id="Path_78302" class="st0" d="M55.8,23.3c-0.4,0-0.7,0-1.1,0c-0.2,0-0.3-0.1-0.3-0.3c0-0.4,0-0.8,0-1.2
			c0-0.2,0.1-0.3,0.3-0.3c0.7,0,1.5,0,2.2,0c0.2,0,0.3,0.1,0.3,0.3c0,0.4,0,0.8,0,1.2c0,0.2-0.1,0.3-0.3,0.3
			C56.5,23.3,56.1,23.3,55.8,23.3 M56.9,21.8h-2.3c0,0.4,0,0.8,0,1.1c0,0.1,0.1,0.2,0.2,0.2c0.7,0,1.4,0,2.2,0v-1.3H56.9z"/>
	</g>
	<g id="Group_105307" transform="translate(661.719 262.594)">
		<path id="Path_75375" class="st0" d="M36.9,12.4c-0.1,0-0.2-0.1-0.3-0.1C35.2,10,33.4,8,31.2,6.4c-2-1.4-4.1-2.6-6.4-3.6
			c-0.2-0.1-0.2-0.2-0.2-0.4s0.2-0.2,0.4-0.2l0,0c2.3,1,4.5,2.2,6.5,3.7c2.3,1.6,4.2,3.7,5.6,6.1C37.2,12.1,37.1,12.3,36.9,12.4
			C37,12.4,37,12.4,36.9,12.4L36.9,12.4z"/>
		<path id="Path_75376" class="st0" d="M21.8,1.7C21.8,1.7,21.7,1.7,21.8,1.7c-1.4-0.5-2.8-0.8-4.2-1.1c-0.2,0-0.3-0.2-0.3-0.4
			s0.2-0.3,0.4-0.2c1.4,0.3,2.8,0.6,4.2,1.1c0.2,0,0.3,0.2,0.3,0.3C22.1,1.6,22,1.7,21.8,1.7L21.8,1.7z"/>
		<path id="Path_75379" class="st0" d="M23.9,22c-0.1,0-0.3-0.1-0.3-0.2C21,13.2,15,2.8,14.9,2.7s0-0.3,0.1-0.4c0.1,0,0.1-0.1,0.2,0
			c3.4,0.3,6.7,1.2,9.7,2.6c2.5,1.1,4.8,2.6,6.8,4.3c2.1,1.7,3.9,3.6,5.4,5.8c0.1,0.1,0,0.3-0.1,0.4l0,0l-13,6.7
			C24,22,24,22,23.9,22z M15.7,2.9c1.2,2.2,6,10.9,8.4,18.4L36.5,15c-1.4-2-3.2-3.8-5.1-5.4c-2-1.7-4.3-3.1-6.7-4.2
			C21.9,4.1,18.8,3.2,15.7,2.9L15.7,2.9z"/>
		<path id="Path_75380" class="st0" d="M9.8,5.4C9.9,5.4,9.9,5.4,9.8,5.4l3.9,1c1.8,0.5,3.6,1.3,5,2.5L18.8,9
			c2.1,4.1,3.9,8.3,5.3,12.6c0.1,0.2,0,0.3-0.2,0.4h-0.1h-4.3c-0.1,0-0.2-0.1-0.3-0.1l-0.9-1.6l-5-0.9l-0.6,0.9
			c-0.1,0.1-0.2,0.2-0.4,0.1l-1.6-0.7c-0.1-0.1-0.2-0.2-0.2-0.3l0.6-5.1c0.1-1.1,0-2.2-0.3-3.3L9.6,5.8C9.5,5.7,9.6,5.5,9.8,5.4
			L9.8,5.4L9.8,5.4z M18.4,9.3c-1.4-1.1-3-1.9-4.8-2.4l-3.3-0.8l1.4,4.7c0.3,1.2,0.4,2.4,0.3,3.6l-0.6,4.9l1.2,0.5l0.5-0.9
			c0.1-0.1,0.2-0.2,0.3-0.1l5.3,0.9c0.1,0,0.2,0.1,0.2,0.1l0.9,1.5h3.7C22.1,17.3,20.4,13.2,18.4,9.3z"/>
		<path id="Path_75381" class="st0" d="M2.9,8.4L2.9,8.4C5.7,8.5,8.5,9,11.2,9.8c0.1,0,0.2,0.1,0.2,0.2l0.2,0.8
			c0.3,1.2,0.4,2.4,0.3,3.6l-0.6,5.1c0,0.2-0.2,0.3-0.3,0.3c0,0,0,0-0.1,0l-6.5-2.1c-0.1,0-0.2-0.1-0.2-0.2L2.6,8.7
			C2.6,8.5,2.7,8.4,2.9,8.4L2.9,8.4L2.9,8.4z M10.9,10.4C8.4,9.6,5.9,9.1,3.3,9l1.5,8.1l6,2l0.6-4.7c0.1-1.1,0-2.2-0.3-3.3
			L10.9,10.4z"/>
		<path id="Path_75382" class="st0" d="M4.6,17.7H2c-0.1,0-0.2-0.1-0.3-0.2L0,14.2c0-0.2,0-0.4,0.2-0.4l0,0c1.1-0.4,2.3-0.8,3.4-1
			c0.2,0,0.3,0.1,0.4,0.2l0,0l0.8,4.2C5,17.3,5,17.4,5,17.6C4.9,17.6,4.8,17.7,4.6,17.7L4.6,17.7z M2.2,17.1h1.9l-0.7-3.7
			c-1.2,0.3-2.2,0.6-2.7,0.8L2.2,17.1z"/>
		<path id="Path_75383" class="st0" d="M45.1,22h-2c-0.1,0-0.2,0-0.2-0.1l-6.2-6.7c-0.1-0.1-0.1-0.3,0-0.4c0.9-1.3,2.1-2.4,3.4-3.2
			c3.3-2.2,7.1-3.3,11.1-3.3c0.1,0,0.2,0.1,0.3,0.1c0.1,0.1,0.1,0.2,0,0.3l-2.2,4.8c-0.1,0.2-0.3,0.2-0.4,0.1
			c-0.2-0.1-0.2-0.3-0.1-0.4l2-4.4C47,9,43.4,10.1,40.4,12.1c-1.2,0.8-2.2,1.8-3.1,2.9l5.9,6.4h1.6l1.9-4.1c0.1-0.2,0.3-0.2,0.4-0.1
			c0.2,0.1,0.2,0.3,0.1,0.4l0,0l-2,4.3C45.3,21.9,45.2,22,45.1,22z"/>
		<path id="Path_75384" class="st0" d="M36.9,22c-0.1,0-0.1,0-0.2,0l-6.1-3.5c-0.1-0.1-0.2-0.3-0.1-0.4s0.3-0.2,0.4-0.1l0,0l6,3.5
			l4.6-1.5c0.2-0.1,0.3,0,0.4,0.2s0,0.3-0.2,0.4l0,0L36.9,22C37,22,37,22,36.9,22z"/>
		<path id="Line_713" class="st0" d="M36.9,22c-0.2,0-0.3-0.1-0.3-0.3l0,0V15c0-0.2,0.1-0.3,0.3-0.3s0.3,0.1,0.3,0.3v6.7
			C37.2,21.9,37.1,22,36.9,22L36.9,22z"/>
		<path id="Path_75385" class="st0" d="M55.9,23.9H4.6c-0.1,0-0.2,0-0.2-0.1l-3.5-4.7c-0.1-0.1-0.1-0.2,0-0.3l0.8-1.5
			C1.8,17.1,2,17,2.2,17.1c0.1,0.1,0.2,0.3,0.1,0.4l-0.8,1.3l3.3,4.5h50.5L54.1,22H19.7c-0.2,0-0.3-0.1-0.3-0.3
			c0-0.2,0.1-0.3,0.3-0.3h34.5c0.1,0,0.2,0,0.2,0.1l1.7,1.9c0.1,0.1,0.1,0.3,0,0.4C56.1,23.9,56,23.9,55.9,23.9L55.9,23.9z"/>
		<path id="Path_75386" class="st0" d="M60.3,12.4c3.2,0,6.5,0.5,9.6,1.3c0.2,0,0.3,0.2,0.2,0.4c0,0.1-0.1,0.2-0.2,0.2
			c-3.6,1-12.7,9.4-12.8,9.5s-0.1,0.1-0.2,0.1H56c-0.1,0-0.3-0.1-0.3-0.2L55,20.8l-3.6-0.9v1.8c0,0.2-0.1,0.3-0.3,0.3l0,0h-1.3
			c-0.1,0-0.2-0.1-0.3-0.1l-4.7-7.6c-0.1-0.1,0-0.3,0.1-0.4l0,0c1-0.4,2.2-0.6,3.3-0.6l0,0c1.5,0,2.9,0.2,4.3,0.5
			C55.1,12.8,57.7,12.4,60.3,12.4z M68.8,14.1C66,13.4,63.2,13,60.3,13c-2.6-0.1-5.2,0.4-7.6,1.3c-0.1,0-0.1,0-0.2,0
			c-1.4-0.3-2.8-0.5-4.3-0.6l0,0c-0.9,0-1.9,0.1-2.7,0.4l4.4,7.2h0.9v-1.9c0-0.2,0.1-0.3,0.3-0.3h0.1l4.1,1c0.1,0,0.2,0.1,0.2,0.2
			l0.6,2.9h0.6C57.7,22.5,64.9,15.9,68.8,14.1L68.8,14.1z"/>
		<path id="Path_75387" class="st0" d="M55.3,20.8c-0.1,0-0.3-0.1-0.3-0.2c-0.6-2.2-1.5-4.4-2.6-6.3c-0.1-0.1,0-0.3,0.1-0.4
			s0.3,0,0.4,0.1c1.2,2,2.1,4.2,2.7,6.5C55.6,20.6,55.5,20.8,55.3,20.8L55.3,20.8L55.3,20.8z"/>
		<path id="Path_75388" class="st0" d="M69.8,23.9h-13c-0.2,0-0.3-0.1-0.3-0.3c0-0.2,0.1-0.3,0.3-0.3h12L64,19.7c0,0,0-0.1,0-0.2
			v-2.1c0-0.2,0.1-0.3,0.3-0.3c0.2,0,0.3,0.1,0.3,0.3l0,0v1.9l5.4,4.1c0.1,0.1,0.2,0.3,0.1,0.4C70,23.9,69.9,23.9,69.8,23.9
			L69.8,23.9z"/>
		<path id="Path_75389" class="st0" d="M76.5,23.9h-6.7c-0.1,0-0.1,0-0.2-0.1L64,19.7c0,0,0-0.1,0-0.2l0.2-1.8
			c0-0.2,0.1-0.3,0.3-0.3c0.1,0,0.1,0,0.2,0.1s0.2,0.2,0.4,0.3c0.9-0.1,1.8,0.2,2.4,0.8c1-0.1,1.9,0.3,2.4,1.1
			c0.7-0.2,1.4,0,1.9,0.4c1-0.7,2.4-0.5,3.1,0.5c0.2,0.3,0.3,0.6,0.4,0.9c0.1,0,0.2,0.1,0.2,0.1c0.9,0.4,1.4,1.2,1.3,2.1
			C76.8,23.8,76.7,23.9,76.5,23.9z M69.9,23.3h6.2c-0.1-0.7-0.6-1.2-1.3-1.4c-0.1,0-0.2-0.1-0.2-0.3c-0.1-0.9-0.8-1.5-1.7-1.5
			c-0.4,0-0.7,0.2-1,0.4c-0.1,0.1-0.3,0.1-0.4,0c-0.5-0.4-1.1-0.6-1.7-0.3c-0.1,0.1-0.3,0-0.4-0.1c-0.4-0.8-1.2-1.2-2.1-1
			c-0.1,0-0.2,0-0.3-0.1c-0.6-0.6-1.4-0.9-2.2-0.7c-0.1,0-0.2,0-0.2-0.1l-0.1,1L69.9,23.3z"/>
	</g>
</g>
</svg>
