<?xml version="1.0" encoding="utf-8"?>
<!-- Generator: Adobe Illustrator 26.0.1, SVG Export Plug-In . SVG Version: 6.00 Build 0)  -->
<svg version="1.1" id="Layer_1" xmlns="http://www.w3.org/2000/svg" xmlns:xlink="http://www.w3.org/1999/xlink" x="0px" y="0px"
	 viewBox="0 0 95.9 89.1" style="enable-background:new 0 0 95.9 89.1;" xml:space="preserve">
<style type="text/css">
	.st0{fill:#FFFFFF;}
	.st1{clip-path:url(#SVGID_00000108308386967497179920000008836990025306889617_);}
</style>
<g id="Group_105282" transform="translate(2671.912 10680.863)">
	<path id="Path_78008" class="st0" d="M-2651.9-10674.6v0.5h0.8v-0.5H-2651.9z"/>
	<path id="Path_78034" class="st0" d="M-2647.1-10642.6c0.1,0,0.2-0.1,0.2-0.2l0,0v-1.6c0-0.1-0.1-0.2-0.2-0.2
		c-0.1,0-0.2,0.1-0.2,0.2v1.6C-2647.4-10642.7-2647.2-10642.6-2647.1-10642.6L-2647.1-10642.6"/>
	<path id="Path_78035" class="st0" d="M-2649.7-10644.7c-0.1,0-0.2,0.1-0.2,0.2l0,0v1.6c0,0.1,0.1,0.2,0.2,0.2
		c0.1,0,0.2-0.1,0.2-0.2v-1.6C-2649.5-10644.6-2649.6-10644.7-2649.7-10644.7L-2649.7-10644.7"/>
	<path id="Path_78036" class="st0" d="M-2646-10645.2h-1.9v-1.4c0-0.1-0.1-0.2-0.2-0.2l0,0h-1.1v-2.4c0-0.1-0.1-0.2-0.2-0.2l0,0
		h-0.5l-0.3-10.5h0.9c0.1,0,0.2-0.1,0.2-0.2l0,0v-1.3c0-0.1-0.1-0.2-0.2-0.2l0,0h-1v-0.6l0,0l-0.3-12.1h0.6c0.1,0,0.2-0.1,0.2-0.2
		l0,0v-0.9c0-0.1-0.1-0.2-0.2-0.2l0,0h-0.6l-0.1-3.3l0,0v-1.4c0-0.1-0.1-0.2-0.2-0.2h-1c-0.1,0-0.2,0.1-0.2,0.2l-0.1,4.7h-0.6
		c-0.1,0-0.2,0.1-0.2,0.2l0,0v0.9c0,0.1,0.1,0.2,0.2,0.2l0,0h0.6l-0.3,12.7h-1c-0.1,0-0.2,0.1-0.2,0.2l0,0v1.3
		c0,0.1,0.1,0.2,0.2,0.2l0,0h0.9l-0.3,10.5h-0.5c-0.1,0-0.2,0.1-0.2,0.2l0,0v2.4h-1.1c-0.1,0-0.2,0.1-0.2,0.2l0,0v1.4h-1.9
		c-0.1,0-0.2,0.1-0.2,0.2l0,0v2.7c0,0.1,0.1,0.2,0.2,0.2l0,0h0.9v2.5c0,0.1,0.1,0.2,0.2,0.2l0,0h2.3l-2.1,47.3
		c0,0.1,0.1,0.3,0.2,0.3l0,0h8c0.1,0,0.2-0.1,0.2-0.2l0,0l-2.1-47.3h2.3c0.1,0,0.2-0.1,0.2-0.2l0,0v-2.5h0.9c0.1,0,0.2-0.1,0.2-0.2
		l0,0v-2.7C-2645.7-10645.1-2645.8-10645.2-2646-10645.2L-2646-10645.2 M-2651.7-10680.4h0.5v0.9h-0.6L-2651.7-10680.4z
		 M-2651.8-10679h0.6l0.1,3.1h-0.7L-2651.8-10679z M-2652.7-10675.4h2.4v0.4h-2.5L-2652.7-10675.4z M-2651.1-10673.6l0.3,10.9h-1.4
		l0.3-10.9H-2651.1z M-2651.9-10674.1v-0.5h0.8v0.5H-2651.9z M-2650.8-10662.2v0.4h-1.4v-0.4H-2650.8z M-2653.5-10661.4h3.9v0.9
		h-3.9V-10661.4z M-2650.7-10659l0.2,9.5h-2.1l0.2-9.5H-2650.7z M-2652.3-10659.5v-0.5h1.5v0.5H-2652.3z M-2653.3-10649.1h3.5v2.1
		h-3.5V-10649.1z M-2654.6-10646.4h6.3v1.2h-6.3V-10646.4z M-2651.7-10592.2h-3.5v-1.1h3.4L-2651.7-10592.2z M-2651.7-10593.8h-3.4
		l0.1-1.1h3.4v1.1H-2651.7z M-2651.7-10595.4h-3.3l0.1-1.1h3.3L-2651.7-10595.4z M-2651.7-10597h-3.3l0.1-1.1h3.2V-10597z
		 M-2651.7-10598.6h-3.2v-1.1h3.2V-10598.6z M-2651.7-10600.2h-3.1l0.1-1.1h3.1v1.1H-2651.7z M-2651.7-10601.8h-3.1l0.1-1.1h3
		V-10601.8z M-2651.7-10603.4h-3l0.1-1.1h2.9V-10603.4z M-2651.7-10605h-2.9l0.1-1.1h2.9v1.1H-2651.7z M-2651.7-10606.6h-2.8
		l0.1-1.1h2.8v1.1H-2651.7z M-2651.7-10608.2h-2.8l0.1-1.1h2.7V-10608.2z M-2651.7-10609.8h-2.7v-1.1h2.6L-2651.7-10609.8z
		 M-2651.7-10611.4h-2.6v-1.1h2.6V-10611.4z M-2651.7-10613h-2.6v-1.1h2.5L-2651.7-10613z M-2651.7-10614.6h-2.5v-1.1h2.4
		L-2651.7-10614.6z M-2651.7-10616.2h-2.4v-1.1h2.4V-10616.2z M-2651.7-10617.8h-2.3l0.1-1.1h2.3v1.1H-2651.7z M-2651.7-10619.4
		h-2.3l0.1-1.1h2.2V-10619.4z M-2651.7-10621h-2.2l0.1-1.1h2.1L-2651.7-10621z M-2651.7-10622.6h-2.1l0.1-1.1h2.1v1.1H-2651.7z
		 M-2651.7-10624.2h-2l0.1-1.1h2L-2651.7-10624.2z M-2651.7-10625.8h-2l0.1-1.1h1.9V-10625.8z M-2651.7-10627.4h-1.9v-1.1h1.9
		V-10627.4z M-2651.7-10629h-1.8l0.1-1.1h1.8v1.1H-2651.7z M-2651.7-10630.6h-1.8l0.1-1.1h1.7V-10630.6z M-2651.7-10632.2h-1.7
		l0.1-1.1h1.6L-2651.7-10632.2L-2651.7-10632.2z M-2651.7-10633.8h-1.6v-1.1h1.6V-10633.8z M-2651.7-10635.4h-1.5v-1.1h1.5V-10635.4
		z M-2651.7-10637h-1.5l0.1-1.1h1.4V-10637z M-2651.7-10638.6h-1.4v-0.8h1.4V-10638.6z M-2650.8-10592.3h-0.4v-47h0.4V-10592.3z
		 M-2647.8-10592.3h-2.6v-47h0.4L-2647.8-10592.3z M-2647.4-10639.9h-8.3v-0.5h8.3V-10639.9z M-2647.4-10640.9h-8.3v-1.2h8.3
		V-10640.9z M-2646.2-10642.6h-10.5v-2.1h10.5V-10642.6z"/>
	<path id="Path_78037" class="st0" d="M-2648.2-10644.4v1.6c0,0.1,0.1,0.2,0.2,0.2s0.2-0.1,0.2-0.2v-1.6c0-0.1-0.1-0.2-0.2-0.2
		S-2648.2-10644.6-2648.2-10644.4"/>
	<path id="Path_78038" class="st0" d="M-2648.9-10644.7c-0.1,0-0.2,0.1-0.2,0.2l0,0v1.6c0,0.1,0.1,0.2,0.2,0.2
		c0.1,0,0.2-0.1,0.2-0.2v-1.6C-2648.6-10644.6-2648.7-10644.7-2648.9-10644.7L-2648.9-10644.7"/>
	<path id="Path_78039" class="st0" d="M-2655-10644.7c-0.1,0-0.2,0.1-0.2,0.2l0,0v1.6c0,0.1,0.1,0.2,0.2,0.2s0.2-0.1,0.2-0.2v-1.6
		C-2654.8-10644.6-2654.9-10644.7-2655-10644.7L-2655-10644.7"/>
	<path id="Path_78040" class="st0" d="M-2655.9-10644.7c-0.1,0-0.2,0.1-0.2,0.2l0,0v1.6c0,0.1,0.1,0.2,0.2,0.2s0.2-0.1,0.2-0.2v-1.6
		C-2655.6-10644.6-2655.7-10644.7-2655.9-10644.7L-2655.9-10644.7"/>
	<path id="Path_78041" class="st0" d="M-2650.6-10644.7c-0.1,0-0.2,0.1-0.2,0.2l0,0v1.6c0,0.1,0.1,0.2,0.2,0.2
		c0.1,0,0.2-0.1,0.2-0.2v-1.6C-2650.4-10644.6-2650.5-10644.7-2650.6-10644.7L-2650.6-10644.7"/>
	<path id="Path_78042" class="st0" d="M-2654.1-10644.7c-0.1,0-0.2,0.1-0.2,0.2l0,0v1.6c0,0.1,0.1,0.2,0.2,0.2
		c0.1,0,0.2-0.1,0.2-0.2v-1.6C-2653.9-10644.6-2654-10644.7-2654.1-10644.7L-2654.1-10644.7"/>
	<path id="Path_78043" class="st0" d="M-2653.2-10644.7c-0.1,0-0.2,0.1-0.2,0.2l0,0v1.6c0,0.1,0.1,0.2,0.2,0.2
		c0.1,0,0.2-0.1,0.2-0.2v-1.6C-2653-10644.6-2653.1-10644.7-2653.2-10644.7L-2653.2-10644.7"/>
	<path id="Path_78044" class="st0" d="M-2651.5-10644.7c-0.1,0-0.2,0.1-0.2,0.2l0,0v1.6c0,0.1,0.1,0.2,0.2,0.2
		c0.1,0,0.2-0.1,0.2-0.2v-1.6C-2651.2-10644.6-2651.4-10644.7-2651.5-10644.7L-2651.5-10644.7"/>
	<path id="Path_78045" class="st0" d="M-2652.4-10644.7c-0.1,0-0.2,0.1-0.2,0.2l0,0v1.6c0,0.1,0.1,0.2,0.2,0.2
		c0.1,0,0.2-0.1,0.2-0.2v-1.6C-2652.1-10644.6-2652.2-10644.7-2652.4-10644.7L-2652.4-10644.7"/>
</g>
<g id="Group_105290" transform="translate(2682.18 10742.405)">
	<path id="Path_78237" class="st0" d="M-2649.1-10666.7h1.5c0.1,0,0.2-0.1,0.2-0.2l0,0v-1.9c0-0.6-0.4-1-1-1s-1,0.4-1,1v1.9
		C-2649.3-10666.8-2649.2-10666.7-2649.1-10666.7L-2649.1-10666.7 M-2648.8-10668.9c0-0.3,0.3-0.5,0.5-0.5c0.3,0,0.5,0.2,0.5,0.5
		v1.7h-1V-10668.9z"/>
	<path id="Path_78238" class="st0" d="M-2646.2-10666.7h1.5c0.1,0,0.2-0.1,0.2-0.2l0,0v-1.9c0-0.6-0.4-1-1-1s-1,0.4-1,1v1.9
		C-2646.5-10666.8-2646.4-10666.7-2646.2-10666.7L-2646.2-10666.7 M-2646-10668.9c0-0.3,0.3-0.5,0.5-0.5c0.3,0,0.5,0.2,0.5,0.5v1.7
		h-1V-10668.9z"/>
	<path id="Path_78239" class="st0" d="M-2632.1-10666.7h1.5c0.1,0,0.2-0.1,0.2-0.2l0,0v-1.9c0-0.6-0.4-1-1-1s-1,0.4-1,1v1.9
		C-2632.4-10666.8-2632.2-10666.7-2632.1-10666.7L-2632.1-10666.7 M-2631.9-10668.9c0-0.3,0.2-0.5,0.5-0.5s0.5,0.2,0.5,0.5l0,0v1.7
		h-1V-10668.9z"/>
	<path id="Path_78240" class="st0" d="M-2623.6-10666.7h1.5c0.1,0,0.2-0.1,0.2-0.2l0,0v-1.9c0-0.6-0.4-1-1-1s-1,0.4-1,1v1.9
		C-2623.9-10666.8-2623.8-10666.7-2623.6-10666.7L-2623.6-10666.7 M-2623.4-10668.9c0-0.3,0.3-0.5,0.5-0.5c0.3,0,0.5,0.2,0.5,0.5
		v1.7h-1V-10668.9z"/>
	<path id="Path_78241" class="st0" d="M-2629.3-10666.7h1.5c0.1,0,0.2-0.1,0.2-0.2l0,0v-1.9c0-0.6-0.4-1-1-1s-1,0.4-1,1v1.9
		C-2629.5-10666.8-2629.4-10666.7-2629.3-10666.7L-2629.3-10666.7 M-2629-10668.9c0-0.3,0.3-0.5,0.5-0.5c0.3,0,0.5,0.2,0.5,0.5v1.7
		h-1V-10668.9z"/>
	<path id="Path_78242" class="st0" d="M-2643.4-10666.7h1.5c0.1,0,0.2-0.1,0.2-0.2l0,0v-1.9c0-0.6-0.4-1-1-1s-1,0.4-1,1v1.9
		C-2643.7-10666.8-2643.5-10666.7-2643.4-10666.7L-2643.4-10666.7 M-2643.2-10668.9c0-0.3,0.2-0.5,0.5-0.5s0.5,0.2,0.5,0.5l0,0v1.7
		h-1V-10668.9z"/>
	<path id="Path_78243" class="st0" d="M-2634.9-10666.7h1.5c0.1,0,0.2-0.1,0.2-0.2l0,0v-1.9c0-0.6-0.4-1-1-1s-1,0.4-1,1v1.9
		C-2635.2-10666.8-2635.1-10666.7-2634.9-10666.7L-2634.9-10666.7 M-2634.7-10668.9c0-0.3,0.3-0.5,0.5-0.5c0.3,0,0.5,0.2,0.5,0.5
		v1.7h-1V-10668.9z"/>
	<path id="Path_78244" class="st0" d="M-2626.5-10666.7h1.5c0.1,0,0.2-0.1,0.2-0.2l0,0v-1.9c0-0.6-0.4-1-1-1s-1,0.4-1,1v1.9
		C-2626.7-10666.8-2626.6-10666.7-2626.5-10666.7L-2626.5-10666.7 M-2626.2-10668.9c0-0.3,0.3-0.5,0.5-0.5c0.3,0,0.5,0.2,0.5,0.5
		v1.7h-1V-10668.9z"/>
	<path id="Path_78245" class="st0" d="M-2654-10663.8c-0.6,0-1,0.4-1,1v1.9c0,0.1,0.1,0.2,0.2,0.2l0,0h1.5c0.1,0,0.2-0.1,0.2-0.2
		l0,0v-1.9C-2652.9-10663.4-2653.4-10663.8-2654-10663.8 M-2653.4-10661.1h-1v-1.7c0-0.3,0.2-0.5,0.5-0.5s0.5,0.2,0.5,0.5l0,0
		V-10661.1z"/>
	<path id="Path_78246" class="st0" d="M-2648.3-10663.8c-0.6,0-1,0.4-1,1v1.9c0,0.1,0.1,0.2,0.2,0.2l0,0h1.5c0.1,0,0.2-0.1,0.2-0.2
		l0,0v-1.9C-2647.3-10663.4-2647.7-10663.8-2648.3-10663.8 M-2647.8-10661.1h-1v-1.7c0-0.3,0.2-0.5,0.5-0.5s0.5,0.2,0.5,0.5
		V-10661.1z"/>
	<path id="Path_78247" class="st0" d="M-2651.1-10663.8c-0.6,0-1,0.4-1,1v1.9c0,0.1,0.1,0.2,0.2,0.2l0,0h1.5c0.1,0,0.2-0.1,0.2-0.2
		l0,0v-1.9C-2650.1-10663.4-2650.6-10663.8-2651.1-10663.8 M-2650.6-10661.1h-1v-1.7c0-0.3,0.2-0.5,0.5-0.5s0.5,0.2,0.5,0.5l0,0
		V-10661.1z"/>
	<path id="Path_78248" class="st0" d="M-2634.9-10660.6h1.5c0.1,0,0.2-0.1,0.2-0.2l0,0v-1.9c0-0.6-0.4-1-1-1s-1,0.4-1,1v1.9
		C-2635.2-10660.7-2635.1-10660.6-2634.9-10660.6L-2634.9-10660.6 M-2634.7-10662.8c0-0.3,0.3-0.5,0.5-0.5c0.3,0,0.5,0.2,0.5,0.5
		v1.7h-1V-10662.8z"/>
	<path id="Path_78249" class="st0" d="M-2642.7-10663.8c-0.6,0-1,0.4-1,1v1.9c0,0.1,0.1,0.2,0.2,0.2l0,0h1.5c0.1,0,0.2-0.1,0.2-0.2
		l0,0v-1.9C-2641.7-10663.4-2642.1-10663.8-2642.7-10663.8 M-2642.1-10661.1h-1v-1.7c0-0.3,0.2-0.5,0.5-0.5s0.5,0.2,0.5,0.5l0,0
		V-10661.1z"/>
	<path id="Path_78250" class="st0" d="M-2620.2-10664.7c0.4,0,0.6-0.3,0.6-0.7c0-0.3-0.3-0.6-0.6-0.6h-0.2v-4.5
		c0-0.1-0.1-0.2-0.2-0.2l0,0h-19.7l-2.8-9.9l0,0l0,0l0,0l0,0l0,0l0,0h-0.1h-13.3c-0.4,0-0.6,0.3-0.6,0.6s0.3,0.6,0.6,0.6h0.2v7.2
		h-0.2c-0.4,0-0.6,0.3-0.6,0.6s0.3,0.6,0.6,0.6l0,0h0.2v5.1h-0.2c-0.4,0-0.6,0.3-0.6,0.7c0,0.3,0.3,0.6,0.6,0.6h0.2v5.1h-0.2
		c-0.4,0-0.7,0.3-0.7,0.6s0.3,0.7,0.6,0.7c0,0,0,0,0.1,0h0.2v4.4c0,0.1,0.1,0.2,0.2,0.2l0,0h35.6c0.1,0,0.2-0.1,0.2-0.2l0,0v-4.4
		h0.2c0.4,0,0.7-0.3,0.7-0.6s-0.3-0.7-0.6-0.7c0,0,0,0-0.1,0h-0.2v-5.1L-2620.2-10664.7z M-2620.8-10670.3v4.2h-16.7l-1.2-4.2
		H-2620.8z M-2639.3-10670.3l1.2,4.2h-0.9l-1.2-4.2H-2639.3z M-2639.4-10666h-16.5v-5.1h15.1L-2639.4-10666z M-2643.3-10679.6
		l2.1,7.2h-14.7v-7.2H-2643.3z M-2656.6-10680.1c-0.1,0-0.2-0.1-0.2-0.2s0.1-0.2,0.2-0.2l0,0h13.1l0.1,0.3h-13.2V-10680.1z
		 M-2656.6-10671.6c-0.1,0-0.2-0.1-0.2-0.2c0-0.1,0.1-0.2,0.2-0.2l0,0h15.5l0.1,0.3h-15.6V-10671.6z M-2653.4-10654.3h-1v-2.7
		c0-0.3,0.2-0.5,0.5-0.5s0.5,0.2,0.5,0.5l0,0V-10654.3z M-2650.6-10654.3h-1v-2.7c0-0.3,0.2-0.5,0.5-0.5s0.5,0.2,0.5,0.5l0,0
		V-10654.3z M-2647.8-10654.3h-1v-2.7c0-0.3,0.2-0.5,0.5-0.5s0.5,0.2,0.5,0.5l0,0V-10654.3z M-2645-10654.3h-1v-2.7
		c0-0.3,0.2-0.5,0.5-0.5s0.5,0.2,0.5,0.5l0,0V-10654.3z M-2642.1-10654.3h-1v-2.7c0-0.3,0.2-0.5,0.5-0.5s0.5,0.2,0.5,0.5l0,0
		V-10654.3z M-2639.3-10654.3h-1v-2.7c0-0.3,0.2-0.5,0.5-0.5s0.5,0.2,0.5,0.5l0,0V-10654.3z M-2638.8-10654.3v-2.7c0-0.6-0.4-1-1-1
		s-1,0.4-1,1v2.7h-0.8v-2.7c0-0.6-0.4-1-1-1s-1,0.4-1,1v2.7h-0.8v-2.7c0-0.6-0.4-1-1-1s-1,0.4-1,1v2.7h-0.8v-2.7c0-0.6-0.4-1-1-1
		s-1,0.4-1,1v2.7h-0.8v-2.7c0-0.6-0.4-1-1-1s-1,0.4-1,1v2.7h-0.8v-2.7c0-0.6-0.4-1-1-1s-1,0.4-1,1v2.7h-1v-4.1h18.7l1.2,4.1H-2638.8
		z M-2635.5-10654.3l-1.2-4.1h0.9l1.2,4.1H-2635.5z M-2630.9-10654.3h-1v-2.7c0-0.3,0.2-0.5,0.5-0.5s0.5,0.2,0.5,0.5l0,0V-10654.3z
		 M-2628-10654.3h-1v-2.7c0-0.3,0.2-0.5,0.5-0.5s0.5,0.2,0.5,0.5l0,0V-10654.3z M-2625.2-10654.3h-1v-2.7c0-0.3,0.2-0.5,0.5-0.5
		s0.5,0.2,0.5,0.5l0,0V-10654.3z M-2622.4-10654.3h-1v-2.7c0-0.3,0.2-0.5,0.5-0.5s0.5,0.2,0.5,0.5l0,0V-10654.3z M-2620.8-10654.3
		h-1.1v-2.7c0-0.6-0.4-1-1-1s-1,0.4-1,1v2.7h-0.8v-2.7c0-0.6-0.4-1-1-1s-1,0.4-1,1v2.7h-0.8v-2.7c0-0.6-0.4-1-1-1s-1,0.4-1,1v2.7
		h-0.8v-2.7c0-0.6-0.4-1-1-1s-1,0.4-1,1v2.7h-1.7l-1.2-4.1h14.4L-2620.8-10654.3z M-2620.2-10659.2c0.1,0,0.2,0.1,0.2,0.2
		c0,0.1-0.1,0.2-0.2,0.2l0,0h-36.4c-0.1,0-0.2-0.1-0.2-0.2c0-0.1,0.1-0.2,0.2-0.2l0,0H-2620.2L-2620.2-10659.2z M-2636.2-10659.7
		h-0.9l-1.5-5.1h0.9L-2636.2-10659.7z M-2637.1-10664.7h16.3v5.1h-14.8L-2637.1-10664.7z M-2637.6-10659.7h-18.3v-5.1h16.9
		L-2637.6-10659.7z M-2620.6-10665.2h-36c-0.1,0-0.2-0.1-0.2-0.2c0-0.1,0.1-0.2,0.2-0.2h36.4c0.1,0,0.2,0.1,0.2,0.2
		c0,0.1-0.1,0.2-0.2,0.2l0,0H-2620.6z"/>
	<path id="Path_78251" class="st0" d="M-2639.8-10663.8c-0.6,0-1,0.4-1,1v1.9c0,0.1,0.1,0.2,0.2,0.2l0,0h1.5c0.1,0,0.2-0.1,0.2-0.2
		l0,0v-1.9C-2638.8-10663.4-2639.3-10663.8-2639.8-10663.8 M-2639.3-10661.1h-1v-1.7c0-0.3,0.2-0.5,0.5-0.5s0.5,0.2,0.5,0.5l0,0
		V-10661.1z"/>
	<path id="Path_78252" class="st0" d="M-2645.5-10663.8c-0.6,0-1,0.4-1,1v1.9c0,0.1,0.1,0.2,0.2,0.2l0,0h1.5c0.1,0,0.2-0.1,0.2-0.2
		l0,0v-1.9C-2644.5-10663.4-2644.9-10663.8-2645.5-10663.8 M-2645-10661.1h-1v-1.7c0-0.3,0.2-0.5,0.5-0.5s0.5,0.2,0.5,0.5l0,0
		V-10661.1z"/>
	<path id="Path_78253" class="st0" d="M-2632.1-10660.6h1.5c0.1,0,0.2-0.1,0.2-0.2l0,0v-1.9c0-0.6-0.4-1-1-1s-1,0.4-1,1v1.9
		C-2632.4-10660.7-2632.2-10660.6-2632.1-10660.6L-2632.1-10660.6 M-2631.9-10662.8c0-0.3,0.2-0.5,0.5-0.5s0.5,0.2,0.5,0.5l0,0v1.7
		h-1V-10662.8z"/>
	<path id="Path_78254" class="st0" d="M-2654.7-10674.1h1.5c0.1,0,0.2-0.1,0.2-0.2l0,0v-1.9c0-0.6-0.4-1-1-1s-1,0.4-1,1v1.9
		C-2654.9-10674.2-2654.8-10674.1-2654.7-10674.1L-2654.7-10674.1 M-2654.5-10676.3c0-0.3,0.3-0.5,0.5-0.5c0.3,0,0.5,0.2,0.5,0.5
		v1.7h-1V-10676.3z"/>
	<path id="Path_78255" class="st0" d="M-2651.9-10674.1h1.5c0.1,0,0.2-0.1,0.2-0.2l0,0v-1.9c0-0.6-0.4-1-1-1s-1,0.4-1,1v1.9
		C-2652.1-10674.2-2652-10674.1-2651.9-10674.1L-2651.9-10674.1 M-2651.6-10676.3c0-0.3,0.3-0.5,0.5-0.5c0.3,0,0.5,0.2,0.5,0.5v1.7
		h-1V-10676.3z"/>
	<path id="Path_78256" class="st0" d="M-2649.1-10674.1h1.5c0.1,0,0.2-0.1,0.2-0.2l0,0v-1.9c0-0.6-0.4-1-1-1s-1,0.4-1,1v1.9
		C-2649.3-10674.2-2649.2-10674.1-2649.1-10674.1L-2649.1-10674.1 M-2648.8-10676.3c0-0.3,0.3-0.5,0.5-0.5c0.3,0,0.5,0.2,0.5,0.5
		v1.7h-1V-10676.3z"/>
	<path id="Path_78257" class="st0" d="M-2646.2-10674.1h1.5c0.1,0,0.2-0.1,0.2-0.2l0,0v-1.9c0-0.6-0.4-1-1-1s-1,0.4-1,1v1.9
		C-2646.5-10674.2-2646.4-10674.1-2646.2-10674.1L-2646.2-10674.1 M-2646-10676.3c0-0.3,0.3-0.5,0.5-0.5c0.3,0,0.5,0.2,0.5,0.5v1.7
		h-1V-10676.3z"/>
	<path id="Path_78258" class="st0" d="M-2654.7-10666.7h1.5c0.1,0,0.2-0.1,0.2-0.2l0,0v-1.9c0-0.6-0.4-1-1-1s-1,0.4-1,1v1.9
		C-2654.9-10666.8-2654.8-10666.7-2654.7-10666.7L-2654.7-10666.7 M-2654.5-10668.9c0-0.3,0.3-0.5,0.5-0.5c0.3,0,0.5,0.2,0.5,0.5
		v1.7h-1V-10668.9z"/>
	<path id="Path_78259" class="st0" d="M-2626.5-10660.6h1.5c0.1,0,0.2-0.1,0.2-0.2l0,0v-1.9c0-0.6-0.4-1-1-1s-1,0.4-1,1v1.9
		C-2626.7-10660.7-2626.6-10660.6-2626.5-10660.6L-2626.5-10660.6 M-2626.2-10662.8c0-0.3,0.2-0.5,0.5-0.5s0.5,0.2,0.5,0.5l0,0v1.7
		h-1V-10662.8z"/>
	<path id="Path_78260" class="st0" d="M-2629.3-10660.6h1.5c0.1,0,0.2-0.1,0.2-0.2l0,0v-1.9c0-0.6-0.4-1-1-1s-1,0.4-1,1v1.9
		C-2629.5-10660.7-2629.4-10660.6-2629.3-10660.6L-2629.3-10660.6 M-2629-10662.8c0-0.3,0.3-0.5,0.5-0.5c0.3,0,0.5,0.2,0.5,0.5v1.7
		h-1V-10662.8z"/>
	<path id="Path_78261" class="st0" d="M-2623.6-10660.6h1.5c0.1,0,0.2-0.1,0.2-0.2l0,0v-1.9c0-0.6-0.4-1-1-1s-1,0.4-1,1v1.9
		C-2623.9-10660.7-2623.8-10660.6-2623.6-10660.6L-2623.6-10660.6 M-2623.4-10662.8c0-0.3,0.3-0.5,0.5-0.5c0.3,0,0.5,0.2,0.5,0.5
		v1.7h-1V-10662.8z"/>
	<path id="Path_78262" class="st0" d="M-2651.9-10666.7h1.5c0.1,0,0.2-0.1,0.2-0.2l0,0v-1.9c0-0.6-0.4-1-1-1s-1,0.4-1,1v1.9
		C-2652.1-10666.8-2652-10666.7-2651.9-10666.7L-2651.9-10666.7 M-2651.6-10668.9c0-0.3,0.3-0.5,0.5-0.5c0.3,0,0.5,0.2,0.5,0.5v1.7
		h-1V-10668.9z"/>
</g>
<path id="Path_78294" class="st0" d="M62.8,81.6c4.5-4.3,10.5-6.8,16.8-6.9c6,0.1,11.8,2.5,16,6.9"/>
<path id="Path_78295" class="st0" d="M65.7,81.2c3.9-3.4,8.9-5.4,14.1-5.5c5,0.1,9.8,2,13.5,5.5"/>
<rect id="Rectangle_44913" x="63.4" y="81.6" class="st0" width="2.1" height="1.1"/>
<rect id="Rectangle_44914" x="63.8" y="82.6" class="st0" width="1.3" height="5.8"/>
<rect id="Rectangle_44915" x="92.9" y="81.6" class="st0" width="2.1" height="1.1"/>
<rect id="Rectangle_44916" x="93.2" y="82.6" class="st0" width="1.3" height="5.8"/>
<rect id="Rectangle_44917" x="66.6" y="81.6" class="st0" width="25.6" height="6.9"/>
<line id="Line_751" class="st0" x1="66.6" y1="82.6" x2="92.2" y2="82.6"/>
<line id="Line_752" class="st0" x1="66.6" y1="84.4" x2="92.2" y2="84.4"/>
<line id="Line_753" class="st0" x1="66.6" y1="86.9" x2="92.2" y2="86.9"/>
<line id="Line_754" class="st0" x1="68.8" y1="81.6" x2="68.8" y2="82.6"/>
<line id="Line_755" class="st0" x1="70.4" y1="81.6" x2="70.4" y2="82.6"/>
<line id="Line_756" class="st0" x1="72.1" y1="81.6" x2="72.1" y2="82.6"/>
<line id="Line_757" class="st0" x1="73.7" y1="81.6" x2="73.7" y2="82.6"/>
<line id="Line_758" class="st0" x1="75.4" y1="81.6" x2="75.4" y2="82.6"/>
<line id="Line_759" class="st0" x1="77" y1="81.6" x2="77" y2="82.6"/>
<line id="Line_760" class="st0" x1="78.7" y1="81.6" x2="78.7" y2="82.6"/>
<line id="Line_761" class="st0" x1="80.3" y1="81.6" x2="80.3" y2="82.6"/>
<line id="Line_762" class="st0" x1="82" y1="81.6" x2="82" y2="82.6"/>
<line id="Line_763" class="st0" x1="83.6" y1="81.6" x2="83.6" y2="82.6"/>
<line id="Line_764" class="st0" x1="85.3" y1="81.6" x2="85.3" y2="82.6"/>
<line id="Line_765" class="st0" x1="86.9" y1="81.6" x2="86.9" y2="82.6"/>
<line id="Line_766" class="st0" x1="88.6" y1="81.6" x2="88.6" y2="82.6"/>
<line id="Line_767" class="st0" x1="90.2" y1="81.6" x2="90.2" y2="82.6"/>
<g id="Group_105286" transform="translate(2657.247 10738.928)">
	<g>
		<g>
			<defs>
				<rect id="SVGID_00000050651071302451479880000018398279556732728984_" x="-2657.2" y="-10680.9" width="14.7" height="31.1"/>
			</defs>
			<use xlink:href="#SVGID_00000050651071302451479880000018398279556732728984_"  style="overflow:visible;fill:#FFFFFF;"/>
			<clipPath id="SVGID_00000004512827197694809090000015169081321956398979_">
				<use xlink:href="#SVGID_00000050651071302451479880000018398279556732728984_"  style="overflow:visible;"/>
			</clipPath>
			<g id="Group_105285" style="clip-path:url(#SVGID_00000004512827197694809090000015169081321956398979_);">
				<rect id="Rectangle_44919" x="-2657" y="-10680.7" class="st0" width="14.3" height="30.7"/>
			</g>
		</g>
		<g>
			<rect id="SVGID_1_" x="-2657.2" y="-10680.9" class="st0" width="14.7" height="31.1"/>
		</g>
	</g>
</g>
<rect id="Rectangle_44921" x="1.7" y="60.4" class="st0" width="1.1" height="1.5"/>
<rect id="Rectangle_44922" x="4.2" y="60.4" class="st0" width="1.1" height="1.5"/>
<rect id="Rectangle_44923" x="6.8" y="60.4" class="st0" width="1.1" height="1.5"/>
<rect id="Rectangle_44924" x="9.3" y="60.4" class="st0" width="1.1" height="1.5"/>
<rect id="Rectangle_44925" x="11.9" y="60.4" class="st0" width="1.1" height="1.5"/>
<rect id="Rectangle_44926" x="1.7" y="63.7" class="st0" width="1.1" height="1.5"/>
<rect id="Rectangle_44927" x="4.2" y="63.7" class="st0" width="1.1" height="1.5"/>
<rect id="Rectangle_44928" x="6.8" y="63.7" class="st0" width="1.1" height="1.5"/>
<rect id="Rectangle_44929" x="9.3" y="63.7" class="st0" width="1.1" height="1.5"/>
<rect id="Rectangle_44930" x="11.9" y="63.7" class="st0" width="1.1" height="1.5"/>
<rect id="Rectangle_44931" x="1.7" y="67" class="st0" width="1.1" height="1.5"/>
<rect id="Rectangle_44932" x="4.2" y="67" class="st0" width="1.1" height="1.5"/>
<rect id="Rectangle_44933" x="6.8" y="67" class="st0" width="1.1" height="1.5"/>
<rect id="Rectangle_44934" x="9.3" y="67" class="st0" width="1.1" height="1.5"/>
<rect id="Rectangle_44935" x="11.9" y="67" class="st0" width="1.1" height="1.5"/>
<rect id="Rectangle_44936" x="1.7" y="70.3" class="st0" width="1.1" height="1.5"/>
<rect id="Rectangle_44937" x="4.2" y="70.3" class="st0" width="1.1" height="1.5"/>
<rect id="Rectangle_44938" x="6.8" y="70.3" class="st0" width="1.1" height="1.5"/>
<rect id="Rectangle_44939" x="9.3" y="70.3" class="st0" width="1.1" height="1.5"/>
<rect id="Rectangle_44940" x="11.9" y="70.3" class="st0" width="1.1" height="1.5"/>
<rect id="Rectangle_44941" x="1.7" y="73.7" class="st0" width="1.1" height="1.5"/>
<rect id="Rectangle_44942" x="4.2" y="73.7" class="st0" width="1.1" height="1.5"/>
<rect id="Rectangle_44943" x="6.8" y="73.7" class="st0" width="1.1" height="1.5"/>
<rect id="Rectangle_44944" x="9.3" y="73.7" class="st0" width="1.1" height="1.5"/>
<rect id="Rectangle_44945" x="11.9" y="73.7" class="st0" width="1.1" height="1.5"/>
<rect id="Rectangle_44946" x="1.7" y="77" class="st0" width="1.1" height="1.5"/>
<rect id="Rectangle_44947" x="4.2" y="77" class="st0" width="1.1" height="1.5"/>
<rect id="Rectangle_44948" x="6.8" y="77" class="st0" width="1.1" height="1.5"/>
<rect id="Rectangle_44949" x="9.3" y="77" class="st0" width="1.1" height="1.5"/>
<rect id="Rectangle_44950" x="11.9" y="77" class="st0" width="1.1" height="1.5"/>
<rect id="Rectangle_44951" x="1.7" y="80.3" class="st0" width="1.1" height="1.5"/>
<rect id="Rectangle_44952" x="4.2" y="80.3" class="st0" width="1.1" height="1.5"/>
<rect id="Rectangle_44953" x="6.8" y="80.3" class="st0" width="1.1" height="1.5"/>
<rect id="Rectangle_44954" x="9.3" y="80.3" class="st0" width="1.1" height="1.5"/>
<rect id="Rectangle_44955" x="11.9" y="80.3" class="st0" width="1.1" height="1.5"/>
<g id="Group_105287">
	<rect id="Rectangle_44956" x="6.3" y="84.6" class="st0" width="2.8" height="4.4"/>
</g>
</svg>
