<?xml version="1.0" encoding="utf-8"?>
<!-- Generator: Adobe Illustrator 26.0.1, SVG Export Plug-In . SVG Version: 6.00 Build 0)  -->
<svg version="1.1" id="Layer_1" xmlns="http://www.w3.org/2000/svg" xmlns:xlink="http://www.w3.org/1999/xlink" x="0px" y="0px"
	 viewBox="0 0 132.9 105.1" style="enable-background:new 0 0 132.9 105.1;" xml:space="preserve">
<style type="text/css">
	.st0{fill:#FFFFFF;}
</style>
<rect id="Rectangle_44544" x="90.5" y="100.4" class="st0" width="17.9" height="1.3"/>
<path id="Path_75325" class="st0" d="M96.6,81.6h-3.9v18.8h4.6"/>
<path id="Path_75326" class="st0" d="M98.3,89V65.4H94v16.2"/>
<g id="Group_105124">
	<rect id="Rectangle_44550" x="10.8" y="84.4" class="st0" width="5.6" height="19.9"/>
	<path id="Path_75335" class="st0" d="M38.4,88.8v15.5H44V84.4h-5.6V88.8"/>
	<rect id="Rectangle_44551" x="16.4" y="86" class="st0" width="22" height="18.3"/>
	<rect id="Rectangle_44552" x="19.2" y="96.8" class="st0" width="3.5" height="7.6"/>
	<path id="Path_75336" class="st0" d="M22.7,90.4c0-1-1.8-2.1-1.8-2.1s-1.8,1.1-1.8,2.1c0,0.1,0,0.1,0,0.2v3.5h3.5v-3.5
		C22.7,90.5,22.7,90.4,22.7,90.4z"/>
	<path id="Path_75337" class="st0" d="M21.3,88.6C20.8,89,20,89.7,20,90.4c0,0.1,0,0.1,0,0.2v3.5h1.3"/>
	<path id="Path_75338" class="st0" d="M27.8,88.6c-0.5,0.4-1.3,1.1-1.3,1.8c0,0.1,0,0.1,0,0.2v3.5h1.3"/>
	<path id="Path_75339" class="st0" d="M34.3,88.6C33.8,89,33,89.7,33,90.4c0,0.1,0,0.1,0,0.2v3.5h1.3"/>
	<path id="Path_75340" class="st0" d="M5.4,98.9c0-0.5-1-1.2-1-1.2s-1,0.6-1,1.2V99v1.9h1.9L5.4,98.9C5.4,99,5.4,98.9,5.4,98.9z"/>
	<path id="Path_75341" class="st0" d="M8.5,98.9c0-0.5-1-1.2-1-1.2s-1,0.6-1,1.2V99v1.9h1.9V99C8.5,99,8.5,98.9,8.5,98.9z"/>
	<line id="Line_471" class="st0" x1="18.3" y1="90" x2="18.3" y2="104.3"/>
	<line id="Line_472" class="st0" x1="23.5" y1="90" x2="23.5" y2="104.3"/>
	<rect id="Rectangle_44553" x="25.7" y="96.8" class="st0" width="3.5" height="7.6"/>
	<path id="Path_75342" class="st0" d="M29.2,90.4c0-1-1.8-2.1-1.8-2.1s-1.8,1.1-1.8,2.1c0,0.1,0,0.1,0,0.2v3.5h3.5v-3.5
		C29.2,90.5,29.2,90.4,29.2,90.4z"/>
	<line id="Line_473" class="st0" x1="24.8" y1="90" x2="24.8" y2="104.3"/>
	<line id="Line_474" class="st0" x1="30" y1="90" x2="30" y2="104.3"/>
	<rect id="Rectangle_44554" x="32.2" y="96.8" class="st0" width="3.5" height="7.6"/>
	<path id="Path_75343" class="st0" d="M35.7,90.4c0-1-1.8-2.1-1.8-2.1s-1.8,1.1-1.8,2.1c0,0.1,0,0.1,0,0.2v3.5h3.5v-3.5
		C35.7,90.5,35.7,90.4,35.7,90.4z"/>
	<line id="Line_475" class="st0" x1="31.3" y1="90" x2="31.3" y2="104.3"/>
	<line id="Line_476" class="st0" x1="36.6" y1="90" x2="36.6" y2="104.3"/>
	<rect id="Rectangle_44555" x="12" y="87.9" class="st0" width="3.2" height="16.4"/>
	<rect id="Rectangle_44556" x="39.6" y="87.9" class="st0" width="3.2" height="16.4"/>
	<line id="Line_477" class="st0" x1="10" y1="95.6" x2="16.4" y2="95.6"/>
	<line id="Line_478" class="st0" x1="38.4" y1="95.6" x2="44.6" y2="95.6"/>
	<rect id="Rectangle_44557" x="1.1" y="94.4" class="st0" width="9.7" height="10"/>
	<rect id="Rectangle_44558" x="0.3" y="93.3" class="st0" width="10.5" height="1"/>
	<path id="Path_75344" class="st0" d="M49.4,98.9c0-0.5,1-1.2,1-1.2s1,0.6,1,1.2V99v1.9h-1.9L49.4,98.9C49.4,99,49.4,98.9,49.4,98.9
		z"/>
	<path id="Path_75345" class="st0" d="M46.3,98.9c0-0.5,1-1.2,1-1.2s1,0.6,1,1.2V99v1.9h-1.9L46.3,98.9C46.3,99,46.3,98.9,46.3,98.9
		z"/>
	<rect id="Rectangle_44559" x="44" y="94.4" class="st0" width="9.7" height="10"/>
	<rect id="Rectangle_44560" x="44" y="93.3" class="st0" width="10.5" height="1"/>
	<rect id="Rectangle_44561" x="20.9" y="81.8" class="st0" width="13" height="4.2"/>
	<path id="Path_75346" class="st0" d="M21,81.8c0-3.6,3-6.4,6.5-6.4s6.3,2.9,6.4,6.4"/>
	<line id="Line_479" class="st0" x1="27.4" y1="75.4" x2="27.4" y2="73.2"/>
	<line id="Line_480" class="st0" x1="22.4" y1="77.8" x2="26.5" y2="81.9"/>
	<line id="Line_481" class="st0" x1="21.3" y1="79.7" x2="23.5" y2="81.9"/>
	<line id="Line_482" class="st0" x1="21.8" y1="78.7" x2="24.9" y2="81.9"/>
	<line id="Line_483" class="st0" x1="24" y1="76.3" x2="29.5" y2="81.9"/>
	<line id="Line_484" class="st0" x1="23.4" y1="76.8" x2="28.4" y2="81.9"/>
	<line id="Line_485" class="st0" x1="26.1" y1="75.5" x2="32.4" y2="81.9"/>
	<line id="Line_486" class="st0" x1="27.4" y1="75.4" x2="33.8" y2="81.8"/>
	<line id="Line_487" class="st0" x1="28.8" y1="75.5" x2="33.7" y2="80.4"/>
	<line id="Line_488" class="st0" x1="27.4" y1="72.7" x2="27.4" y2="72"/>
	<path id="Path_75347" class="st0" d="M16.4,84.4H10l-0.6-1.3h7V84.4z"/>
	<path id="Path_75348" class="st0" d="M38.4,84.4h6.4l0.6-1.3h-7V84.4z"/>
	<path id="Path_75349" class="st0" d="M10.7,83.2c0-1.6,1.3-2.8,2.8-2.8c1.6,0,2.8,1.3,2.8,2.8"/>
	<line id="Line_489" class="st0" x1="12.8" y1="74.7" x2="12.6" y2="80.5"/>
	<line id="Line_490" class="st0" x1="14.7" y1="80.5" x2="14.6" y2="74.7"/>
	<rect id="Rectangle_44562" x="11.5" y="73.5" class="st0" width="4.4" height="1.2"/>
	<path id="Path_75350" class="st0" d="M14.6,73.5l-0.1-7l0,0c0-0.4-0.3-0.7-0.7-0.7s-0.7,0.3-0.7,0.7l0,0l-0.1,7"/>
	<path id="Path_75351" class="st0" d="M38.4,83.2c0-1.6,1.3-2.8,2.8-2.8c1.6,0,2.8,1.3,2.8,2.8"/>
	<line id="Line_491" class="st0" x1="40.4" y1="74.7" x2="40.3" y2="80.5"/>
	<line id="Line_492" class="st0" x1="42.4" y1="80.5" x2="42.2" y2="74.7"/>
	<rect id="Rectangle_44563" x="39.1" y="73.5" class="st0" width="4.4" height="1.2"/>
	<path id="Path_75352" class="st0" d="M42.2,73.5l-0.1-7l0,0c0-0.4-0.3-0.7-0.7-0.7s-0.7,0.3-0.7,0.7l0,0l-0.1,7"/>
	<line id="Line_493" class="st0" x1="20" y1="96.8" x2="20" y2="104.3"/>
	<line id="Line_494" class="st0" x1="26.5" y1="96.8" x2="26.5" y2="104.3"/>
	<line id="Line_495" class="st0" x1="33" y1="96.8" x2="33" y2="104.3"/>
	<path id="Path_75353" class="st0" d="M11.7,83.2c0-1.6,0.8-2.8,1.9-2.8s1.9,1.3,1.9,2.8"/>
	<path id="Path_75354" class="st0" d="M13,83.2c0-1.6,0.3-2.8,0.6-2.8s0.6,1.3,0.6,2.8"/>
	<line id="Line_496" class="st0" x1="14.4" y1="87.9" x2="14.4" y2="104.3"/>
	<line id="Line_497" class="st0" x1="13" y1="87.9" x2="13" y2="104.3"/>
	<line id="Line_498" class="st0" x1="3.1" y1="101.7" x2="5.8" y2="101.7"/>
	<line id="Line_499" class="st0" x1="6.2" y1="101.7" x2="8.8" y2="101.7"/>
	<line id="Line_500" class="st0" x1="46" y1="101.7" x2="48.6" y2="101.7"/>
	<line id="Line_501" class="st0" x1="49" y1="101.7" x2="51.7" y2="101.7"/>
	<line id="Line_502" class="st0" x1="13.7" y1="74.7" x2="13.7" y2="80.3"/>
	<line id="Line_503" class="st0" x1="13.7" y1="65" x2="13.7" y2="64.2"/>
	<path id="Path_75355" class="st0" d="M39.3,83.2c0-1.6,0.8-2.8,1.9-2.8s1.9,1.3,1.9,2.8"/>
	<path id="Path_75356" class="st0" d="M40.5,83.2c0-1.6,0.3-2.8,0.6-2.8s0.6,1.3,0.6,2.8"/>
	<line id="Line_504" class="st0" x1="42" y1="87.9" x2="42" y2="104.3"/>
	<line id="Line_505" class="st0" x1="40.5" y1="87.9" x2="40.5" y2="104.3"/>
	<line id="Line_506" class="st0" x1="41.3" y1="74.7" x2="41.3" y2="80.3"/>
	<line id="Line_507" class="st0" x1="41.3" y1="65" x2="41.3" y2="64.2"/>
	<path id="Path_75357" class="st0" d="M22.2,86v-2.8h1.4"/>
	<path id="Path_75358" class="st0" d="M25.1,86v-2.8h1.4"/>
	<path id="Path_75359" class="st0" d="M28.1,86v-2.8h1.4"/>
	<path id="Path_75360" class="st0" d="M31,86v-2.8h1.4"/>
	<rect id="Rectangle_44564" x="57.4" y="64.4" class="st0" width="28.6" height="40.3"/>
	<rect id="Rectangle_44565" x="60.6" y="67.5" class="st0" width="22.1" height="34.3"/>
	<line id="Line_508" class="st0" x1="82.7" y1="98.5" x2="83.8" y2="98.5"/>
	<line id="Line_509" class="st0" x1="85" y1="95.6" x2="86" y2="95.6"/>
	<line id="Line_510" class="st0" x1="82.9" y1="96.5" x2="84.4" y2="96.5"/>
	<line id="Line_511" class="st0" x1="82.7" y1="92.3" x2="84.2" y2="92.3"/>
	<line id="Line_512" class="st0" x1="82.7" y1="91" x2="83.9" y2="91"/>
	<line id="Line_513" class="st0" x1="86" y1="89.6" x2="84.6" y2="89.6"/>
	<line id="Line_514" class="st0" x1="86" y1="88.5" x2="85.5" y2="88.5"/>
	<line id="Line_515" class="st0" x1="82.7" y1="86.2" x2="83.8" y2="86.2"/>
	<line id="Line_516" class="st0" x1="82.7" y1="85.1" x2="84.2" y2="85.1"/>
	<line id="Line_517" class="st0" x1="86" y1="82.7" x2="84.6" y2="82.7"/>
	<line id="Line_518" class="st0" x1="86" y1="81.4" x2="85" y2="81.4"/>
	<line id="Line_519" class="st0" x1="82.7" y1="79" x2="84.2" y2="79"/>
	<line id="Line_520" class="st0" x1="82.9" y1="77.8" x2="83.8" y2="77.8"/>
	<line id="Line_521" class="st0" x1="86" y1="75" x2="85.3" y2="75"/>
	<line id="Line_522" class="st0" x1="83.8" y1="72.4" x2="84.6" y2="72.4"/>
	<line id="Line_523" class="st0" x1="82.7" y1="71.2" x2="83.9" y2="71.2"/>
	<line id="Line_524" class="st0" x1="85" y1="69.3" x2="86" y2="69.3"/>
	<line id="Line_525" class="st0" x1="82.7" y1="68" x2="84.3" y2="68"/>
	<line id="Line_526" class="st0" x1="85" y1="66.8" x2="86" y2="66.8"/>
	<line id="Line_527" class="st0" x1="82.3" y1="65.9" x2="83.2" y2="65.9"/>
	<line id="Line_528" class="st0" x1="78.2" y1="66.5" x2="79.3" y2="66.5"/>
	<line id="Line_529" class="st0" x1="79.9" y1="65.2" x2="80.6" y2="65.2"/>
	<line id="Line_530" class="st0" x1="73.3" y1="66.2" x2="74.3" y2="66.2"/>
	<line id="Line_531" class="st0" x1="76" y1="65.6" x2="76.7" y2="65.6"/>
	<line id="Line_532" class="st0" x1="68.7" y1="66.8" x2="69.8" y2="66.8"/>
	<line id="Line_533" class="st0" x1="70.2" y1="65.9" x2="71.5" y2="65.9"/>
	<line id="Line_534" class="st0" x1="66.4" y1="65.2" x2="67.5" y2="65.2"/>
	<line id="Line_535" class="st0" x1="65" y1="66.2" x2="66.1" y2="66.2"/>
	<line id="Line_536" class="st0" x1="58.7" y1="65.4" x2="57.4" y2="65.4"/>
	<line id="Line_537" class="st0" x1="58" y1="66.5" x2="57.4" y2="66.5"/>
	<line id="Line_538" class="st0" x1="59.2" y1="68.4" x2="60.6" y2="68.4"/>
	<line id="Line_539" class="st0" x1="61.3" y1="65.6" x2="61.8" y2="65.6"/>
	<line id="Line_540" class="st0" x1="58.3" y1="70.2" x2="57.4" y2="70.2"/>
	<line id="Line_541" class="st0" x1="59.2" y1="71.1" x2="57.4" y2="71.1"/>
	<line id="Line_542" class="st0" x1="59.2" y1="72.8" x2="60.6" y2="72.8"/>
	<line id="Line_543" class="st0" x1="59.7" y1="74" x2="60.6" y2="74"/>
	<line id="Line_544" class="st0" x1="58.9" y1="75.4" x2="57.4" y2="75.4"/>
	<line id="Line_545" class="st0" x1="58.7" y1="77.8" x2="59.5" y2="77.8"/>
	<line id="Line_546" class="st0" x1="59.4" y1="79" x2="60.6" y2="79"/>
	<line id="Line_547" class="st0" x1="58.7" y1="81.1" x2="57.4" y2="81.1"/>
	<line id="Line_548" class="st0" x1="59.5" y1="83.2" x2="60.6" y2="83.2"/>
	<line id="Line_549" class="st0" x1="58.9" y1="84.9" x2="57.4" y2="84.9"/>
	<line id="Line_550" class="st0" x1="59.4" y1="86.2" x2="60.6" y2="86.2"/>
	<line id="Line_551" class="st0" x1="58.7" y1="89.3" x2="59.4" y2="89.3"/>
	<line id="Line_552" class="st0" x1="59" y1="90.4" x2="60.6" y2="90.4"/>
	<line id="Line_553" class="st0" x1="58.7" y1="92.3" x2="57.4" y2="92.3"/>
	<line id="Line_554" class="st0" x1="59.5" y1="94.2" x2="60.6" y2="94.2"/>
	<line id="Line_555" class="st0" x1="58.7" y1="95.7" x2="59.5" y2="95.7"/>
	<line id="Line_556" class="st0" x1="58.7" y1="97.1" x2="57.4" y2="97.1"/>
	<line id="Line_557" class="st0" x1="59.5" y1="98.6" x2="60.6" y2="98.6"/>
	<line id="Line_558" class="st0" x1="58.7" y1="100.3" x2="57.4" y2="100.3"/>
	<line id="Line_559" class="st0" x1="58.3" y1="103.3" x2="57.4" y2="103.3"/>
	<line id="Line_560" class="st0" x1="60.6" y1="103.1" x2="62.2" y2="103.1"/>
	<line id="Line_561" class="st0" x1="66.8" y1="102.7" x2="67.6" y2="102.7"/>
	<line id="Line_562" class="st0" x1="65.7" y1="103.7" x2="66.6" y2="103.7"/>
	<line id="Line_563" class="st0" x1="74" y1="102.9" x2="74.8" y2="102.9"/>
	<line id="Line_564" class="st0" x1="72.9" y1="103.7" x2="73.5" y2="103.7"/>
	<line id="Line_565" class="st0" x1="70.5" y1="102.9" x2="71.5" y2="102.9"/>
	<line id="Line_566" class="st0" x1="79.1" y1="102.7" x2="80.1" y2="102.7"/>
	<line id="Line_567" class="st0" x1="78.3" y1="103.7" x2="79.3" y2="103.7"/>
	<line id="Line_568" class="st0" x1="82.9" y1="103.4" x2="83.8" y2="103.4"/>
	<line id="Line_569" class="st0" x1="84.6" y1="102.1" x2="86" y2="102.1"/>
	<line id="Line_570" class="st0" x1="83.4" y1="100.3" x2="82.7" y2="100.3"/>
	<line id="Line_571" class="st0" x1="85" y1="86.2" x2="85.7" y2="86.2"/>
	<line id="Line_572" class="st0" x1="82.8" y1="88" x2="83.7" y2="88"/>
	<line id="Line_573" class="st0" x1="85" y1="91.6" x2="85.7" y2="91.6"/>
	<line id="Line_574" class="st0" x1="85.3" y1="92.1" x2="86" y2="92.1"/>
	<line id="Line_575" class="st0" x1="82.9" y1="94.3" x2="83.9" y2="94.3"/>
	<line id="Line_576" class="st0" x1="83.7" y1="95.2" x2="84.2" y2="95.2"/>
	<line id="Line_577" class="st0" x1="85.3" y1="96.6" x2="85.7" y2="96.6"/>
	<line id="Line_578" class="st0" x1="85.3" y1="97.6" x2="86" y2="97.6"/>
	<line id="Line_579" class="st0" x1="85" y1="98.2" x2="86" y2="98.2"/>
	<line id="Line_580" class="st0" x1="83.8" y1="97.6" x2="84.4" y2="97.6"/>
	<line id="Line_581" class="st0" x1="84.2" y1="99.8" x2="85.3" y2="99.8"/>
	<line id="Line_582" class="st0" x1="85" y1="100.4" x2="86.2" y2="100.4"/>
	<line id="Line_583" class="st0" x1="83" y1="101.4" x2="84.1" y2="101.4"/>
	<line id="Line_584" class="st0" x1="82.9" y1="102.4" x2="83.4" y2="102.4"/>
	<line id="Line_585" class="st0" x1="85" y1="103.4" x2="86" y2="103.4"/>
	<line id="Line_586" class="st0" x1="76.6" y1="103.7" x2="77.3" y2="103.7"/>
	<line id="Line_587" class="st0" x1="77.1" y1="103.1" x2="78.3" y2="103.1"/>
	<line id="Line_588" class="st0" x1="80.8" y1="103.7" x2="81.9" y2="103.7"/>
	<line id="Line_589" class="st0" x1="75.5" y1="103" x2="76" y2="103"/>
	<line id="Line_590" class="st0" x1="71" y1="103.7" x2="71.7" y2="103.7"/>
	<line id="Line_591" class="st0" x1="72.2" y1="103" x2="72.4" y2="103"/>
	<line id="Line_592" class="st0" x1="69" y1="102.8" x2="69.7" y2="102.8"/>
	<line id="Line_593" class="st0" x1="67.9" y1="103.7" x2="68.8" y2="103.7"/>
	<line id="Line_594" class="st0" x1="63" y1="104" x2="64" y2="104"/>
	<line id="Line_595" class="st0" x1="64.5" y1="103.2" x2="65" y2="103.2"/>
	<line id="Line_596" class="st0" x1="63" y1="102.6" x2="63.6" y2="102.6"/>
	<line id="Line_597" class="st0" x1="59.4" y1="103.7" x2="60.1" y2="103.7"/>
	<line id="Line_598" class="st0" x1="57.6" y1="102.6" x2="58.6" y2="102.6"/>
	<line id="Line_599" class="st0" x1="58.5" y1="101.4" x2="59.1" y2="101.4"/>
	<line id="Line_600" class="st0" x1="59.7" y1="99.5" x2="60.6" y2="99.5"/>
	<line id="Line_601" class="st0" x1="58.3" y1="98" x2="57.6" y2="98"/>
	<line id="Line_602" class="st0" x1="58.3" y1="94.9" x2="59" y2="94.9"/>
	<line id="Line_603" class="st0" x1="59.7" y1="92.4" x2="60.6" y2="92.4"/>
	<line id="Line_604" class="st0" x1="58.3" y1="89.3" x2="57.4" y2="89.3"/>
	<line id="Line_605" class="st0" x1="58.3" y1="88.4" x2="57.4" y2="88.4"/>
	<line id="Line_606" class="st0" x1="59.7" y1="87" x2="60.3" y2="87"/>
	<line id="Line_607" class="st0" x1="58.7" y1="87" x2="58.3" y2="87"/>
	<line id="Line_608" class="st0" x1="58.3" y1="84.1" x2="57.4" y2="84.1"/>
	<line id="Line_609" class="st0" x1="59.6" y1="81.8" x2="60.6" y2="81.8"/>
	<line id="Line_610" class="st0" x1="58.3" y1="79.8" x2="57.6" y2="79.8"/>
	<line id="Line_611" class="st0" x1="59.4" y1="79.8" x2="59.8" y2="79.8"/>
	<line id="Line_612" class="st0" x1="58.7" y1="76.3" x2="60.6" y2="76.3"/>
	<line id="Line_613" class="st0" x1="59.9" y1="75.7" x2="60.7" y2="75.7"/>
	<line id="Line_614" class="st0" x1="58.5" y1="72.8" x2="57.4" y2="72.8"/>
	<line id="Line_615" class="st0" x1="58.3" y1="73.4" x2="57.4" y2="73.4"/>
	<line id="Line_616" class="st0" x1="59.8" y1="71.1" x2="60.3" y2="71.1"/>
	<line id="Line_617" class="st0" x1="58.3" y1="68.4" x2="57.4" y2="68.4"/>
	<line id="Line_618" class="st0" x1="57.4" y1="67.8" x2="58.7" y2="67.8"/>
	<line id="Line_619" class="st0" x1="60" y1="66.5" x2="60.7" y2="66.5"/>
	<line id="Line_620" class="st0" x1="60" y1="65.5" x2="60.6" y2="65.5"/>
	<line id="Line_621" class="st0" x1="62.6" y1="66.2" x2="63.5" y2="66.2"/>
	<line id="Line_622" class="st0" x1="63.3" y1="65.6" x2="64" y2="65.6"/>
	<line id="Line_623" class="st0" x1="67.9" y1="65.7" x2="69" y2="65.7"/>
	<line id="Line_624" class="st0" x1="67.4" y1="66.2" x2="68.1" y2="66.2"/>
	<line id="Line_625" class="st0" x1="71.6" y1="65.3" x2="72.6" y2="65.3"/>
	<line id="Line_626" class="st0" x1="71.5" y1="66.7" x2="72.1" y2="66.7"/>
	<line id="Line_627" class="st0" x1="75.4" y1="66.5" x2="76.3" y2="66.5"/>
	<line id="Line_628" class="st0" x1="75.1" y1="65.7" x2="75.4" y2="65.7"/>
	<line id="Line_629" class="st0" x1="77.6" y1="65.5" x2="78.5" y2="65.5"/>
	<line id="Line_630" class="st0" x1="80.3" y1="66.5" x2="81.1" y2="66.5"/>
	<line id="Line_631" class="st0" x1="81.5" y1="65.3" x2="81.9" y2="65.3"/>
	<line id="Line_632" class="st0" x1="84.2" y1="65.6" x2="85" y2="65.6"/>
	<line id="Line_633" class="st0" x1="85" y1="67.9" x2="86" y2="67.9"/>
	<line id="Line_634" class="st0" x1="83.8" y1="69.3" x2="82.7" y2="69.3"/>
	<line id="Line_635" class="st0" x1="83.7" y1="70.2" x2="82.7" y2="70.2"/>
	<line id="Line_636" class="st0" x1="85" y1="71.2" x2="86" y2="71.2"/>
	<line id="Line_637" class="st0" x1="83.9" y1="73.9" x2="82.8" y2="73.9"/>
	<line id="Line_638" class="st0" x1="83.9" y1="74.8" x2="84.4" y2="74.8"/>
	<line id="Line_639" class="st0" x1="84.2" y1="76.1" x2="85.7" y2="76.1"/>
	<line id="Line_640" class="st0" x1="85" y1="76.8" x2="85.7" y2="76.8"/>
	<line id="Line_641" class="st0" x1="83.7" y1="80.1" x2="82.8" y2="80.1"/>
	<line id="Line_642" class="st0" x1="83.5" y1="81.1" x2="82.8" y2="81.1"/>
	<line id="Line_643" class="st0" x1="85" y1="79.2" x2="86" y2="79.2"/>
	<line id="Line_644" class="st0" x1="83.8" y1="82.9" x2="82.9" y2="82.9"/>
	<line id="Line_645" class="st0" x1="84.2" y1="84.1" x2="85" y2="84.1"/>
	<line id="Line_646" class="st0" x1="83.7" y1="89.4" x2="84.2" y2="89.4"/>
	<path id="Path_75361" class="st0" d="M56.9,99.8h-1.6v5h11.2v-5h-1.6"/>
	<path id="Path_75362" class="st0" d="M66.5,104.8c-9.7-27-9.7-60-9.7-60s-4.6,33.1,1,60"/>
	<path id="Path_75363" class="st0" d="M64.9,49.7c0,0,3.7,26.5,0,50.3"/>
	<line id="Line_647" class="st0" x1="65.1" y1="51.5" x2="62.7" y2="51.5"/>
	<line id="Line_648" class="st0" x1="65.4" y1="54.3" x2="60.7" y2="54.3"/>
	<line id="Line_649" class="st0" x1="65.7" y1="57" x2="62.7" y2="57"/>
	<line id="Line_650" class="st0" x1="65.9" y1="59.7" x2="61.3" y2="59.7"/>
	<line id="Line_651" class="st0" x1="66.2" y1="62.5" x2="62.7" y2="62.5"/>
	<line id="Line_652" class="st0" x1="66.3" y1="65.2" x2="61" y2="65.2"/>
	<line id="Line_653" class="st0" x1="66.4" y1="67.9" x2="62.7" y2="67.9"/>
	<line id="Line_654" class="st0" x1="66" y1="70.3" x2="65" y2="70.3"/>
	<line id="Line_655" class="st0" x1="66.5" y1="73.4" x2="62.7" y2="73.4"/>
	<line id="Line_656" class="st0" x1="66.5" y1="76.1" x2="63.9" y2="76.1"/>
	<line id="Line_657" class="st0" x1="66.5" y1="78.8" x2="62.7" y2="78.8"/>
	<line id="Line_658" class="st0" x1="66.4" y1="81.5" x2="63.7" y2="81.5"/>
	<line id="Line_659" class="st0" x1="66.4" y1="84.3" x2="62.7" y2="84.3"/>
	<line id="Line_660" class="st0" x1="66.2" y1="87" x2="63.5" y2="87"/>
	<line id="Line_661" class="st0" x1="66.1" y1="89.7" x2="63.5" y2="89.7"/>
	<line id="Line_662" class="st0" x1="65.7" y1="92.5" x2="62.7" y2="92.5"/>
	<path id="Path_75364" class="st0" d="M56.3,74.1c0.3,7.4,1,19.9,4.7,30.6"/>
	<line id="Line_663" class="st0" x1="55.2" y1="49.7" x2="65.7" y2="49.7"/>
	<path id="Path_75365" class="st0" d="M64.9,49.7v-5h-8.1v5"/>
	<path id="Path_75366" class="st0" d="M57,65.7c0,7.3,2.2,29.5,6.5,39"/>
	<path id="Path_75367" class="st0" d="M60.7,89.7c0.9,5.1,2.3,10.1,4.4,14.9"/>
	<path id="Path_75368" class="st0" d="M57,92.9c0.5,3.9,1.3,7.8,2.4,11.7"/>
	<path id="Path_75369" class="st0" d="M59.8,96.2c0.6,2.9,1.4,5.8,2.5,8.6"/>
	<line id="Line_664" class="st0" x1="64.9" y1="48.7" x2="59.3" y2="48.7"/>
	<line id="Line_665" class="st0" x1="64.9" y1="47.7" x2="62.1" y2="47.7"/>
	<line id="Line_666" class="st0" x1="64.9" y1="46.9" x2="63.3" y2="46.9"/>
	<line id="Line_667" class="st0" x1="64.8" y1="45.6" x2="56.6" y2="45.6"/>
	<line id="Line_668" class="st0" x1="65.2" y1="52.2" x2="60.4" y2="52.2"/>
	<line id="Line_669" class="st0" x1="65.4" y1="55" x2="60.3" y2="55"/>
	<line id="Line_670" class="st0" x1="65.6" y1="57.7" x2="64.1" y2="57.7"/>
	<line id="Line_671" class="st0" x1="65.9" y1="60.7" x2="60.4" y2="60.7"/>
	<line id="Line_672" class="st0" x1="66.2" y1="63.4" x2="63.3" y2="63.4"/>
	<line id="Line_673" class="st0" x1="66.3" y1="65.9" x2="62.8" y2="65.9"/>
	<line id="Line_674" class="st0" x1="66.3" y1="68.8" x2="61.7" y2="68.8"/>
	<line id="Line_675" class="st0" x1="66.5" y1="71.4" x2="64.9" y2="71.4"/>
	<line id="Line_676" class="st0" x1="66.4" y1="74.1" x2="62.1" y2="74.1"/>
	<line id="Line_677" class="st0" x1="66.5" y1="77.2" x2="63.5" y2="77.2"/>
	<line id="Line_678" class="st0" x1="66.5" y1="79.8" x2="63.5" y2="79.8"/>
	<line id="Line_679" class="st0" x1="66.4" y1="82.5" x2="64.9" y2="82.5"/>
	<line id="Line_680" class="st0" x1="66.3" y1="85.1" x2="65.1" y2="85.1"/>
	<line id="Line_681" class="st0" x1="66.1" y1="88" x2="65" y2="88"/>
	<line id="Line_682" class="st0" x1="65.7" y1="90.6" x2="65" y2="90.6"/>
	<line id="Line_683" class="st0" x1="65.7" y1="93.6" x2="64.6" y2="93.6"/>
	<rect id="Rectangle_44566" x="112" y="102.5" class="st0" width="20.7" height="2.2"/>
	<line id="Line_684" class="st0" x1="114.4" y1="102.5" x2="114.4" y2="66"/>
	<path id="Path_75370" class="st0" d="M130.6,102.5c0.7-9.4-1.4-27-16.1-31.8"/>
	<path id="Path_75371" class="st0" d="M129.1,102.5c0.7-8.9-0.9-25.2-14.6-30.4"/>
	<path id="Path_75372" class="st0" d="M118.2,74c5.4,6.6,6,19.1,6,28.5"/>
	<line id="Line_685" class="st0" x1="114.4" y1="101" x2="119.8" y2="101"/>
	<line id="Line_686" class="st0" x1="114.4" y1="99.4" x2="119.8" y2="99.4"/>
	<line id="Line_687" class="st0" x1="114.4" y1="97.7" x2="126.4" y2="97.7"/>
	<line id="Line_688" class="st0" x1="114.4" y1="96.1" x2="119.8" y2="96.1"/>
	<line id="Line_689" class="st0" x1="114.4" y1="94.5" x2="119.8" y2="94.5"/>
	<line id="Line_690" class="st0" x1="114.4" y1="92.8" x2="125.4" y2="92.8"/>
	<line id="Line_691" class="st0" x1="114.4" y1="91.2" x2="119.8" y2="91.2"/>
	<line id="Line_692" class="st0" x1="114.4" y1="89.6" x2="119.8" y2="89.6"/>
	<line id="Line_693" class="st0" x1="114.4" y1="87.9" x2="124.6" y2="87.9"/>
	<line id="Line_694" class="st0" x1="114.4" y1="86.3" x2="119.8" y2="86.3"/>
	<line id="Line_695" class="st0" x1="114.4" y1="84.6" x2="119.8" y2="84.6"/>
	<line id="Line_696" class="st0" x1="114.4" y1="83" x2="123.7" y2="83"/>
	<line id="Line_697" class="st0" x1="114.4" y1="81.4" x2="119.8" y2="81.4"/>
	<line id="Line_698" class="st0" x1="114.4" y1="79.7" x2="119.4" y2="79.7"/>
	<line id="Line_699" class="st0" x1="114.4" y1="78.1" x2="118.4" y2="78.1"/>
	<line id="Line_700" class="st0" x1="114.4" y1="76.5" x2="116.9" y2="76.5"/>
	<line id="Line_701" class="st0" x1="114.4" y1="74.8" x2="115.9" y2="74.8"/>
	<line id="Line_702" class="st0" x1="120.4" y1="86.3" x2="121.2" y2="86.3"/>
	<line id="Line_703" class="st0" x1="120.8" y1="91.2" x2="122.6" y2="91.2"/>
	<line id="Line_704" class="st0" x1="120.8" y1="96.1" x2="122.8" y2="96.1"/>
	<line id="Line_705" class="st0" x1="120.4" y1="101" x2="121.4" y2="101"/>
	<line id="Line_706" class="st0" x1="119.1" y1="78.1" x2="119.8" y2="78.1"/>
	<path id="Path_75373" class="st0" d="M118.6,74.5c3.2,2.4,10.6,11.3,9,28"/>
	<line id="Line_707" class="st0" x1="114.4" y1="65.6" x2="114.4" y2="63.5"/>
	<line id="Line_708" class="st0" x1="112" y1="103.5" x2="132.6" y2="103.5"/>
</g>
<path id="Path_75327" class="st0" d="M99.3,55.1v-5.7h-4.5v16.2"/>
<path id="Path_75328" class="st0" d="M101.8,100.4h4.6v-9.1h-4.6v4"/>
<path id="Path_75329" class="st0" d="M102.4,75.4h3.3v15.9"/>
<path id="Path_75330" class="st0" d="M100.5,77.2V59.6h4.2v15.9"/>
<path id="Path_75331" class="st0" d="M99.3,43.5v-6.1H96v11.9"/>
<path id="Path_75332" class="st0" d="M103.1,59.6V40.7h-3.8"/>
<path id="Path_75333" class="st0" d="M97.6,37.4V23.8h4.2v16.9"/>
<line id="Line_421" class="st0" x1="100.5" y1="2.4" x2="100.5" y2="26.1"/>
<path id="Path_75334" class="st0" d="M98.7,23.8V13.3h1.8"/>
<rect id="Rectangle_44545" x="92.7" y="82.8" class="st0" width="13" height="1.3"/>
<rect id="Rectangle_44546" x="94" y="66.7" class="st0" width="10.7" height="1.3"/>
<rect id="Rectangle_44547" x="94.8" y="50.6" class="st0" width="4.5" height="1.3"/>
<rect id="Rectangle_44548" x="97.5" y="26.1" class="st0" width="4.2" height="1.3"/>
<line id="Line_422" class="st0" x1="103.1" y1="78.1" x2="103.1" y2="82.9"/>
<line id="Line_423" class="st0" x1="94.6" y1="86.2" x2="94.6" y2="100.4"/>
<line id="Line_424" class="st0" x1="96.5" y1="86.2" x2="96.5" y2="100.4"/>
<line id="Line_425" class="st0" x1="106.5" y1="93.1" x2="104.2" y2="93.1"/>
<line id="Line_426" class="st0" x1="106.5" y1="94.9" x2="104.2" y2="94.9"/>
<line id="Line_427" class="st0" x1="106.5" y1="96.2" x2="104.2" y2="96.2"/>
<line id="Line_428" class="st0" x1="106.5" y1="98" x2="104.2" y2="98"/>
<line id="Line_429" class="st0" x1="94" y1="69.5" x2="96.5" y2="69.5"/>
<line id="Line_430" class="st0" x1="94" y1="71.4" x2="96.5" y2="71.4"/>
<line id="Line_431" class="st0" x1="94" y1="73.2" x2="96.5" y2="73.2"/>
<line id="Line_432" class="st0" x1="102.4" y1="61.2" x2="102.4" y2="65"/>
<line id="Line_433" class="st0" x1="94.8" y1="53.5" x2="97.2" y2="53.5"/>
<line id="Line_434" class="st0" x1="94.8" y1="55" x2="97.2" y2="55"/>
<line id="Line_435" class="st0" x1="94.8" y1="56.6" x2="97.2" y2="56.6"/>
<line id="Line_436" class="st0" x1="94.8" y1="58" x2="97.2" y2="58"/>
<line id="Line_437" class="st0" x1="94.8" y1="59.6" x2="97.2" y2="59.6"/>
<line id="Line_438" class="st0" x1="94.8" y1="60.9" x2="97.2" y2="60.9"/>
<line id="Line_439" class="st0" x1="94.8" y1="62.5" x2="97.2" y2="62.5"/>
<line id="Line_440" class="st0" x1="97.5" y1="39.3" x2="97.5" y2="47.2"/>
<line id="Line_441" class="st0" x1="103.1" y1="43.9" x2="101.7" y2="43.9"/>
<line id="Line_442" class="st0" x1="103.1" y1="45.7" x2="101.7" y2="45.7"/>
<line id="Line_443" class="st0" x1="103.1" y1="47.4" x2="101.7" y2="47.4"/>
<line id="Line_444" class="st0" x1="103.1" y1="49.1" x2="101.7" y2="49.1"/>
<line id="Line_445" class="st0" x1="105.7" y1="76.6" x2="104.3" y2="76.6"/>
<line id="Line_446" class="st0" x1="105.7" y1="78.3" x2="104.3" y2="78.3"/>
<line id="Line_447" class="st0" x1="105.7" y1="80.1" x2="104.3" y2="80.1"/>
<line id="Line_448" class="st0" x1="105.7" y1="81.8" x2="104.3" y2="81.8"/>
<line id="Line_449" class="st0" x1="103.1" y1="50.9" x2="101.7" y2="50.9"/>
<line id="Line_450" class="st0" x1="103.1" y1="52.6" x2="101.7" y2="52.6"/>
<line id="Line_451" class="st0" x1="103.1" y1="54.3" x2="101.7" y2="54.3"/>
<line id="Line_452" class="st0" x1="103.1" y1="56.1" x2="101.7" y2="56.1"/>
<line id="Line_453" class="st0" x1="98.8" y1="28.9" x2="100.5" y2="28.9"/>
<line id="Line_454" class="st0" x1="98.8" y1="30.5" x2="100.5" y2="30.5"/>
<line id="Line_455" class="st0" x1="98.8" y1="32" x2="100.5" y2="32"/>
<line id="Line_456" class="st0" x1="103.1" y1="84.1" x2="103.1" y2="89"/>
<line id="Line_457" class="st0" x1="99.3" y1="55.8" x2="99.3" y2="61.7"/>
<line id="Line_458" class="st0" x1="99.3" y1="43.9" x2="99.3" y2="45.2"/>
<line id="Line_459" class="st0" x1="97.1" y1="39.3" x2="97.1" y2="47.2"/>
<line id="Line_460" class="st0" x1="98.8" y1="33.4" x2="100.5" y2="33.4"/>
<line id="Line_461" class="st0" x1="99.8" y1="13.2" x2="99.8" y2="23.8"/>
<line id="Line_463" class="st0" x1="103.1" y1="61.2" x2="103.1" y2="65"/>
<line id="Line_464" class="st0" x1="100.5" y1="78.1" x2="100.5" y2="80.3"/>
<line id="Line_465" class="st0" x1="95.5" y1="91" x2="95.5" y2="100.3"/>
<line id="Line_466" class="st0" x1="93.6" y1="91" x2="93.6" y2="100.3"/>
<line id="Line_467" class="st0" x1="98.3" y1="91" x2="98.3" y2="100.3"/>
<line id="Line_468" class="st0" x1="99.5" y1="96.2" x2="99.5" y2="100.3"/>
<line id="Line_469" class="st0" x1="100.8" y1="98" x2="100.8" y2="100.3"/>
<line id="Line_470" class="st0" x1="89.2" y1="102.7" x2="109.7" y2="102.7"/>
</svg>
