<?xml version="1.0" encoding="utf-8"?>
<!-- Generator: Adobe Illustrator 26.0.1, SVG Export Plug-In . SVG Version: 6.00 Build 0)  -->
<svg version="1.1" id="Layer_1" xmlns="http://www.w3.org/2000/svg" xmlns:xlink="http://www.w3.org/1999/xlink" x="0px" y="0px"
	 viewBox="0 0 125 47" style="enable-background:new 0 0 125 47;" xml:space="preserve">
<style type="text/css">
	.st0{fill-rule:evenodd;clip-rule:evenodd;fill:#FFFFFF;}
</style>
<path class="st0" d="M53,0h-0.2v1.2H53V0z M49.3,13.1h-0.2v0.4h0.2V13.1z M52.9,17c-1.2,0-2.1,0.9-2.1,2.1s0.9,2.1,2.1,2.1
	c1.2,0,2.1-0.9,2.1-2.1C55,18,54.1,17,52.9,17z M52.9,21c-1.1,0-1.9-0.9-1.9-1.9s0.9-1.9,1.9-1.9c1.1,0,1.9,0.9,1.9,1.9
	S54,21,52.9,21z M66.7,26.6H66c-0.1,0-0.2-0.1-0.2-0.2V25c0-0.3,0.2-0.5,0.5-0.5s0.5,0.2,0.5,0.5v1.4C66.9,26.6,66.8,26.6,66.7,26.6
	z M66.4,24.8c-0.1,0-0.2,0.1-0.2,0.2v1.3h0.3V25C66.5,24.9,66.4,24.8,66.4,24.8z M85.2,26.6h-0.7l0,0c-0.1,0-0.2-0.1-0.2-0.2V25
	c0-0.3,0.2-0.5,0.5-0.5s0.5,0.2,0.5,0.5v1.4C85.3,26.6,85.3,26.6,85.2,26.6z M84.8,24.8c-0.1,0-0.2,0.1-0.2,0.2l0,0v1.3H85V25
	C85,24.9,84.9,24.8,84.8,24.8z M86.3,26.6h-0.7l0,0c-0.1,0-0.2-0.1-0.2-0.2V25c0-0.3,0.2-0.5,0.5-0.5s0.5,0.2,0.5,0.5v1.4
	C86.5,26.6,86.4,26.6,86.3,26.6z M86,24.8c-0.1,0-0.2,0.1-0.2,0.2l0,0v1.3h0.3V25C86.1,24.9,86.1,24.8,86,24.8z M86.7,26.6h0.7
	c0.1,0,0.2-0.1,0.2-0.2V25c0-0.3-0.2-0.5-0.5-0.5s-0.5,0.2-0.5,0.5v1.4C86.6,26.6,86.7,26.6,86.7,26.6L86.7,26.6z M86.9,25
	c0-0.1,0.1-0.2,0.2-0.2s0.2,0.1,0.2,0.2v1.3H87L86.9,25L86.9,25z M84.3,29.7c0-0.3,0.2-0.5,0.5-0.5s0.5,0.2,0.5,0.5v1.4
	c0,0.1-0.1,0.2-0.2,0.2h-0.7c-0.1,0-0.2-0.1-0.2-0.2L84.3,29.7L84.3,29.7z M84.7,31H85l0,0v-1.3c0-0.1-0.1-0.2-0.2-0.2
	s-0.2,0.1-0.2,0.2L84.7,31L84.7,31z M86,29.2c-0.3,0-0.5,0.2-0.5,0.5v1.4c0,0.1,0.1,0.2,0.2,0.2h0.7c0.1,0,0.2-0.1,0.2-0.2v-1.4
	C86.5,29.4,86.2,29.2,86,29.2z M85.8,31v-1.3c0-0.1,0.1-0.2,0.2-0.2s0.2,0.1,0.2,0.2V31l0,0H85.8z M86.6,29.7c0-0.3,0.2-0.5,0.5-0.5
	s0.5,0.2,0.5,0.5v1.4c0,0.1-0.1,0.2-0.2,0.2h-0.7c-0.1,0-0.2-0.1-0.2-0.2L86.6,29.7L86.6,29.7z M86.9,31h0.3l0,0v-1.3
	c0-0.1-0.1-0.2-0.2-0.2s-0.2,0.1-0.2,0.2L86.9,31L86.9,31z M84.8,33.9c-0.3,0-0.5,0.2-0.5,0.5v1.4c0,0.1,0.1,0.2,0.2,0.2h0.7
	c0.1,0,0.2-0.1,0.2-0.2v-1.4C85.3,34.2,85.1,33.9,84.8,33.9z M85,35.7h-0.3v-1.3c0-0.1,0.1-0.2,0.2-0.2s0.2,0.1,0.2,0.2L85,35.7
	L85,35.7z M85.5,34.4c0-0.3,0.2-0.5,0.5-0.5s0.5,0.2,0.5,0.5v1.4c0,0.1-0.1,0.2-0.2,0.2h-0.7c-0.1,0-0.2-0.1-0.2-0.2L85.5,34.4
	L85.5,34.4z M85.8,34.4v1.3h0.3l0,0v-1.3c0-0.1-0.1-0.2-0.2-0.2C85.9,34.3,85.8,34.3,85.8,34.4z M87.1,33.9c-0.3,0-0.5,0.2-0.5,0.5
	v1.4c0,0.1,0.1,0.2,0.2,0.2h0.7c0.1,0,0.2-0.1,0.2-0.2v-1.4C87.6,34.2,87.4,33.9,87.1,33.9z M87.2,35.7h-0.3v-1.3
	c0-0.1,0.1-0.2,0.2-0.2s0.2,0.1,0.2,0.2L87.2,35.7L87.2,35.7z M67.1,26.6h0.7c0.1,0,0.2-0.1,0.2-0.2V25c0-0.3-0.2-0.5-0.5-0.5
	S67,24.7,67,25v1.4C67,26.6,67,26.6,67.1,26.6L67.1,26.6z M67.3,25c0-0.1,0.1-0.2,0.2-0.2s0.2,0.1,0.2,0.2v1.3h-0.3L67.3,25L67.3,25
	z M68.9,26.6h-0.7l0,0c-0.1,0-0.2-0.1-0.2-0.2V25c0-0.3,0.2-0.5,0.5-0.5S69,24.7,69,25v1.4C69.1,26.6,69,26.6,68.9,26.6z M68.6,24.8
	c-0.1,0-0.2,0.1-0.2,0.2l0,0v1.3h0.3V25C68.8,24.9,68.7,24.8,68.6,24.8z M66.4,29.2c-0.3,0-0.5,0.2-0.5,0.5v1.4
	c0,0.1,0.1,0.2,0.2,0.2h0.7c0.1,0,0.2-0.1,0.2-0.2v-1.4C66.9,29.4,66.6,29.2,66.4,29.2z M66.5,31h-0.3v-1.3c0-0.1,0.1-0.2,0.2-0.2
	s0.2,0.1,0.2,0.2L66.5,31L66.5,31z M67,29.7c0-0.3,0.2-0.5,0.5-0.5s0.5,0.2,0.5,0.5v1.4c0,0.1-0.1,0.2-0.2,0.2h-0.7
	c-0.1,0-0.2-0.1-0.2-0.2L67,29.7L67,29.7z M67.3,31h0.3l0,0v-1.3c0-0.1-0.1-0.2-0.2-0.2s-0.2,0.1-0.2,0.2L67.3,31L67.3,31z
	 M68.6,29.2c-0.3,0-0.5,0.2-0.5,0.5v1.4c0,0.1,0.1,0.2,0.2,0.2H69c0.1,0,0.2-0.1,0.2-0.2v-1.4C69.1,29.4,68.9,29.2,68.6,29.2z
	 M68.8,31h-0.3v-1.3c0-0.1,0.1-0.2,0.2-0.2s0.2,0.1,0.2,0.2L68.8,31L68.8,31z M65.9,34.4c0-0.3,0.2-0.5,0.5-0.5s0.5,0.2,0.5,0.5v1.4
	c0,0.1-0.1,0.2-0.2,0.2H66c-0.1,0-0.2-0.1-0.2-0.2L65.9,34.4L65.9,34.4z M66.2,35.7h0.3v-1.3c0-0.1-0.1-0.2-0.2-0.2
	s-0.2,0.1-0.2,0.2L66.2,35.7L66.2,35.7z M67.5,33.9c-0.3,0-0.5,0.2-0.5,0.5v1.4c0,0.2,0,0.2,0.1,0.2h0.7c0.1,0,0.2-0.1,0.2-0.2v-1.4
	C68,34.2,67.7,33.9,67.5,33.9z M67.6,35.7h-0.3v-1.3c0-0.1,0.1-0.2,0.2-0.2s0.2,0.1,0.2,0.2L67.6,35.7L67.6,35.7z M68.1,34.4
	c0-0.3,0.2-0.5,0.5-0.5s0.5,0.2,0.5,0.5v1.4c0,0.1-0.1,0.2-0.2,0.2h-0.7c-0.1,0-0.2-0.1-0.2-0.2L68.1,34.4L68.1,34.4z M68.4,35.7
	h0.3l0,0v-1.3c0-0.1-0.1-0.2-0.2-0.2s-0.2,0.1-0.2,0.2L68.4,35.7L68.4,35.7z M96.2,25.4H96V26h0.2V25.4z M101,25.4h0.2V26H101V25.4z
	 M99.6,34.1c0.1,0,0.2-0.1,0.2-0.2v-0.7c0-0.7-0.6-1.2-1.2-1.2s-1.2,0.6-1.2,1.2v0.7c0,0.1,0.1,0.2,0.2,0.2H99.6z M99.5,33.3v0.5
	h-0.7v-1.4C99.2,32.5,99.5,32.8,99.5,33.3z M97.7,33.3c0-0.4,0.3-0.8,0.7-0.9v1.4h-0.7V33.3z M107.6,37.9h-1.2
	c-0.1,0-0.2-0.1-0.2-0.2v-2c0-0.1,0.1-0.2,0.2-0.2h1.2c0.1,0,0.2,0.1,0.2,0.2v2C107.8,37.9,107.7,37.9,107.6,37.9z M107.2,37.6h0.3
	V36h-0.3V37.6z M106.9,36h-0.3v1.6h0.3V36z M110.2,37.9h1.2c0.1,0,0.2-0.1,0.2-0.2v-2c0-0.1-0.1-0.2-0.2-0.2h-1.2
	c-0.1,0-0.2,0.1-0.2,0.2v2C110.1,37.9,110.2,37.9,110.2,37.9z M111.3,37.6H111V36h0.3V37.6z M110.4,36h0.3v1.6h-0.3V36z M111.5,41.8
	h-1.2c-0.1,0-0.2-0.1-0.2-0.2v-2c0-0.1,0.1-0.2,0.2-0.2h1.2c0.1,0,0.2,0.1,0.2,0.2v2C111.6,41.7,111.6,41.8,111.5,41.8z M111,41.5
	h0.3v-1.6H111V41.5z M110.7,39.9h-0.3v1.6h0.3V39.9z M97.9,29.2c0-0.1-0.1-0.1-0.2,0l-0.4,1v0.1c0,0,0,0,0.1,0h0.9h0.1v-0.1
	L97.9,29.2L97.9,29.2z M97.6,30.2l0.3-0.7l0.3,0.7H97.6L97.6,30.2z M99.3,29.2l0.4,1v0.1c0,0,0,0-0.1,0h-0.9h-0.1v-0.1l0.4-1
	C99.2,29.2,99.2,29.2,99.3,29.2L99.3,29.2z M99.2,29.5l-0.3,0.7h0.6L99.2,29.5z M113.1,25.4h-0.2V26h0.2V25.4z M117.9,25.4h0.2V26
	h-0.2V25.4z M116.6,34.1c0.1,0,0.2-0.1,0.2-0.2v-0.7c0-0.7-0.6-1.2-1.2-1.2s-1.2,0.6-1.2,1.2v0.7c0,0.1,0.1,0.2,0.2,0.2H116.6z
	 M116.4,33.3v0.5h-0.7v-1.4C116.1,32.5,116.4,32.8,116.4,33.3z M114.6,33.3c0-0.4,0.3-0.8,0.7-0.9v1.4h-0.7V33.3z M114.4,35.7h2.1
	c0.1,0,0.2,0.1,0.2,0.2v2c0,0.1-0.1,0.2-0.2,0.2h-2.1c-0.1,0-0.2-0.1-0.2-0.2v-2C114.3,35.7,114.3,35.7,114.4,35.7z M115.3,36h-0.7
	v1.6h0.7V36z M115.7,37.6h0.7V36h-0.7V37.6z M116.6,39.5h-2.1c-0.1,0-0.2,0.1-0.2,0.2v2c0,0.1,0.1,0.2,0.2,0.2h2.1
	c0.1,0,0.2-0.1,0.2-0.2v-2C116.7,39.6,116.6,39.5,116.6,39.5z M114.6,39.9h0.7v1.6h-0.7V39.9z M116.4,41.5h-0.7v-1.6h0.7V41.5z
	 M114.8,29.2L114.8,29.2L114.8,29.2l0.5,1.1v0.1c0,0,0,0-0.1,0h-0.9h-0.1v-0.1L114.8,29.2C114.7,29.2,114.8,29.2,114.8,29.2z
	 M114.8,29.5l-0.3,0.7l0,0h0.6L114.8,29.5z M116.7,30.3l-0.4-1c0-0.1-0.1-0.1-0.2,0l-0.4,1v0.1c0,0,0,0,0.1,0h0.9
	C116.6,30.4,116.7,30.4,116.7,30.3L116.7,30.3z M115.8,30.2l0.3-0.7l0.3,0.7H115.8z M103.8,34.3h-1.2h-0.1v-0.1l0.6-1.1
	c0,0,0,0,0.1,0h0.1L103.8,34.3C103.9,34.2,103.9,34.2,103.8,34.3C103.9,34.3,103.8,34.3,103.8,34.3z M103.7,34.1l-0.5-0.9l-0.5,0.9
	H103.7z M106.4,34.3h1.2h0.1v-0.1l-0.6-1.1c0-0.1-0.1-0.1-0.1,0L106.4,34.3C106.3,34.2,106.3,34.2,106.4,34.3L106.4,34.3z M107,33.2
	l0.5,0.9h-1L107,33.2z M111.5,34.3h-1.2h-0.1v-0.1l0.6-1.1c0,0,0,0,0.1,0s0.1,0,0.1,0L111.5,34.3C111.6,34.2,111.6,34.2,111.5,34.3
	L111.5,34.3z M111.3,34.1l-0.5-0.9l-0.5,0.9H111.3z M52.8,17.5h0.3v1.4h0.8v0.3h-1c-0.1,0-0.2-0.1-0.2-0.2v-1.5H52.8z M56.5,13.1
	h0.2v0.4h-0.2V13.1z M50.8,23h-0.3v1.6h0.3V23z M51.1,23h0.2v1.6h-0.2V23z M51.9,23h-0.3v1.6h0.3V23z M52.3,23h0.2v1.6h-0.2V23z
	 M53.1,23h-0.3v1.6h0.3V23z M53.4,23h0.2v1.6h-0.2V23z M54.2,23h-0.3v1.6h0.3V23z M54.6,23h0.2v1.6h-0.2V23z M55.4,23h-0.3v1.6h0.3
	V23z M50.9,25.6h0.6c0.1,0,0.2,0.1,0.2,0.2v2.7c0,0.1-0.1,0.2-0.2,0.2h-0.6c-0.1,0-0.2-0.1-0.2-0.2v-2.7
	C50.7,25.6,50.8,25.6,50.9,25.6z M51.1,28.3h0.2v-2.4h-0.2V28.3z M52.6,25.6H52c-0.1,0-0.2,0.1-0.2,0.2v2.7c0,0.1,0.1,0.2,0.2,0.2
	h0.6c0.1,0,0.2-0.1,0.2-0.2v-2.7C52.8,25.6,52.7,25.6,52.6,25.6z M52.5,28.3h-0.2v-2.4h0.2V28.3z M53.2,25.6h0.6
	c0.1,0,0.2,0.1,0.2,0.2v2.7c0,0.1-0.1,0.2-0.2,0.2h-0.6c-0.1,0-0.2-0.1-0.2-0.2v-2.7C53,25.6,53.1,25.6,53.2,25.6z M53.4,28.3h0.2
	v-2.4h-0.2V28.3z M54.9,25.6h-0.6c-0.1,0-0.2,0.1-0.2,0.2v2.7c0,0.1,0.1,0.2,0.2,0.2h0.6c0.1,0,0.2-0.1,0.2-0.2v-2.7
	C55.1,25.6,55,25.6,54.9,25.6z M54.8,28.3h-0.2v-2.4h0.2V28.3z M50.9,29.9h0.6c0.1,0,0.2,0.1,0.2,0.2v2.7c0,0.1-0.1,0.2-0.2,0.2
	h-0.6c-0.1,0-0.2-0.1-0.2-0.2V30C50.7,29.9,50.8,29.9,50.9,29.9z M51.1,32.6h0.2v-2.4h-0.2V32.6z M52.6,29.9H52
	c-0.1,0-0.2,0.1-0.2,0.2v2.7c0,0.1,0.1,0.2,0.2,0.2h0.6c0.1,0,0.2-0.1,0.2-0.2V30C52.8,29.9,52.7,29.9,52.6,29.9z M52.5,32.6h-0.2
	v-2.4h0.2V32.6z M53.2,29.9h0.6c0.1,0,0.2,0.1,0.2,0.2v2.7c0,0.1-0.1,0.2-0.2,0.2h-0.6c-0.1,0-0.2-0.1-0.2-0.2V30
	C53,29.9,53.1,29.9,53.2,29.9z M53.4,32.6h0.2v-2.4h-0.2V32.6z M54.9,29.9h-0.6c-0.1,0-0.2,0.1-0.2,0.2v2.7c0,0.1,0.1,0.2,0.2,0.2
	h0.6c0.1,0,0.2-0.1,0.2-0.2V30C55.1,29.9,55,29.9,54.9,29.9z M54.8,32.6h-0.2v-2.4h0.2V32.6z M51.5,37.2h-0.6
	c-0.1,0-0.2-0.1-0.2-0.2v-2.7c0-0.1,0.1-0.2,0.2-0.2h0.6c0.1,0,0.2,0.1,0.2,0.2V37C51.6,37.1,51.6,37.2,51.5,37.2z M51.3,34.5h-0.2
	v2.4h0.2V34.5z M125,44.8H82.4l0,0h-1v1H125v0.3H81.2c-0.1,0-0.2-0.1-0.2-0.2v-1.3c0-0.1,0.1-0.2,0.2-0.2h1v-3.8v-0.1
	c-0.5-0.5-2.1-1.6-5.3-2.8l0.1-0.3l5.7,2.2v-2.8h-0.4v-0.3h0.4v-4.3h-0.4V32h0.4v-4.3h-0.4v-0.3h0.4v-1.9H70.6v1.9h0.3v0.3h-0.3V32
	h0.3v0.3h-0.3v4.3h0.3v0.3h-0.3v2.7l5.7-2.2l0.1,0.3c-3.3,1.3-4.9,2.5-5.3,2.9l0,0v3.8h1c0.1,0,0.2,0.1,0.2,0.2v1.3
	c0,0.1-0.1,0.2-0.2,0.2H0v-0.3h72v-1H47c0,0,0,0-0.1,0h-9.8c0,0,0,0-0.1,0H6.3H5.9H0v-0.3h5.9v-1c-0.2,0-0.4-0.1-0.6-0.3
	C5.2,43,5,42.7,5,42.4s0.1-1.3,0.3-2.1c0.3-1.7,0.6-1.9,0.8-1.9c0.2,0,0.5,0.2,0.8,1.9c0.2,0.9,0.3,1.9,0.3,2.1
	c0,0.3-0.1,0.5-0.3,0.7c-0.2,0.2-0.4,0.3-0.6,0.3v1h2.5v-1c-0.2,0-0.4-0.1-0.6-0.3C8,43,7.9,42.7,7.9,42.4c0-0.5,0.4-1.7,1.1-1.7
	c0.6,0,1,1.2,1,1.7s-0.4,1-0.9,1v1h6.3l0.7-2.8c-2.4-0.7-4.6-1.9-6.4-3.6l0,0c-0.4-0.4-0.3-0.8-0.1-1s0.7-0.3,1,0.1
	c1.6,1.5,3.6,2.7,5.8,3.3l0.2-0.6c-0.2-0.1-0.3-0.2-0.4-0.4s-0.2-0.5-0.1-0.7c0.1-0.5,0.5-0.7,1-0.7l0.1-0.3c-1-0.3-1.9-0.7-2.8-1.2
	l-0.2,0.3c0.2,0.1,0.3,0.3,0.3,0.5c0.1,0.2,0,0.5-0.1,0.7s-0.3,0.4-0.6,0.4c-0.1,0-0.2,0-0.3,0c-0.2,0-0.3,0-0.5-0.1
	s-0.4-0.3-0.4-0.6c-0.1-0.2,0-0.5,0.1-0.7c0.2-0.4,0.7-0.6,1.2-0.4l0.2-0.3c-0.9-0.5-1.7-1.1-2.4-1.8l-0.2,0.2
	c0.3,0.4,0.2,0.9-0.1,1.2c-0.2,0.2-0.4,0.3-0.7,0.3s-0.5-0.1-0.7-0.3s-0.3-0.4-0.3-0.7s0.1-0.5,0.3-0.7s0.4-0.3,0.7-0.3
	c0.2,0,0.4,0.1,0.6,0.2l0.2-0.2c-0.7-0.7-1.3-1.5-1.8-2.4L9.4,32c0.1,0.2,0.1,0.4,0,0.6c0,0.4-0.2,0.6-0.4,0.7
	c-0.1,0.1-0.3,0.1-0.5,0.1c-0.1,0-0.2,0-0.3,0C8,33.3,7.8,33.2,7.7,33c-0.1-0.2-0.2-0.5-0.1-0.7c0-0.3,0.2-0.5,0.4-0.7
	c0.4-0.2,0.9-0.1,1.2,0.2l0.3-0.2c-0.5-0.9-0.9-1.8-1.2-2.8L8.1,29c0,0.2,0,0.4-0.1,0.6C7.8,29.8,7.6,30,7.3,30c-0.1,0-0.2,0-0.3,0
	c-0.2,0-0.3,0-0.5-0.1s-0.4-0.3-0.4-0.6c-0.1-0.5,0.2-1,0.7-1.2c0.5-0.1,1,0.2,1.2,0.6l0.3-0.1c-0.2-1-0.4-2-0.4-3H7.6
	c-0.1,0.5-0.5,0.8-0.9,0.8c-0.5,0-1-0.4-1-1s0.4-1,1-1c0.5,0,0.9,0.3,0.9,0.8h0.3c0-1,0.1-2,0.4-3l-0.3,0c-0.1,0.2-0.2,0.3-0.4,0.4
	c-0.1,0.1-0.3,0.1-0.5,0.1c-0.1,0-0.2,0-0.3,0c-0.2-0.1-0.5-0.2-0.6-0.4c-0.1-0.2-0.2-0.5-0.1-0.7c0.1-0.5,0.7-0.8,1.2-0.7
	c0.5,0.1,0.8,0.6,0.7,1L8.4,22c0.3-1,0.7-1.9,1.2-2.8L9.2,19c-0.1,0.2-0.3,0.3-0.5,0.3c-0.1,0-0.2,0-0.3,0c-0.2,0-0.3,0-0.5-0.1
	s-0.4-0.3-0.4-0.6c-0.1-0.2,0-0.5,0.1-0.7c0.3-0.5,0.9-0.6,1.3-0.4c0.4,0.2,0.6,0.7,0.4,1.2l0.3,0.2c0.5-0.9,1.1-1.7,1.8-2.4
	l-0.2-0.2c-0.2,0.1-0.4,0.2-0.6,0.2c-0.3,0-0.5-0.1-0.7-0.3c-0.2-0.2-0.3-0.4-0.3-0.7s0.1-0.5,0.3-0.7c0.4-0.4,1-0.4,1.4,0
	c0.2,0.2,0.3,0.4,0.3,0.7c0,0.2-0.1,0.4-0.2,0.6l0.2,0.2c0.7-0.7,1.5-1.3,2.4-1.8v-0.3c-0.1,0-0.2,0.1-0.3,0.1
	c-0.3,0-0.7-0.2-0.8-0.5c-0.1-0.2-0.2-0.5-0.1-0.7c0.1-0.2,0.2-0.5,0.4-0.6c0.5-0.3,1.1-0.1,1.3,0.4c0.2,0.4,0.1,0.9-0.2,1.2
	l0.2,0.3c0.9-0.5,1.8-0.9,2.8-1.2l-0.1-0.3l0,0c0,0,0,0-0.1,0c-0.2,0-0.3,0-0.5-0.1s-0.4-0.3-0.4-0.6c-0.1-0.5,0.2-1,0.7-1.2
	c0.5-0.1,1,0.2,1.2,0.7c0.1,0.5-0.1,0.9-0.5,1.1l0.1,0.3c1-0.2,2-0.4,3-0.4v-0.3c-0.5-0.1-0.8-0.5-0.8-0.9c0-0.3,0.1-0.5,0.3-0.7
	c0.2-0.2,0.4-0.3,0.7-0.3c0.5,0,1,0.4,1,1c0,0.5-0.3,0.9-0.8,0.9v0.3c1,0,2,0.1,3,0.4l0.1-0.3c-0.2-0.1-0.3-0.2-0.4-0.4
	s-0.2-0.5-0.1-0.7s0.2-0.5,0.4-0.6c0.2-0.1,0.5-0.2,0.7-0.1c0.5,0.1,0.8,0.7,0.7,1.2c-0.1,0.2-0.2,0.5-0.4,0.6
	c-0.1,0.1-0.3,0.1-0.5,0.1h-0.1l-0.1,0.3c1,0.3,1.9,0.7,2.8,1.2l0.2-0.3c-0.2-0.1-0.3-0.3-0.3-0.5c-0.1-0.2,0-0.5,0.1-0.7
	s0.3-0.4,0.6-0.4c0.2-0.1,0.5,0,0.7,0.1c0.5,0.3,0.6,0.9,0.4,1.3c-0.2,0.3-0.5,0.5-0.8,0.5c-0.1,0-0.2,0-0.3-0.1l-0.2,0.3
	c0.9,0.5,1.7,1.1,2.4,1.8l0.2-0.2C30.1,16,30,15.9,30,15.6s0.1-0.5,0.3-0.7c0.4-0.4,1-0.4,1.4,0c0.4,0.4,0.4,1,0,1.4
	c-0.2,0.2-0.4,0.3-0.7,0.3c-0.2,0-0.4-0.1-0.6-0.2l-0.2,0.2c0.7,0.7,1.3,1.5,1.8,2.4l0.3-0.2c-0.1-0.2-0.1-0.4,0-0.6
	s0.2-0.5,0.4-0.6c0.5-0.3,1.1-0.1,1.3,0.4c0.3,0.5,0.1,1-0.4,1.3c-0.1,0.1-0.3,0.1-0.5,0.1c-0.1,0-0.2,0-0.3,0
	c-0.2-0.1-0.4-0.2-0.5-0.3L32,19.3c0.5,0.9,0.9,1.8,1.2,2.8l0.3-0.1c0-0.2,0-0.4,0.1-0.6s0.3-0.4,0.6-0.4c0.5-0.1,1,0.2,1.2,0.7
	c0.1,0.2,0,0.5-0.1,0.7s-0.3,0.4-0.6,0.4c-0.1,0-0.2,0-0.3,0c-0.2,0-0.3,0-0.5-0.1s-0.3-0.2-0.4-0.4l-0.3,0.1c0.2,1,0.4,2,0.4,3h0.3
	c0.1-0.5,0.5-0.8,0.9-0.8c0.5,0,1,0.4,1,1c0,0.5-0.4,1-1,1c-0.5,0-0.9-0.3-0.9-0.8h-0.3c0,1-0.1,2-0.4,3l0.3,0.1
	c0.1-0.2,0.2-0.3,0.4-0.4s0.5-0.2,0.7-0.1s0.5,0.2,0.6,0.5c0.1,0.2,0.2,0.5,0.1,0.7c-0.1,0.2-0.2,0.5-0.4,0.6
	c-0.1,0.1-0.3,0.1-0.5,0.1c-0.1,0-0.2,0-0.2,0c-0.2-0.1-0.5-0.2-0.6-0.5c-0.1-0.2-0.1-0.4-0.1-0.6L33,28.9c-0.3,1-0.7,1.9-1.2,2.8
	l0.3,0.2c0.3-0.4,0.8-0.5,1.2-0.2c0.2,0.1,0.4,0.3,0.5,0.6c0.1,0.2,0,0.5-0.1,0.7s-0.3,0.4-0.6,0.4c-0.1,0-0.2,0-0.3,0
	c-0.2,0-0.3,0-0.5-0.1s-0.4-0.3-0.4-0.6c-0.1-0.2,0-0.4,0-0.6L31.7,32c-0.5,0.9-1.1,1.7-1.8,2.4l0.2,0.2c0.2-0.1,0.4-0.2,0.6-0.2
	c0.3,0,0.5,0.1,0.7,0.3s0.3,0.4,0.3,0.7s-0.1,0.5-0.3,0.7c-0.2,0.2-0.4,0.3-0.7,0.3c-0.3,0-0.5-0.1-0.7-0.3s-0.3-0.4-0.3-0.7
	c0-0.2,0.1-0.4,0.2-0.6l-0.2-0.2c-0.7,0.7-1.5,1.3-2.4,1.8l0.2,0.3c0.4-0.2,0.9,0,1.2,0.4c0.1,0.2,0.2,0.5,0.1,0.7s-0.2,0.5-0.5,0.6
	c-0.1,0.1-0.3,0.1-0.5,0.1c-0.1,0-0.2,0-0.2,0c-0.2-0.1-0.5-0.2-0.6-0.4s-0.2-0.5-0.1-0.7s0.2-0.4,0.3-0.5L27,36.6
	c-0.9,0.5-1.8,0.9-2.7,1.1l0.1,0.3c0.4,0,0.9,0.3,1,0.7c0.1,0.2,0,0.5-0.1,0.7s-0.2,0.3-0.4,0.4l0.2,0.6c2.2-0.6,4.1-1.7,5.8-3.3
	c0.2-0.2,0.5-0.3,0.7-0.2s0.4,0.3,0.5,0.5s0,0.5-0.2,0.6c-1.8,1.7-4,2.9-6.4,3.6l0.7,2.8h10.9c-0.4-1.5-0.7-3.4-0.8-5.4l0,0l0,0
	c-0.4-7,1.2-15.9,3.7-19.4c0.7-0.9,1.4-1.4,2.2-1.4s1.5,0.5,2.2,1.4c2.5,3.4,4,12.1,3.7,19.1c0.6-0.2,1.2-0.4,1.7-0.6h-0.1v-0.2H50
	v-4.2h-0.3v-0.2H50v-4.2h-0.3v-0.2H50v-6.4h-0.1c-0.1,0-0.2-0.1-0.2-0.2v-0.7h-0.3c-0.1,0-0.2-0.1-0.2-0.2v-5.2c0-0.1,0-0.1,0.1-0.1
	v-2.6h0.2v2.5h0.2v-1.7c0,0,0,0,0-0.1l1.3-3.8l0,0V9c0,0,0,0,0-0.1l0.8-2.3L52,6.7l-0.2-0.1l0.1-0.2c0.3-1,1-2.8,1-4.6h0.3
	c0,1.8,0.6,3.6,1,4.6l0,0l0.1,0.2l0,0L55,8.9c0,0,0,0,0,0.1v1.8l1.4,3.8c0,0,0,0,0,0.1v1.7h0.2v-2.5h0.2v2.6l0.1,0.1v5.2
	c0,0.1-0.1,0.2-0.2,0.2h-0.3v0.7c0,0.1-0.1,0.2-0.2,0.2h-0.1v6.4h0.1v0.2h-0.1v4.2h0.1v0.2h-0.1v0.7c1.8-1.4,3.3-2.9,4.3-4.3
	c2.8-3.4,3.8-6.5,4-7H64V23h0.4v-3h-0.1c-0.1,0-0.1,0-0.1-0.1s0-0.1,0-0.2l0.8-1.4c0.1-0.1,0.2-0.1,0.3,0l0.8,1.4c0,0.1,0,0.1,0,0.2
	S66,20,66,20h-0.1v2.8h0.2l1.5-6.7c0-0.1,0.1-0.1,0.2-0.1s0.1,0.1,0.2,0.1l1.5,6.7h0.2V20h-0.1c-0.1,0-0.1,0-0.1-0.1s0-0.1,0-0.2
	l0.8-1.4c0-0.1,0.1-0.1,0.1-0.1c0.1,0,0.1,0,0.1,0.1l0.8,1.4c0,0.1,0,0.1,0,0.2S71.2,20,71.2,20h-0.1v2.8h0.3v0.3h-0.3v0.6h12.3
	v-0.6H83v-0.3h0.4V20h-0.1c-0.1,0-0.1,0-0.1-0.1s0-0.1,0-0.2l0.8-1.4c0-0.1,0.1-0.1,0.1-0.1c0.1,0,0.1,0,0.1,0.1l0.8,1.4
	c0,0.1,0,0.1,0,0.2S84.9,20,84.9,20h-0.1v2.8H85l1.5-6.7c0-0.1,0.1-0.1,0.2-0.1s0.1,0.1,0.2,0.1l1.5,6.7h0.2V20h-0.1
	c-0.1,0-0.1,0-0.1-0.1c0,0,0-0.1,0-0.2l0.8-1.4c0.1-0.1,0.2-0.1,0.3,0l0.8,1.4c0,0.1,0,0.1,0,0.2S90.2,20,90.2,20h-0.1v2.8h0.3v0.3
	h-0.3c0.1,0.4,1.2,3.5,4,7c0.7,0.8,1.5,1.7,2.4,2.6v-4.9c0-0.1,0.1-0.2,0.2-0.2H96v-1.3h0.2v1.3h0.4c0.1,0,0.2,0.1,0.2,0.2V30
	l0.7-2.2c0-0.1,0.1-0.1,0.2-0.1h2c0.1,0,0.1,0,0.2,0.1l0.7,2.2v-2.1c0-0.1,0.1-0.2,0.2-0.2h0.4v-1.3h0.2v1.3h0.4
	c0.1,0,0.2,0.1,0.2,0.2v4h10.7v-4c0-0.1,0.1-0.2,0.2-0.2h0.4v-1.3h0.2v1.3h0.4c0.1,0,0.2,0.1,0.2,0.2V30l0.7-2.2
	c0-0.1,0.1-0.1,0.2-0.1h1.9c0.1,0,0.1,0,0.2,0.1l0.7,2.2v-2.1c0-0.1,0.1-0.2,0.2-0.2h0.4v-1.3h0.2v1.3h0.4c0.1,0,0.2,0.1,0.2,0.2
	v16.7h6.4v0.2H125z M27.3,37.2c-0.1,0.1-0.1,0.2-0.2,0.3v0.1h0.4L27.3,37.2z M27.5,38.2c0.2,0,0.3,0,0.5-0.1l0,0
	c0.1-0.1,0.2-0.2,0.3-0.4l0,0h-1.2c0,0.1,0,0.1,0.1,0.2C27.2,38.1,27.4,38.2,27.5,38.2z M28.3,37.3C28.2,37.1,28,37,27.8,37l0,0
	c-0.1,0-0.1,0-0.2,0l0.3,0.5l-0.1,0.1h0.6C28.3,37.5,28.3,37.4,28.3,37.3z M32.2,32.4L32.2,32.4L32.2,32.4
	C32.2,32.3,32.2,32.3,32.2,32.4L32.2,32.4z M32.5,33c0.1,0.1,0.3,0.1,0.5,0.1l0,0c0.2,0,0.3-0.1,0.4-0.3c0-0.1,0.1-0.2,0.1-0.2h-0.7
	v0.1l-0.1-0.1h-0.4v0.1C32.3,32.8,32.4,32.9,32.5,33z M33.2,31.9c-0.1-0.1-0.2-0.1-0.3-0.1l0,0c-0.2,0-0.3,0.1-0.4,0.2l0.5,0.3v0.1
	h0.6v-0.1C33.4,32.1,33.3,32,33.2,31.9z M34.1,29.7c0.2,0,0.3,0,0.5-0.1c0.1-0.1,0.2-0.2,0.3-0.4v-0.1l0,0h-0.6v0.1L34,29.1h-0.3
	c0,0.1,0,0.2,0.1,0.2C33.8,29.5,33.9,29.6,34.1,29.7z M34.3,28.4c-0.1,0-0.2,0-0.3,0.1l0,0c-0.1,0.1-0.2,0.1-0.2,0.2l0.6,0.2V29H35
	c0-0.1,0-0.2-0.1-0.2c-0.1-0.1-0.2-0.2-0.4-0.3C34.4,28.5,34.3,28.4,34.3,28.4z M33.9,22.3c0.1,0.1,0.3,0.1,0.5,0.1l0,0
	c0.2,0,0.3-0.1,0.4-0.3c0-0.1,0.1-0.1,0.1-0.2h-0.6V22l-0.6,0.2C33.8,22.2,33.8,22.3,33.9,22.3z M34.3,21.2c-0.1,0-0.1,0-0.2,0l0,0
	c-0.2,0-0.3,0.1-0.4,0.3c0,0.1-0.1,0.2-0.1,0.2h0.2l0.4-0.1v0.1h0.6v-0.1C34.8,21.4,34.5,21.2,34.3,21.2z M32.7,19
	c0.2,0,0.3,0,0.5-0.1s0.3-0.3,0.3-0.4h-0.6l0,0l-0.5,0.3C32.5,18.9,32.6,19,32.7,19z M32.9,17.8c-0.1,0-0.2,0-0.3,0.1l0,0
	c-0.1,0.1-0.2,0.2-0.3,0.4v0.1h0.4l0.1-0.1v0.1h0.7c0-0.1,0-0.2-0.1-0.2C33.3,17.9,33.1,17.8,32.9,17.8z M32.3,18.5L32.3,18.5
	C32.2,18.5,32.2,18.5,32.3,18.5L32.3,18.5z M27.9,13.3l-0.3,0.5c0.3,0.1,0.6,0,0.7-0.3c0-0.1,0.1-0.2,0.1-0.3L27.9,13.3L27.9,13.3z
	 M27.7,12.6c-0.1,0-0.1,0-0.2,0l0,0c-0.2,0-0.3,0.1-0.4,0.3c0,0.1-0.1,0.1-0.1,0.2h1.2c0-0.2-0.1-0.3-0.3-0.4
	C27.9,12.7,27.8,12.6,27.7,12.6z M27.1,13.3v0.1l0,0c0,0.1,0.1,0.2,0.2,0.3l0.2-0.4C27.5,13.3,27.1,13.3,27.1,13.3z M24.3,11.2
	c-0.1,0-0.2,0-0.3,0.1c-0.1,0.1-0.2,0.2-0.3,0.4l0,0l0,0h1.2c0-0.2-0.2-0.4-0.5-0.5C24.4,11.2,24.4,11.2,24.3,11.2z M23.7,11.9
	c0,0.1,0,0.2,0.1,0.3l0,0c0.1,0.1,0.2,0.2,0.4,0.3c0.2,0,0.3,0,0.5-0.1c0.1-0.1,0.2-0.2,0.3-0.4v-0.1H23.7z M17.6,11.7
	c-0.1-0.3-0.4-0.5-0.8-0.4c-0.2,0.1-0.4,0.3-0.5,0.5L17.6,11.7L17.6,11.7L17.6,11.7z M16.4,12c0,0.2,0.1,0.3,0.3,0.4l0,0
	c0.1,0.1,0.3,0.1,0.5,0.1c0.3-0.1,0.4-0.3,0.5-0.6h-1.3V12z M14.3,13.3h-0.4l0.2,0.4C14.2,13.6,14.3,13.5,14.3,13.3z M13.6,12.6
	c-0.1,0-0.2,0-0.3,0.1l0,0c-0.1,0.1-0.2,0.2-0.3,0.4l0,0l0,0h1.2c0-0.1,0-0.1-0.1-0.2C14.1,12.7,13.9,12.6,13.6,12.6z M13,13.3
	c0,0.1,0,0.2,0.1,0.3l0,0c0.1,0.2,0.4,0.4,0.7,0.3l-0.3-0.5h0.1H13V13.3z M9.1,18.5H9H9.1L9.1,18.5z M9.1,18.3
	c0-0.2-0.1-0.4-0.3-0.5l0,0c-0.3-0.2-0.7-0.1-0.9,0.2c0,0.1-0.1,0.2-0.1,0.2h0.7v-0.1l0.1,0.1L9.1,18.3L9.1,18.3z M8.2,19
	c0.1,0,0.3,0.1,0.5,0l0,0c0.1,0,0.2-0.1,0.3-0.2l-0.5-0.3l0,0H7.9l0,0l0,0C7.9,18.7,8,18.9,8.2,19z M7.1,21.2
	c-0.3,0-0.5,0.2-0.6,0.5l0,0v0.1h0.6v-0.1l0.4,0.1h0.2c0-0.3-0.2-0.5-0.5-0.5C7.2,21.2,7.1,21.2,7.1,21.2z M6.9,22.4
	c0.2,0,0.3,0,0.5-0.1l0,0c0.1-0.1,0.2-0.1,0.2-0.2L7,22v-0.1H6.5c0,0.1,0,0.1,0.1,0.2C6.6,22.3,6.8,22.4,6.9,22.4z M7.1,28.4
	c-0.1,0-0.1,0-0.2,0l0,0c-0.3,0.1-0.4,0.3-0.5,0.5H7v-0.1l0.6-0.2C7.5,28.6,7.3,28.4,7.1,28.4z M6.8,29.6c0.1,0.1,0.3,0.1,0.5,0.1
	l0,0c0.2,0,0.3-0.1,0.4-0.3c0-0.1,0.1-0.2,0.1-0.2H7.4l-0.3,0.1v-0.1H6.5v0.1C6.5,29.4,6.6,29.5,6.8,29.6z M8.5,31.8
	c-0.1,0-0.2,0-0.3,0.1l0,0C8,32,7.9,32.1,7.9,32.3v0.1h0.6v-0.1L8.9,32C8.8,31.9,8.7,31.8,8.5,31.8z M8.3,33.1c0.2,0,0.3,0,0.5-0.1
	l0,0c0.2-0.1,0.3-0.3,0.3-0.5H8.7l-0.1,0.1v-0.1H7.9c0,0.1,0,0.2,0.1,0.2C8,32.9,8.2,33,8.3,33.1z M9,32.4h0.1c0,0,0,0,0-0.1L9,32.4
	z M13.8,37c-0.1,0-0.1,0-0.2,0l0,0c-0.2,0-0.4,0.1-0.5,0.3C13,37.4,13,37.5,13,37.6h0.6l-0.1-0.1L13.8,37z M13.3,38.2
	c0.1,0.1,0.3,0.1,0.5,0.1l0,0c0.2,0,0.3-0.1,0.4-0.3c0-0.1,0.1-0.1,0.1-0.2H13l0,0l0,0C13.1,37.9,13.2,38.1,13.3,38.2z M13.9,37.6
	h0.4l0,0c0-0.2-0.1-0.3-0.2-0.4L13.9,37.6z M8.9,41c-0.3,0-0.7,0.9-0.7,1.4l0,0c0,0.2,0.1,0.4,0.2,0.5c0.1,0.1,0.3,0.2,0.5,0.2
	c0.4,0,0.7-0.3,0.7-0.7C9.6,41.9,9.3,41,8.9,41z M6.1,38.7c-0.3,0.3-0.7,3.1-0.7,3.7l0,0c0,0.2,0.1,0.4,0.2,0.5s0.3,0.2,0.5,0.2
	s0.4-0.1,0.5-0.2c0.1-0.1,0.2-0.3,0.2-0.5C6.8,41.8,6.4,39,6.1,38.7z M83.6,43.2h-1v0.5h6.6v-0.5h-0.8V43h0.8v-0.9h-2.6V42h2.6v-0.4
	h-0.7v-0.2h0.7v-0.5h-6.6v0.5H84v0.2h-1.4V42h2.1v0.2h-2.1V43h1V43.2z M95.5,40.5V40h-6.4v0.5H95.5z M100.4,31.2h-3.7l0,0v2.7
	c0.4,0.3,0.7,0.6,1.1,0.9h2.6V31.2z M104.9,35h-3.2v2c0.2,0.1,0.5,0.2,0.8,0.4v-1.6c0-0.1,0.1-0.2,0.2-0.2h1.2
	c0.1,0,0.2,0.1,0.2,0.2v2c0,0.1-0.1,0.2-0.2,0.2h-0.3c0.5,0.2,0.9,0.4,1.4,0.5L104.9,35L104.9,35z M117.3,35h-3.7v3.6h3.7V35z
	 M117.3,38.8h-3.7v3.7h3.7V38.8z M113.7,34.7h3.7v-3.5h-3.7V34.7z M117.3,42.7h-3.7l0,0v1.7h0.3v-0.7c0-0.1,0.1-0.2,0.2-0.2h0.5
	c0.1,0,0.2,0.1,0.2,0.2v0.7h1.3v-0.7c0-0.1,0.1-0.2,0.2-0.2h0.5c0.1,0,0.2,0.1,0.2,0.2v0.7h0.3V42.7z M114.3,44.4h0.2v-0.6h-0.2
	V44.4z M116.5,44.4h0.2v-0.6h-0.2V44.4z M105.3,38.6V35h-0.2v3.5L105.3,38.6C105.2,38.6,105.2,38.6,105.3,38.6z M105.3,39.7V39l0,0
	h-0.1h-0.1v0.8L105.3,39.7L105.3,39.7z M106.9,44.4h0.2v-0.6h-0.2V44.4z M106.8,43.5h0.5c0.1,0,0.2,0.1,0.2,0.2v0.7h1.1v-1.7h-3.1
	v-0.2h3.1v-1.7h-0.7v0.8c0,0.1-0.1,0.2-0.2,0.2h-1.2c-0.1,0-0.2-0.1-0.2-0.2v-0.8h-0.8v3.6h1.2v-0.7
	C106.6,43.6,106.7,43.5,106.8,43.5z M103.1,44.4h0.2v-0.6h-0.2V44.4z M102.9,43.5h0.5c0.1,0,0.2,0.1,0.2,0.2v0.7h1.3v-1.7h-3.2v1.7
	h1.1v-0.7C102.8,43.6,102.8,43.5,102.9,43.5z M99.5,44.4h0.2v-0.6h-0.2V44.4z M99.4,43.5h0.5l0,0c0.1,0,0.2,0.1,0.2,0.2v0.7h0.3
	v-1.7h-3.7v1.7H97v-0.7c0-0.1,0.1-0.2,0.2-0.2h0.5c0.1,0,0.2,0.1,0.2,0.2v0.7h1.3v-0.7C99.2,43.6,99.3,43.5,99.4,43.5z M97.4,44.4
	h0.2v-0.6h-0.2V44.4z M97.3,40.9h-0.6v1.7h3.7v-1.7h-0.6v0.8c0,0.1-0.1,0.2-0.2,0.2h-2.1c-0.1,0-0.2-0.1-0.2-0.2
	C97.3,41.7,97.3,40.9,97.3,40.9z M99.5,37.6v-1.4l0,0c-0.1-0.1-0.2-0.1-0.4-0.2l0,0v1.6C99.1,37.6,99.5,37.6,99.5,37.6z M97.7,36
	v1.6h0.7V36H97.7z M98.8,36L98.8,36v1.6l0,0V36z M97.3,35.8c0-0.1,0.1-0.2,0.2-0.2h1.1c-0.3-0.2-0.6-0.4-0.9-0.6h-1v3.6h2.1v-0.7
	h-1.3c-0.1,0-0.2-0.1-0.2-0.2C97.3,37.7,97.3,35.8,97.3,35.8z M98.8,38.8h-2.1l0,0v0.9h0.6c0-0.1,0.1-0.1,0.2-0.1h1.3V38.8z
	 M98.4,40.9h-0.7v0.6h0.7V40.9z M98.4,40.5V40h-0.7v0.5H98.4z M99.5,40.9h-0.7v0.6h0.7V40.9z M98.7,40v0.5h0.7V40H98.7z M100.4,40
	h-0.6v0.5h0.6V40z M99.6,39.5c0.1,0,0.2,0.1,0.2,0.1h0.6v-0.9h-1.3v0.7h0.5V39.5z M97.3,40.5V40h-0.6v0.5H97.3z M99.1,38.7h1.3v-1.9
	c-0.2-0.1-0.4-0.2-0.6-0.4v1.4c0,0.1-0.1,0.2-0.2,0.2h-0.5C99.1,38,99.1,38.7,99.1,38.7z M99.8,35.8V36c0.2,0.1,0.4,0.2,0.6,0.4V35
	h-2.1c0.3,0.2,0.6,0.4,0.9,0.6h0.4C99.7,35.7,99.8,35.7,99.8,35.8z M101,40.9h-0.2v3.6h0.2V40.9z M101.3,44.4v-3.6h-0.2v3.6H101.3z
	 M104.9,40.5V40H104v0.5H104.9z M106.9,40.9h-0.3v0.6h0.3V40.9z M107.5,40.9h-0.3v0.6h0.3V40.9z M107.2,40v0.5h0.3V40H107.2z
	 M108.5,40h-0.7v0.5h0.7V40z M108.8,40L108.8,40l-0.1,0.5h0.1V40z M106.9,40.5V40h-0.3v0.5H106.9z M105.4,40.5h0.8V40h-0.8V40.5z
	 M105.1,40.5h0.2V40h-0.2V40.5z M105.1,40.9v3.6h0.2v-3.6H105.1z M103.4,40.5h0.3V40h-0.3V40.5z M103.6,41.5v-0.6h-0.3v0.6H103.6z
	 M103,40.5V40h-0.3v0.5H103z M103,41.5v-0.6h-0.3v0.6H103z M103.8,41.8h-1.2c-0.1,0-0.2-0.1-0.2-0.2v-0.8h-0.8v1.7h3.2v-1.7H104v0.8
	C104,41.7,103.9,41.8,103.8,41.8z M108.7,40.9v3.6h0.2v-3.6H108.7z M108.9,39.6V35h-0.2v4.6C108.8,39.6,108.8,39.6,108.9,39.6z
	 M106.2,39.7c0-0.1,0.1-0.1,0.2-0.1h0.6c-0.5-0.2-1.1-0.3-1.6-0.5v0.6H106.2z M104,39.7h0.9v-0.8c-0.8-0.3-1.5-0.6-2.2-0.9l0,0v1.6
	h1.2C103.9,39.5,104,39.6,104,39.7z M103.6,37.6V36h-0.3v1.6H103.6z M102.8,37.6h0.3l0,0V36h-0.3V37.6L102.8,37.6z M102.4,40.5V40
	h-0.8v0.5H102.4z M101.1,40.5h0.2V40h-0.2V40.5z M100.7,40.5h0.2V40h-0.2V40.5z M96.2,40.5h0.2V40h-0.2V40.5z M96.4,44.4v-3.6h-0.2
	v3.6H96.4z M95.8,44.4H96v-3.6h-0.2V44.4z M110.8,44.4h0.2v-0.6h-0.2V44.4z M111.3,43.7v0.7h1.1v-1.7h-3.3v1.7h1.4v-0.7
	c0-0.1,0.1-0.2,0.2-0.2h0.5C111.2,43.5,111.3,43.6,111.3,43.7z M109.1,42.5h3.3V35h-3.3v4.6c0.1,0,0.1,0.1,0.1,0.2v0.9
	c0,0.1,0,0.1-0.1,0.2V42.5z M108.7,34.7h0.2v-1l-0.1-0.3l-0.1,0.3V34.7z M105.4,38.7c1,0.3,2,0.6,3.1,0.9V35h-3.1V38.7z M105.1,34.7
	h0.2v-1l-0.1-0.3l-0.1,0.3V34.7z M102.3,39.7v-1.9c-0.2-0.1-0.4-0.2-0.6-0.3v2.2H102.3z M101.1,39.7h0.2v-2.4c0,0-0.1,0-0.1-0.1
	c0,0-0.1,0-0.1-0.1V39.7z M100.7,39.7h0.2v-2.6c-0.1,0-0.1-0.1-0.2-0.1V39.7z M96.7,34.7h0.6c-0.2-0.1-0.4-0.3-0.6-0.4V34.7z
	 M96.4,39.7v-4.8V34l-0.1-0.1l-0.1-0.1v5.9C96.2,39.7,96.4,39.7,96.4,39.7z M95.8,39.7H96v-6l-0.1-0.1l-0.1-0.1V39.7z M96,40.5V40
	h-0.2v0.5H96z M88.5,36.9v3.6h0.2v-3.6H88.5z M84.1,37.4v3.2h3.7v-3.2H84.1z M88.4,32.3h-0.2v4.3h0.2V32.3z M88.7,32.3h-0.2v4.3h0.2
	V32.3z M88.5,27.7V32h0.2v-4.3H88.5z M88.1,32h0.2v-4.3h-0.2V32z M84.1,28h3.7v-0.3h-3.7V28z M87.8,28.2h-3.7V32h3.7V28.2z
	 M87.8,32.6v-0.3h-3.7v0.3H87.8z M87.8,32.8h-3.7v3.8h3.7V32.8z M87.8,37.2v-0.3h-3.7v0.3H87.8z M88.4,36.9h-0.2v3.6h0.2V36.9z
	 M91.3,28.3v11.4h0.2v-11C91.5,28.6,91.4,28.4,91.3,28.3z M89.1,39.7h2.1l0,0V28.1c-1.1-1.7-1.8-3.1-2.1-4v3.3h0.3v0.3h-0.3V32h0.3
	v0.3h-0.3v4.3h0.3v0.3h-0.3V39.7z M88.5,27.4h0.2v-4.3h-0.2V27.4z M88.1,27.4h0.2v-4.3h-0.2V27.4z M84.1,27.4h3.7v-3.8h-3.7V27.4z
	 M83.6,27.4h0.2v-4.3h-0.2V27.4z M83.8,32v-4.3h-0.2V32H83.8z M83.8,36.6v-4.3h-0.2v4.3H83.8z M83.8,40.5v-3.6h-0.2v3.6H83.8z
	 M95.5,40.9h-5.9v3.6h5.9V40.9z M118,44.4h0.2V28H118V44.4z M117.9,28h-0.2v16.4h0.2V28z M116.3,28h-1.7l-0.9,2.8h3.6L116.3,28z
	 M113.3,44.4V31v-3h-0.2v16.4H113.3z M112.9,28h-0.2v16.4h0.2V28z M112.4,34.7v-2.6h-10.7v2.6h3.2v-1l0,0l0.2-0.5c0,0,0-0.1,0.1-0.1
	c0,0,0.1,0,0.1,0.1l0.2,0.5l0,0v1h3.1v-1l0,0l0,0l0.2-0.5c0,0,0-0.1,0.1-0.1c0,0,0.1,0,0.1,0.1l0.2,0.5l0,0v1H112.4z M101.3,36.9v-5
	v-4h-0.2v8.8C101.2,36.8,101.3,36.9,101.3,36.9z M101,28h-0.2v8.6c0.1,0,0.1,0.1,0.2,0.1V28z M99.4,28h-1.7l-0.9,2.8h3.6L99.4,28z
	 M96.4,33.5V31v-3h-0.2v5.4l0,0C96.3,33.4,96.3,33.5,96.4,33.5z M96,28h-0.2v5l0.2,0.2V28z M95.3,39.7h0.2l0,0v-6.5c0,0,0,0-0.1-0.1
	L95.3,33V39.7z M94.9,39.7v-7c-0.1-0.1-0.1-0.1-0.2-0.2v7.2H94.9z M94.6,39.7v-7.3l0,0c-0.7-0.7-1.3-1.4-1.8-2
	c-0.3-0.4-0.6-0.8-0.9-1.2v10.5H94.6z M88.5,22.8h0.2V20h-0.2V22.8z M88.9,19.7l-0.5-0.9l-0.5,0.9H88.9z M88.4,20h-0.2v2.8h0.2V20z
	 M85.7,22.8h0.5V22h-0.5V22.8z M85.6,21.8h0.7c0,0,0.1,0,0.1,0.1v0.9h0.4v-1.3L86,21l-0.9,0.6v1.3h0.4L85.6,21.8
	C85.5,21.8,85.6,21.8,85.6,21.8z M87.2,22.8L87.2,22.8v-0.6V22.8z M86.9,21.2l-1-4.3l-1,4.3l0.9-0.6c0.1,0,0.1,0,0.2,0L86.9,21.2z
	 M84.8,22.8v-0.6V22.8L84.8,22.8z M87.8,23.4v-0.3h-3.7v0.3H87.8z M83.6,22.8h0.2V20h-0.2V22.8z M84,19.7l-0.5-0.9L83,19.7H84z
	 M83.4,20h-0.2v2.8h0.2V20z M82.9,24.7v-0.6H70.6v0.6H82.9z M70,22.8h0.2V20H70V22.8z M70.4,19.7l-0.5-0.9l-0.5,0.9H70.4z M69.9,20
	h-0.2v2.8h0.2V20z M70.8,41.4v-0.5h-6.6v0.5h1.4v0.2h-1.4V42h2.1v0.2h-2.1V43h1v0.2h-1v0.5h6.6v-0.5H70V43h0.8v-0.9h-2.6V42h2.6
	v-0.4h-0.7v-0.2C70.1,41.4,70.8,41.4,70.8,41.4z M54.8,40.9h-0.2v0.3h0.2V40.9z M54.5,40v0.5h0.2V40H54.5z M53.6,40.9h-0.2v0.3h0.2
	V40.9z M53.4,40v0.5h0.2V40H53.4z M52.5,40.9h-0.2v0.3h0.2V40.9z M52.2,40v0.5h0.2V40H52.2z M51.3,40.9h-0.2v0.3h0.2V40.9z M51.1,40
	v0.5h0.2V40H51.1z M41.8,23.6l-0.7-1l-0.7,1l0.7,1L41.8,23.6z M42.8,25L42,23.9l0,0l-0.3,0.4l5.7,8c0-0.3-0.1-0.6-0.1-1L42.8,25
	C42.9,25.1,42.8,25.1,42.8,25z M43.9,23.9l-0.7,1l0,0l4.1,5.7c-0.1-0.9-0.3-1.8-0.4-2.7L44.8,25l0,0L43.9,23.9z M45.4,24.5l-0.3,0.4
	l1.6,2.2c-0.1-0.4-0.2-0.8-0.3-1.2L45.4,24.5z M45.5,24.4l0.3-0.5c0.2,0.5,0.3,1.1,0.5,1.6L45.5,24.4z M44.1,23.6l0.7,1l0.7-1
	l-0.7-1L44.1,23.6z M40.9,19l3.1,4.3l0,0l0.3-0.4l-3-4.2C41.1,18.8,41,18.9,40.9,19z M43,24.7l0.7-1l-0.7-1l-0.7,1L43,24.7z
	 M39.4,21l1.2,1.7l0,0l0.3-0.4l-1.2-1.7C39.5,20.7,39.5,20.8,39.4,21z M40.5,22.8l-0.4,0.5l-0.8-1.1c-0.1-0.1-0.2-0.1-0.3,0
	l-0.5,0.7c0.2-0.6,0.5-1.2,0.7-1.7L40.5,22.8z M39.2,24.7l0.7-1l-0.7-1l-0.7,1L39.2,24.7z M39.2,25.1c-0.1,0-0.1,0-0.1-0.1l0,0
	l-0.8-1.2c-0.1,0.3-0.2,0.7-0.3,1.1l9.7,13.8c0.1-1.9,0-4-0.2-6.1l-5.8-8.2L41.2,25c-0.1,0.1-0.2,0.1-0.3,0l-0.8-1.1L39.3,25
	C39.3,25.1,39.2,25.1,39.2,25.1z M47.2,39.3l0.3,0.4h0.1c0-0.2,0-0.3,0-0.5C47.5,39.2,47.4,39.2,47.2,39.3z M45.9,39.7h1.2l-0.2-0.3
	C46.6,39.5,46.2,39.6,45.9,39.7z M47.2,39c0.1,0,0.2-0.1,0.3-0.1l0,0l-9.7-13.7c-0.1,0.2-0.1,0.5-0.2,0.7L47,39
	C47.1,39,47.1,39,47.2,39z M44.7,39.6c0.7-0.2,1.4-0.3,2-0.5l0,0l-9.1-12.8c-0.2,0.8-0.4,1.7-0.5,2.6L44.7,39.6z M44.9,40.5L44.6,40
	v0.5H44.9z M47.3,40H45l0,0l0.4,0.5h2.1v-0.3L47.3,40z M47.1,43c0.1-0.7,0.2-1.4,0.3-2.2h-1.9L47.1,43z M49.8,40.9h-2
	c-0.1,1.3-0.4,2.6-0.7,3.6h2.7V40.9z M47.9,40c0,0.2,0,0.4,0,0.5h2V40H47.9z M50.7,40h-0.6v0.5h0.6V40z M52.4,36.8
	C52.4,36.7,52.4,36.7,52.4,36.8l0.1-2.3h-0.2v2.3C52.3,36.8,52.3,36.8,52.4,36.8z M52.6,37.2h-0.3l0,0c-0.4,0.2-0.8,0.4-1.2,0.6v0.1
	h3.2v-0.7c-0.1,0-0.1-0.1-0.1-0.2v-0.9c0,0,0,0-0.1,0s-0.1,0.1-0.2,0.1V37c0,0.1-0.1,0.2-0.2,0.2h-0.6c-0.1,0-0.2-0.1-0.2-0.2v-0.2
	c-0.1,0-0.2,0.1-0.2,0.1l0,0V37C52.8,37.1,52.7,37.2,52.6,37.2z M53.4,36.2c0.1,0,0.2-0.1,0.2-0.1v-1.5h-0.2V36.2z M53.6,36.9v-0.4
	l-0.1,0.1c0,0-0.1,0-0.1,0.1V37L53.6,36.9L53.6,36.9z M54.6,35.4L54.6,35.4l0.1-0.9h-0.2v1C54.6,35.4,54.6,35.4,54.6,35.4z
	 M53.4,39.7h0.2v-0.9h-0.2V39.7z M53.2,38.5h0.6l0,0c0.1,0,0.2,0.1,0.2,0.2v1h0.2v-1c0-0.1,0.1-0.1,0.1-0.2v-0.4h-3.2v0.4h0.3
	c0.1,0,0.2,0.1,0.2,0.2v1h0.2v-1c0-0.1,0.1-0.2,0.2-0.2h0.6c0.1,0,0.2,0.1,0.2,0.2v1H53v-1C53,38.5,53.1,38.5,53.2,38.5z M52.2,39.7
	h0.2v-0.9h-0.2V39.7z M51.3,38.8h-0.2v0.9h0.2V38.8z M54.8,38.8L54.8,38.8l-0.1,0.9h0.1V38.8z M54.7,38.5H55c0.1,0,0.2,0.1,0.2,0.2
	v1h0.6v-1.6h-1L54.7,38.5L54.7,38.5z M54.7,37.2v0.7h1V35c-0.2,0.1-0.4,0.3-0.6,0.4V37c0,0.1-0.1,0.2-0.2,0.2H54.7z M54.7,36.9
	L54.7,36.9l0.1-1.2c0,0-0.1,0-0.1,0.1V36.9z M50.8,38.1h-0.3l0,0c-0.1,0.1-0.2,0.1-0.4,0.2v1.5h0.6v-1c0-0.1,0-0.1,0.1-0.1
	C50.8,38.7,50.8,38.1,50.8,38.1z M51.9,40h-0.2v0.5h0.2V40z M53,40h-0.2v0.5H53V40z M54.2,40H54v0.5h0.2V40z M55.7,40h-0.6v0.5h0.6
	V40z M64.4,40H56v0.5h8.3L64.4,40L64.4,40z M65.6,27.4h3.7v-3.8h-3.7V27.4z M65.6,37.4v3.2h3.7v-3.2H65.6z M64.7,36.9v2.9v0.7h0.2
	v-3.6C64.9,36.9,64.7,36.9,64.7,36.9z M65.1,32h0.2v-4.3h-0.2V32z M65.1,36.6h0.2v-4.3h-0.2V36.6z M64.7,32h0.2v-4.3h-0.2V32z
	 M64.9,36.6v-4.3h-0.2v4.3H64.9z M65.3,36.9h-0.2v3.6h0.2V36.9z M65.6,37.2h3.7v-0.3h-3.7V37.2z M65.6,32.8v3.8h3.7v-3.8H65.6z
	 M65.6,32.6h3.7v-0.3h-3.7V32.6z M65.6,28.2V32h3.7v-3.8H65.6z M65.6,28h3.7v-0.3h-3.7V28z M65.1,27.4h0.2v-4.3h-0.2V27.4z
	 M64.7,27.4h0.2v-4.3h-0.2V27.4z M63.9,27.4h0.4v-3.3c-0.4,0.9-1,2.3-2.1,4v11.6h2.1V37h-0.4v-0.3h0.4v-4.3h-0.4V32h0.4v-4.3h-0.4
	V27.4z M61.9,39.7h0.2V28.3c-0.1,0.1-0.2,0.2-0.2,0.4V39.7z M63.8,44.5v-3.6H56v3.6H63.8z M69.7,36.9v3.6h0.2v-3.6H69.7z M69.7,32.3
	v4.3h0.2v-4.3H69.7z M69.7,27.7V32h0.2v-4.3H69.7z M69.7,23.1v4.3h0.2v-4.3C69.9,23.1,69.7,23.1,69.7,23.1z M67.2,22.8h0.5V22h-0.5
	V22.8z M67.1,21.8h0.7c0,0,0.1,0,0.1,0.1v0.9h0.4v-1.3L67.5,21l-0.9,0.6v1.3H67L67.1,21.8L67.1,21.8z M68.7,22.8L68.7,22.8v-0.6
	V22.8z M67.4,16.9l1,4.3l-0.9-0.6c-0.1,0-0.1,0-0.2,0l-0.9,0.6L67.4,16.9z M66.3,22.8v-0.6V22.8L66.3,22.8z M69.3,23.4v-0.3h-3.7
	v0.3H69.3z M65.1,22.8h0.2V20h-0.2V22.8z M65.5,19.7L65,18.8l-0.5,0.9C64.5,19.7,65.5,19.7,65.5,19.7z M64.9,20h-0.2v2.8h0.2V20z
	 M61.5,29.1c-0.3,0.4-0.6,0.8-0.9,1.2c-0.5,0.6-1.1,1.3-1.8,2v7.4h2.7V29.1z M58.7,39.7v-7.2l0,0c-0.1,0.1-0.1,0.1-0.2,0.2v7H58.7z
	 M58.2,39.7V33c-0.6,0.6-1.3,1.2-2.1,1.8v3.1h0.1v0.2H56v1.6C56,39.7,58.2,39.7,58.2,39.7z M55.9,21.5h0.5v-4.9h-0.5V21.5z
	 M52.4,16.4h-0.6v-0.8l0,0c0-0.2,0.1-0.3,0.3-0.3s0.3,0.1,0.3,0.3l0,0V16.4z M50.3,18.4c0.2-0.7,0.7-1.3,1.3-1.7h-1.3V18.4z
	 M50.3,16.4h0.6l0,0v-0.8l0,0c0-0.2-0.1-0.3-0.3-0.3s-0.3,0.1-0.3,0.3l0,0l0,0V16.4z M51.6,21.5c-0.6-0.4-1.1-1-1.3-1.7v1.7H51.6z
	 M52.9,16.7c-1.3,0-2.4,1.1-2.4,2.4s1.1,2.4,2.4,2.4c1.3,0,2.4-1.1,2.4-2.4C55.4,17.8,54.3,16.7,52.9,16.7z M55.6,16.4H55v-0.8l0,0
	l0,0c0-0.2,0.1-0.3,0.3-0.3s0.3,0.1,0.3,0.3l0,0V16.4z M55.6,16.7h-0.8h-0.6c0.7,0.4,1.1,1,1.3,1.7L55.6,16.7L55.6,16.7z M54,16.4
	h-0.6v-0.8l0,0c0-0.2,0.1-0.3,0.3-0.3s0.3,0.1,0.3,0.3l0,0V16.4z M55.6,21.5v-1.7c-0.2,0.7-0.7,1.3-1.3,1.7H55.6z M54.6,10.6V9.1
	h-3.4v1.5h0.2V9.7c0-0.2,0.2-0.4,0.4-0.4s0.4,0.2,0.4,0.4v0.9h0.2V9.7c0-0.2,0.2-0.4,0.4-0.4s0.4,0.2,0.4,0.4v0.9h0.2V9.7
	c0-0.2,0.2-0.4,0.4-0.4s0.4,0.2,0.4,0.4v0.9C54.2,10.6,54.6,10.6,54.6,10.6z M52.9,3.8c0-0.1,0-0.2,0-0.3l0,0l0,0
	C52.9,3.6,52.9,3.6,52.9,3.8l-0.6,5h1L52.9,3.8z M52.8,10.6H53V9.7c0,0,0-0.1-0.1-0.1s-0.1,0-0.1,0.1C52.8,9.7,52.8,10.6,52.8,10.6z
	 M53.9,9.7v0.9h0.2V9.7C54.1,9.6,54,9.6,53.9,9.7C53.9,9.6,53.9,9.6,53.9,9.7z M51.7,10.6h0.2V9.7c0,0,0-0.1-0.1-0.1s-0.1,0-0.1,0.1
	C51.7,9.7,51.7,10.6,51.7,10.6z M51.9,10.9h-0.7L50,14.4h1.4L51.9,10.9z M52.8,10.9H52l-0.6,3.5h1.4C52.8,14.4,52.8,10.9,52.8,10.9z
	 M53.8,10.9H53v3.5h1.4L53.8,10.9z M54,10.9l0.6,3.5H56l-1.3-3.5H54z M53.8,6.7L53.8,6.7l0.7,2.1h-1l-0.3-4c0.2,0.7,0.4,1.3,0.5,1.7
	L53.8,6.7z M52,6.5v0.2l0,0l-0.7,2.1h1l0.4-4C52.4,5.5,52.2,6.1,52,6.5z M56,14.8h-6.2v1.6H50v-0.9l0,0c0-0.3,0.3-0.6,0.6-0.6
	s0.6,0.3,0.6,0.6l0,0v0.9h0.3v-0.9l0,0c0-0.3,0.3-0.6,0.6-0.6s0.6,0.3,0.6,0.6l0,0v0.9H53v-0.9l0,0c0-0.3,0.3-0.6,0.6-0.6
	s0.6,0.3,0.6,0.6l0,0v0.9h0.3v-0.9l0,0c0-0.3,0.3-0.6,0.6-0.6s0.6,0.3,0.6,0.6l0,0v0.9H56V14.8z M49.9,16.7h-0.5v4.9h0.5V16.7z
	 M56,22.4v-0.5h-6.2v0.5H56z M55.7,22.7h-5.6v6.4h5.6V22.7z M55.7,29.3h-5.6v4.2h5.6V29.3z M55.7,33.7v0.9c-0.2,0.2-0.4,0.3-0.6,0.4
	v-0.7c0-0.1-0.1-0.2-0.2-0.2h-0.6c-0.1,0-0.2,0.1-0.2,0.2v1.4L54,35.8l-0.1,0.1v-1.5c0-0.1-0.1-0.2-0.2-0.2h-0.6
	c-0.1,0-0.2,0.1-0.2,0.2v2.1c-0.1,0-0.2,0.1-0.2,0.1v-2.2c0-0.1-0.1-0.2-0.2-0.2H52c-0.1,0-0.2,0.1-0.2,0.2V37l0,0
	c-0.6,0.3-1.1,0.6-1.7,0.8v-4.2h5.6V33.7z M49.8,39.7v-1.3l0,0c-0.6,0.2-1.2,0.5-1.9,0.7c0,0.2,0,0.4,0,0.6H49.8z M45.5,22.8
	c-0.5-1.2-1-2.3-1.5-3l0,0c-0.8-1.1-1.7-1.5-2.5-1.2l2.9,4.1l0.4-0.6c0.1-0.1,0.2-0.1,0.3,0L45.5,22.8z M40.6,19.2
	c-0.2,0.2-0.3,0.4-0.5,0.6l0,0c-0.1,0.1-0.2,0.3-0.3,0.4l2.2,3.1l0.7-1L40.6,19.2z M44.4,39.7L37,29.4l0,0c-0.1,0.6-0.2,1.3-0.3,1.9
	v0.2l9.3,13h0.8c0.1-0.3,0.2-0.6,0.3-1l-1.9-2.6h-0.7c-0.1,0-0.2-0.1-0.2-0.2v-0.9C44.3,39.8,44.3,39.7,44.4,39.7z M45.8,44.5
	l-9.1-12.8l0,0c0,0.3-0.1,0.6-0.1,0.9L45,44.5H45.8z M43.9,44.5h0.8l-8.1-11.4c0,0.3,0,0.6-0.1,0.9L43.9,44.5z M41.2,44.5h2.2l0,0
	l-7-9.9c-0.1,1-0.1,2.1-0.1,3.1L41.2,44.5z M40.4,44.5H41L36.4,38c0,0.3,0,0.7,0,1L40.4,44.5z M36.5,39.6l3.6,4.9h-2.8
	C36.8,43.1,36.6,41.4,36.5,39.6z M24.8,41.2c-1.3,0.3-2.7,0.5-4.1,0.5l0,0c-1.4,0-2.8-0.2-4.1-0.5l-0.1,0.3c1.3,0.4,2.7,0.5,4.2,0.5
	c1.4,0,2.8-0.2,4.2-0.5L24.8,41.2z M16.7,40.9v0.2l0,0c1.3,0.3,2.6,0.5,4,0.5s2.7-0.2,4.1-0.5v-0.2c-1.3,0.3-2.6,0.5-4,0.5
	C19.3,41.4,18,41.2,16.7,40.9z M24.2,42c-1.1,0.2-2.3,0.4-3.5,0.4l0,0c-1.2,0-2.3-0.1-3.5-0.4l-0.6,2.5h8.2L24.2,42z M24.9,44.5h0.7
	l-0.7-2.7c-0.2,0.1-0.4,0.1-0.6,0.2L24.9,44.5z M25.2,41.4c2.3-0.7,4.5-1.9,6.2-3.5l0,0c0.1-0.1,0.2-0.2,0.1-0.3l0,0l0,0
	c-1.8,1.7-4,2.9-6.4,3.6L25.2,41.4z M31.3,37.3c-0.1,0-0.2,0-0.4,0.1l0,0c-1.7,1.6-3.7,2.7-5.9,3.4V41c2.4-0.7,4.6-1.9,6.4-3.6
	C31.4,37.3,31.4,37.3,31.3,37.3z M23.7,39h0.5L24,38.5C23.8,38.6,23.7,38.8,23.7,39z M24.4,39.7l-0.1-0.5l0,0h-0.5l0,0l0,0
	c0,0.2,0.1,0.3,0.3,0.4C24.1,39.6,24.2,39.7,24.4,39.7z M24.6,39.2l0.1,0.4c0.1-0.1,0.1-0.1,0.2-0.2c0-0.1,0.1-0.1,0.1-0.2H24.6z
	 M24.9,39L24.9,39c-0.1-0.4-0.3-0.5-0.6-0.6l0.2,0.6H24.9z M24,36.9l0.1,0.5l0,0c0.9-0.3,1.8-0.6,2.7-1.1l-0.3-0.5
	C25.7,36.3,24.9,36.7,24,36.9z M20,39.4h0.5v-0.5c-0.1,0-0.2,0.1-0.3,0.2C20.1,39.2,20.1,39.3,20,39.4z M21.1,40
	c0.1-0.1,0.2-0.2,0.2-0.3l0,0h-1.2c0,0.1,0.1,0.2,0.2,0.3s0.3,0.2,0.4,0.2C20.8,40.1,21,40.1,21.1,40z M20.8,38.9v0.5h0.5
	C21.3,39.2,21.1,39,20.8,38.9z M23.4,36.2l-2.6-9.6v9.9C21.7,36.5,22.6,36.4,23.4,36.2z M26.1,35.1l-4.9-8.4l2.5,9.4
	C24.6,35.9,25.3,35.5,26.1,35.1z M21.5,26.5l6.9,6.9c-0.6,0.6-1.3,1.1-2,1.6L21.5,26.5z M21.7,26.2l8.5,4.9c-0.4,0.7-1,1.4-1.6,2
	L21.7,26.2z M31.4,28.5L21.9,26l8.5,4.9C30.8,30.1,31.1,29.3,31.4,28.5z M31.8,25.6H22l9.5,2.5C31.6,27.3,31.8,26.5,31.8,25.6z
	 M31.4,22.7l-9.5,2.5h9.8C31.8,24.4,31.6,23.5,31.4,22.7z M30.4,20l-8.5,5l0,0l9.5-2.5C31.1,21.6,30.8,20.8,30.4,20z M21.7,24.7
	l6.9-6.9c0.6,0.6,1.1,1.3,1.6,2L21.7,24.7z M26.4,15.9l-4.9,8.5l6.9-6.9C27.8,16.9,27.1,16.4,26.4,15.9z M23.7,14.8l-2.6,9.5
	l4.9-8.6C25.3,15.3,24.5,15,23.7,14.8z M20.8,14.3v9.8l2.5-9.5C22.6,14.5,21.7,14.4,20.8,14.3z M18,14.7l2.5,9.4v-9.8
	C19.6,14.4,18.8,14.5,18,14.7z M20.2,24.3l-5-8.6c0.7-0.4,1.5-0.7,2.4-1L20.2,24.3z M12.9,17.5l6.9,6.9L15,15.9
	C14.2,16.4,13.6,16.9,12.9,17.5z M11.1,19.7l8.5,4.9l-6.9-7C12.1,18.3,11.6,19,11.1,19.7z M19.5,25L10,22.4c0.2-0.8,0.6-1.6,1-2.4
	L19.5,25z M9.6,25.3h9.8l-9.5-2.5C9.7,23.5,9.6,24.4,9.6,25.3z M9.9,28.2l9.5-2.5H9.6C9.6,26.5,9.7,27.3,9.9,28.2z M19.5,25.9
	L11,30.8c-0.4-0.7-0.7-1.5-1-2.4L19.5,25.9z M12.7,33.2l6.9-7l-8.5,4.9C11.6,31.9,12.1,32.6,12.7,33.2z M15,35l4.9-8.5L13,33.4
	C13.6,34,14.2,34.5,15,35z M17.6,36.1l2.5-9.5l0,0l-4.9,8.5C16,35.5,16.8,35.9,17.6,36.1z M20.5,36.5v-9.9l-2.6,9.5
	C18.8,36.4,19.6,36.5,20.5,36.5z M23.5,36.4c-0.8,0.2-1.7,0.3-2.6,0.3l0,0V37c0.9,0,1.8-0.1,2.7-0.4L23.5,36.4z M26.2,35.3
	c-0.7,0.4-1.5,0.8-2.4,1l0.1,0.3c0.9-0.2,1.7-0.6,2.5-1L26.2,35.3z M28.5,33.5c-0.6,0.6-1.3,1.1-2.1,1.6l0.2,0.3
	c0.8-0.5,1.5-1,2.1-1.6L28.5,33.5z M30.3,31.2c-0.5,0.8-1,1.4-1.6,2.1l0.2,0.2c0.6-0.6,1.2-1.4,1.6-2.1L30.3,31.2z M31.5,28.5
	c-0.2,0.8-0.6,1.7-1,2.4l0,0l0.3,0.2c0.4-0.8,0.8-1.6,1-2.5L31.5,28.5z M31.6,28.2l0.3,0.1c0.2-0.9,0.3-1.8,0.3-2.7h-0.3
	C31.9,26.5,31.8,27.4,31.6,28.2z M31.6,22.7c0.2,0.8,0.3,1.7,0.3,2.6l0,0h0.3c0-0.9-0.1-1.8-0.3-2.7L31.6,22.7z M31.5,22.4
	c-0.2-0.8-0.6-1.7-1-2.4l0.3-0.2c0.4,0.8,0.8,1.6,1,2.5L31.5,22.4z M28.8,17.6c0.6,0.6,1.1,1.3,1.6,2.1l0.3-0.2
	c-0.5-0.8-1-1.5-1.6-2.1L28.8,17.6z M26.5,15.8c0.8,0.5,1.4,1,2.1,1.6l0.2-0.2c-0.6-0.6-1.4-1.2-2.1-1.6L26.5,15.8z M23.8,14.6
	c0.9,0.2,1.7,0.6,2.4,1l0,0l0.2-0.3c-0.8-0.4-1.6-0.8-2.5-1L23.8,14.6z M20.8,14.2c0.9,0,1.8,0.1,2.6,0.3l0,0l0.1-0.3
	c-0.9-0.2-1.8-0.3-2.7-0.3V14.2z M17.9,14.5c0.8-0.2,1.7-0.3,2.6-0.3l0,0v-0.3c-0.9,0-1.8,0.1-2.7,0.3L17.9,14.5z M15.2,15.6
	c0.8-0.4,1.6-0.8,2.4-1l-0.1-0.3c-0.9,0.2-1.7,0.6-2.5,1L15.2,15.6z M12.8,17.4c0.6-0.6,1.3-1.1,2.1-1.6l-0.2-0.3
	c-0.8,0.5-1.5,1-2.1,1.6L12.8,17.4z M11,19.7c0.4-0.8,1-1.4,1.6-2.1l-0.2-0.2c-0.6,0.6-1.2,1.4-1.6,2.1L11,19.7z M9.8,22.4
	c0.2-0.8,0.6-1.7,1-2.4l0,0l-0.3-0.2c-0.4,0.8-0.8,1.6-1,2.5L9.8,22.4z M9.4,25.3c0-0.9,0.1-1.8,0.3-2.6l-0.3-0.1
	c-0.2,0.9-0.3,1.8-0.3,2.7H9.4z M9.7,28.2c-0.2-0.8-0.3-1.7-0.3-2.6H9.1c0,0.9,0.1,1.8,0.3,2.7L9.7,28.2z M10.8,30.9
	c-0.4-0.8-0.8-1.6-1-2.4l-0.3,0.1c0.2,0.9,0.6,1.7,1,2.5L10.8,30.9z M12.6,33.3C12,32.7,11.5,32,11,31.2l-0.3,0.2
	c0.5,0.8,1,1.5,1.6,2.1L12.6,33.3z M14.9,35.1c-0.8-0.5-1.4-1-2.1-1.6l-0.2,0.2c0.6,0.6,1.4,1.2,2.1,1.6L14.9,35.1z M17.6,36.3
	c-0.8-0.2-1.6-0.6-2.4-1L15,35.6c0.8,0.4,1.6,0.8,2.5,1L17.6,36.3z M20.5,36.7c-0.9,0-1.8-0.1-2.6-0.3l-0.1,0.3
	c0.9,0.2,1.8,0.3,2.7,0.4V36.7z M20.5,37.9v-0.5c-1,0-1.9-0.1-2.8-0.4l-0.1,0.5C18.5,37.8,19.5,37.9,20.5,37.9z M23.6,37
	c-0.9,0.2-1.8,0.4-2.8,0.4l0,0v0.5c1,0,2-0.1,2.9-0.4L23.6,37z M26.8,35.7l0.3,0.5c0.8-0.5,1.6-1.1,2.3-1.8L29,34
	C28.3,34.6,27.6,35.2,26.8,35.7z M30,35.3h0.3l-0.2-0.2C30,35.1,30,35.2,30,35.3z M30.2,35.8c0.1,0.1,0.3,0.2,0.4,0.2l0,0
	c0.2,0,0.3-0.1,0.4-0.2c0.1-0.1,0.2-0.2,0.2-0.4h-0.7l0,0l0,0H30C30,35.6,30.1,35.7,30.2,35.8z M31.1,34.9c-0.1-0.1-0.3-0.2-0.4-0.2
	s-0.2,0-0.3,0.1l0.4,0.4l0,0h0.5C31.2,35.2,31.2,35,31.1,34.9z M29.2,33.8l0.4,0.4c0.7-0.7,1.3-1.5,1.8-2.3l-0.5-0.3
	C30.4,32.3,29.9,33.1,29.2,33.8z M31.1,31.3l0.5,0.3l0,0c0.5-0.8,0.9-1.8,1.1-2.7l-0.5-0.1C31.9,29.6,31.5,30.5,31.1,31.3z
	 M32.2,28.4l0.5,0.1c0.2-0.9,0.4-1.9,0.4-2.9h-0.5C32.6,26.6,32.5,27.5,32.2,28.4z M34.1,25.6c0.1,0.3,0.3,0.5,0.6,0.5
	s0.6-0.3,0.6-0.6h-0.6v0.1H34.1z M35.4,25.3c-0.1-0.3-0.3-0.5-0.6-0.5l0,0c-0.3,0-0.5,0.2-0.6,0.5h0.6v0.1h0.6V25.3z M32.6,25.3h0.5
	c0-1-0.1-2-0.4-2.9l-0.5,0.1C32.5,23.4,32.6,24.3,32.6,25.3z M32.2,22.2l0.5-0.1l0,0c-0.3-1-0.6-1.9-1.1-2.7l-0.5,0.3
	C31.5,20.4,31.9,21.3,32.2,22.2z M30.9,19.3l0.5-0.3c-0.5-0.8-1.1-1.6-1.8-2.3l-0.4,0.4C29.9,17.8,30.4,18.5,30.9,19.3z M30.3,16
	l0.4-0.4l0,0h0.5c0,0.1-0.1,0.2-0.2,0.3C30.9,16.1,30.6,16.2,30.3,16z M31.1,15c-0.1-0.1-0.3-0.2-0.4-0.2c-0.2,0-0.3,0.1-0.4,0.2
	c-0.1,0.1-0.2,0.2-0.2,0.4h0.5l0.1-0.1l0.1,0.1h0.7C31.2,15.3,31.2,15.2,31.1,15z M30.3,15.6H30c0,0.1,0,0.1,0.1,0.2L30.3,15.6z
	 M29,16.9l0.4-0.4c-0.7-0.7-1.5-1.3-2.3-1.8l-0.3,0.5C27.6,15.7,28.3,16.2,29,16.9z M26.5,15l0.3-0.5l0,0C26,14,25,13.6,24.1,13.4
	L23.9,14C24.8,14.2,25.7,14.6,26.5,15z M23.6,13.9l0.1-0.5l0,0c-0.9-0.2-1.9-0.4-2.9-0.4v0.5C21.8,13.5,22.7,13.7,23.6,13.9z
	 M20.8,11.5V12c0.2-0.1,0.4-0.3,0.5-0.5H20.8z M21.3,11.3c0-0.3-0.3-0.5-0.6-0.5l0,0c-0.2,0-0.3,0.1-0.4,0.2
	c-0.1,0.1-0.2,0.2-0.2,0.4L21.3,11.3L21.3,11.3z M20.5,11.5H20c0,0.3,0.2,0.5,0.5,0.5V11.5z M20.5,13.5V13c-1,0-2,0.1-2.9,0.4
	l0.1,0.5C18.6,13.7,19.6,13.5,20.5,13.5z M17.4,14l-0.1-0.5c-1,0.3-1.9,0.6-2.7,1.1l0.3,0.5C15.7,14.6,16.5,14.2,17.4,14z
	 M14.6,15.2l-0.3-0.5c-0.8,0.5-1.6,1.1-2.3,1.8l0.4,0.4C13,16.2,13.8,15.7,14.6,15.2z M11.3,15.6H11l0.2,0.2
	C11.3,15.7,11.3,15.7,11.3,15.6z M10.7,14.9c-0.2,0-0.3,0.1-0.4,0.2l0,0c-0.1,0.1-0.2,0.2-0.2,0.4h0.7l0.1-0.1l0.1,0.1h0.5
	c0-0.1-0.1-0.3-0.2-0.4C11.1,14.9,10.9,14.9,10.7,14.9z M10.3,15.9c0.1,0.1,0.3,0.2,0.4,0.2l0,0c0.1,0,0.2,0,0.3-0.1l-0.4-0.4l0,0
	h-0.5C10.1,15.7,10.2,15.8,10.3,15.9z M12.1,17.1l-0.4-0.4c-0.7,0.7-1.3,1.5-1.8,2.3l0.5,0.3C10.9,18.5,11.5,17.8,12.1,17.1z
	 M10.3,19.6l-0.5-0.3l0,0c-0.5,0.8-0.9,1.8-1.1,2.7l0.5,0.1C9.5,21.3,9.8,20.4,10.3,19.6z M9.1,22.5l-0.5-0.1
	c-0.2,0.9-0.4,1.9-0.4,2.9h0.5C8.8,24.3,8.9,23.4,9.1,22.5z M7.2,25.3c-0.1-0.3-0.3-0.5-0.6-0.5l0,0C6.3,24.8,6,25,6,25.3h0.6v-0.1
	h0.6V25.3z M6,25.5c0,0.3,0.3,0.6,0.6,0.6c0.3,0,0.5-0.2,0.6-0.5H6.6v-0.1H6z M8.8,25.6H8.2c0,1,0.1,2,0.4,2.9l0.5-0.1
	C8.9,27.5,8.8,26.6,8.8,25.6z M9.2,28.7l-0.5,0.1l0,0c0.3,1,0.6,1.9,1.1,2.7l0.5-0.3C9.8,30.5,9.5,29.6,9.2,28.7z M10.4,31.5
	L10,31.8c0.5,0.8,1.1,1.6,1.8,2.3l0.4-0.4C11.5,33.1,10.9,32.3,10.4,31.5z M11,34.8c-0.1-0.1-0.2-0.1-0.3-0.1l0,0
	c-0.2,0-0.3,0.1-0.4,0.2c-0.1,0.1-0.2,0.2-0.2,0.4h0.5l0,0L11,34.8z M10.3,35.8c0.1,0.1,0.3,0.2,0.4,0.2l0,0c0.2,0,0.3-0.1,0.4-0.2
	c0.1-0.1,0.2-0.2,0.2-0.4h-0.5l0,0l0,0h-0.7C10.1,35.6,10.2,35.7,10.3,35.8z M11,35.3h0.3c0-0.1,0-0.2-0.1-0.2L11,35.3z M12.4,34
	L12,34.4c0.7,0.7,1.5,1.3,2.3,1.8l0.3-0.5C13.8,35.2,13,34.6,12.4,34z M14.9,35.8l-0.3,0.5l0,0c0.8,0.5,1.7,0.8,2.7,1.1l0.1-0.5
	C16.5,36.7,15.7,36.3,14.9,35.8z M17.6,39.2h-0.5L17,39.7C17.3,39.7,17.6,39.5,17.6,39.2L17.6,39.2z M17.3,38.5L17.2,39h0.5
	C17.6,38.8,17.5,38.6,17.3,38.5z M17,38.4c-0.3,0-0.5,0.2-0.6,0.5l0,0V39h0.4L17,38.4z M16.4,39.2c0,0.1,0,0.1,0.1,0.2l0,0
	c0.1,0.1,0.1,0.2,0.2,0.2l0.1-0.4H16.4z M16.9,40H17c0.4,0,0.8-0.3,0.9-0.7c0.1-0.5-0.1-0.9-0.5-1.1l0.1-0.3c1,0.2,2,0.4,3,0.4v0.3
	c-0.2,0-0.4,0.1-0.5,0.3c-0.2,0.2-0.3,0.4-0.3,0.7s0.1,0.5,0.3,0.7c0.2,0.2,0.4,0.3,0.7,0.3l0,0c0.3,0,0.5-0.1,0.7-0.3
	s0.3-0.4,0.3-0.7c0-0.5-0.3-0.9-0.8-0.9v-0.3c1,0,2.1-0.1,3-0.4l0.1,0.3c-0.4,0.2-0.7,0.7-0.6,1.1c0.1,0.2,0.2,0.5,0.4,0.6
	c0.1,0.1,0.3,0.1,0.5,0.1h0.1l0.2,0.6c-1.3,0.3-2.6,0.5-3.9,0.5s-2.6-0.2-3.9-0.5L16.9,40z M16.4,40.8c-2.2-0.6-4.2-1.8-5.9-3.4l0,0
	c-0.2-0.2-0.5-0.2-0.6-0.1c0,0,0,0.1-0.1,0.1l0.1-0.1c1.8,1.7,4,2.9,6.4,3.6L16.4,40.8z M9.8,37.5c0,0.1,0,0.2,0.2,0.4
	c1.8,1.7,3.9,2.9,6.3,3.5l0.1-0.3C13.9,40.4,11.6,39.2,9.8,37.5z M17,42c-0.2,0-0.4-0.1-0.6-0.1l0,0l-0.7,2.7h0.7L17,42z M50.2,40.9
	v3.6h5.6v-3.6h-0.6v0.5c0,0.1-0.1,0.2-0.2,0.2h-0.6c-0.1,0-0.2-0.1-0.2-0.2v-0.5H54v0.5c0,0.1-0.1,0.2-0.2,0.2h-0.6
	c-0.1,0-0.2-0.1-0.2-0.2v-0.5h-0.2v0.5c0,0.1-0.1,0.2-0.2,0.2H52c-0.1,0-0.2-0.1-0.2-0.2v-0.5h-0.2v0.5c0,0.1-0.1,0.2-0.2,0.2h-0.6
	c-0.1,0-0.2-0.1-0.2-0.2v-0.5H50.2z M64.1,43.8v0.6h6.6v-0.6H64.1z M72.3,39.4c-1,0.6-1.5,1-1.6,1.2h-0.1V40L72.3,39.4z M70,40.5
	h0.2v-3.6H70V40.5z M70,36.6h0.2v-4.3H70V36.6z M70,32h0.2v-4.3H70V32z M70,23.1v4.3h0.2v-4.3C70.2,23.1,70,23.1,70,23.1z
	 M70.6,25.1v0.2h12.3v-0.2H70.6z M83.2,23.1v1.8v2.5h0.2v-4.3C83.4,23.1,83.2,23.1,83.2,23.1z M83.4,27.7h-0.2V32h0.2V27.7z
	 M83.4,32.3h-0.2v4.3h0.2V32.3z M83.4,40.5v-3.6h-0.2v3.6H83.4z M82.9,40.5V40l0,0l-1.8-0.7c1,0.6,1.5,1,1.6,1.2H82.9z M89.2,43.8
	h-6.6v0.6h6.6V43.8z"/>
</svg>
