<?xml version="1.0" encoding="utf-8"?>
<!-- Generator: Adobe Illustrator 26.0.1, SVG Export Plug-In . SVG Version: 6.00 Build 0)  -->
<svg version="1.1" id="Group_105134" xmlns="http://www.w3.org/2000/svg" xmlns:xlink="http://www.w3.org/1999/xlink" x="0px"
	 y="0px" viewBox="0 0 123.5 81.6" style="enable-background:new 0 0 123.5 81.6;" xml:space="preserve">
<style type="text/css">
	.st0{fill:#FFFFFF;}
</style>
<path id="Path_75390" class="st0" d="M109.9,78.4h-0.7v-7.1h-2.9V70h-6.9V28.8h9.5v0.7h-8.8v39.9h6.9v1.3h2.9V78.4z"/>
<rect id="Rectangle_44591" x="108.6" y="17.7" class="st0" width="8.1" height="0.6"/>
<path id="Path_75391" class="st0" d="M97.6,70.7v-1.3h6V70h-5.4v1.3h-2.9v7.1h-0.6v-7.7L97.6,70.7z"/>
<rect id="Rectangle_44592" x="116.1" y="17.9" class="st0" width="0.7" height="60.5"/>
<rect id="Rectangle_44593" x="108.6" y="17.9" class="st0" width="0.7" height="51.1"/>
<path id="Path_75392" class="st0" d="M121.7,57.9H121V47.2l-0.5-0.5v-1.5h-1.4v-1.5l-3-3l0.5-0.5l3.2,3.2v1.1h1.4v1.9l0.5,0.5V57.9z
	"/>
<path id="Path_75393" class="st0" d="M119.1,30.5v2.1h-2.7v0.7h3.3v-2.1h1.3v2.1h1.8v45.2h0.6V32.6h-1.8v-2.1
	C121.6,30.5,119.1,30.5,119.1,30.5z"/>
<rect id="Rectangle_44594" x="99.5" y="71" class="st0" width="5.7" height="0.4"/>
<rect id="Rectangle_44595" x="96.9" y="72.5" class="st0" width="11.1" height="0.4"/>
<rect id="Rectangle_44596" x="96.9" y="73.9" class="st0" width="11.1" height="0.4"/>
<rect id="Rectangle_44597" x="96.9" y="75.4" class="st0" width="11.1" height="0.4"/>
<rect id="Rectangle_44598" x="96.9" y="76.8" class="st0" width="11.1" height="0.4"/>
<rect id="Rectangle_44599" x="101.7" y="30.8" class="st0" width="0.4" height="37.9"/>
<rect id="Rectangle_44600" x="103" y="30.8" class="st0" width="0.4" height="37.9"/>
<rect id="Rectangle_44601" x="104.3" y="30.8" class="st0" width="0.4" height="37.9"/>
<rect id="Rectangle_44602" x="105.6" y="30.8" class="st0" width="0.4" height="37.9"/>
<rect id="Rectangle_44603" x="106.9" y="30.8" class="st0" width="0.4" height="37.9"/>
<rect id="Rectangle_44604" x="110.7" y="19.9" class="st0" width="0.6" height="1.4"/>
<rect id="Rectangle_44605" x="112.1" y="19.9" class="st0" width="0.6" height="1.4"/>
<rect id="Rectangle_44606" x="110.7" y="22.8" class="st0" width="0.6" height="1.4"/>
<rect id="Rectangle_44607" x="112.1" y="22.8" class="st0" width="0.6" height="1.4"/>
<rect id="Rectangle_44608" x="110.7" y="25.6" class="st0" width="0.6" height="1.4"/>
<rect id="Rectangle_44609" x="112.1" y="25.6" class="st0" width="0.6" height="1.4"/>
<rect id="Rectangle_44610" x="110.7" y="28.4" class="st0" width="0.6" height="1.4"/>
<rect id="Rectangle_44611" x="112.1" y="28.4" class="st0" width="0.6" height="1.4"/>
<rect id="Rectangle_44612" x="110.7" y="31.3" class="st0" width="0.6" height="1.4"/>
<rect id="Rectangle_44613" x="112.1" y="31.3" class="st0" width="0.6" height="1.4"/>
<rect id="Rectangle_44614" x="110.7" y="34.1" class="st0" width="0.6" height="1.4"/>
<rect id="Rectangle_44615" x="112.1" y="34.1" class="st0" width="0.6" height="1.4"/>
<rect id="Rectangle_44616" x="110.7" y="36.9" class="st0" width="0.6" height="1.4"/>
<rect id="Rectangle_44617" x="112.1" y="36.9" class="st0" width="0.6" height="1.4"/>
<rect id="Rectangle_44618" x="110.7" y="39.8" class="st0" width="0.6" height="1.4"/>
<rect id="Rectangle_44619" x="112.1" y="39.8" class="st0" width="0.6" height="1.4"/>
<rect id="Rectangle_44620" x="110.7" y="42.6" class="st0" width="0.6" height="1.4"/>
<rect id="Rectangle_44621" x="112.1" y="42.6" class="st0" width="0.6" height="1.4"/>
<rect id="Rectangle_44622" x="110.7" y="45.4" class="st0" width="0.6" height="1.4"/>
<rect id="Rectangle_44623" x="112.1" y="45.4" class="st0" width="0.6" height="1.4"/>
<rect id="Rectangle_44624" x="110.7" y="48.2" class="st0" width="0.6" height="1.4"/>
<rect id="Rectangle_44625" x="112.1" y="48.2" class="st0" width="0.6" height="1.4"/>
<rect id="Rectangle_44626" x="110.7" y="51.1" class="st0" width="0.6" height="1.4"/>
<rect id="Rectangle_44627" x="112.1" y="51.1" class="st0" width="0.6" height="1.4"/>
<rect id="Rectangle_44628" x="110.7" y="53.9" class="st0" width="0.6" height="1.4"/>
<rect id="Rectangle_44629" x="112.1" y="53.9" class="st0" width="0.6" height="1.4"/>
<rect id="Rectangle_44630" x="110.7" y="56.7" class="st0" width="0.6" height="1.4"/>
<rect id="Rectangle_44631" x="112.1" y="56.7" class="st0" width="0.6" height="1.4"/>
<rect id="Rectangle_44632" x="110.7" y="59.6" class="st0" width="0.6" height="1.4"/>
<rect id="Rectangle_44633" x="112.1" y="59.6" class="st0" width="0.6" height="1.4"/>
<rect id="Rectangle_44634" x="110.7" y="62.4" class="st0" width="0.6" height="1.4"/>
<rect id="Rectangle_44635" x="112.1" y="62.4" class="st0" width="0.6" height="1.4"/>
<rect id="Rectangle_44636" x="110.7" y="65.2" class="st0" width="0.6" height="1.4"/>
<rect id="Rectangle_44637" x="112.1" y="65.2" class="st0" width="0.6" height="1.4"/>
<rect id="Rectangle_44638" x="110.7" y="68" class="st0" width="0.6" height="1.4"/>
<rect id="Rectangle_44639" x="112.1" y="68" class="st0" width="0.6" height="1.4"/>
<rect id="Rectangle_44640" x="110.7" y="70.9" class="st0" width="0.6" height="1.4"/>
<rect id="Rectangle_44641" x="112.1" y="70.9" class="st0" width="0.6" height="1.4"/>
<rect id="Rectangle_44642" x="110.7" y="73.7" class="st0" width="0.6" height="1.4"/>
<rect id="Rectangle_44643" x="112.1" y="73.7" class="st0" width="0.6" height="1.4"/>
<rect id="Rectangle_44644" x="110.7" y="76.5" class="st0" width="0.6" height="1.4"/>
<rect id="Rectangle_44645" x="112.1" y="76.5" class="st0" width="0.6" height="1.4"/>
<rect id="Rectangle_44646" x="117.5" y="34.3" class="st0" width="4.4" height="0.5"/>
<rect id="Rectangle_44647" x="117.5" y="35.5" class="st0" width="4.4" height="0.5"/>
<rect id="Rectangle_44648" x="117.5" y="36.8" class="st0" width="4.4" height="0.5"/>
<rect id="Rectangle_44649" x="117.5" y="38.1" class="st0" width="4.4" height="0.5"/>
<rect id="Rectangle_44650" x="117.5" y="39.3" class="st0" width="4.4" height="0.5"/>
<rect id="Rectangle_44651" x="120.2" y="40.6" class="st0" width="1.7" height="0.5"/>
<rect id="Rectangle_44652" x="120.2" y="41.9" class="st0" width="1.7" height="0.5"/>
<rect id="Rectangle_44653" x="117.7" y="46.3" class="st0" width="0.5" height="0.9"/>
<rect id="Rectangle_44654" x="117.7" y="50.3" class="st0" width="0.5" height="0.9"/>
<rect id="Rectangle_44655" x="117.7" y="52.2" class="st0" width="0.5" height="0.9"/>
<rect id="Rectangle_44656" x="117.7" y="54.2" class="st0" width="0.5" height="0.9"/>
<rect id="Rectangle_44657" x="117.7" y="58.2" class="st0" width="0.5" height="0.9"/>
<rect id="Rectangle_44658" x="117.7" y="60.2" class="st0" width="0.5" height="0.9"/>
<rect id="Rectangle_44659" x="117.7" y="62.2" class="st0" width="0.5" height="0.9"/>
<rect id="Rectangle_44660" x="117.7" y="66.2" class="st0" width="0.5" height="0.9"/>
<rect id="Rectangle_44661" x="117.7" y="68.2" class="st0" width="0.5" height="0.9"/>
<rect id="Rectangle_44662" x="117.7" y="70.2" class="st0" width="0.5" height="0.9"/>
<rect id="Rectangle_44663" x="117.7" y="74.2" class="st0" width="0.5" height="0.9"/>
<rect id="Rectangle_44664" x="117.7" y="76.2" class="st0" width="0.5" height="0.9"/>
<rect id="Rectangle_44665" x="118.9" y="46.3" class="st0" width="0.5" height="0.9"/>
<rect id="Rectangle_44666" x="118.9" y="48.3" class="st0" width="0.5" height="0.9"/>
<rect id="Rectangle_44667" x="118.9" y="50.3" class="st0" width="0.5" height="0.9"/>
<rect id="Rectangle_44668" x="118.9" y="54.2" class="st0" width="0.5" height="0.9"/>
<rect id="Rectangle_44669" x="118.9" y="56.2" class="st0" width="0.5" height="0.9"/>
<rect id="Rectangle_44670" x="118.9" y="58.2" class="st0" width="0.5" height="0.9"/>
<rect id="Rectangle_44671" x="118.9" y="62.2" class="st0" width="0.5" height="0.9"/>
<rect id="Rectangle_44672" x="118.9" y="64.2" class="st0" width="0.5" height="0.9"/>
<rect id="Rectangle_44673" x="118.9" y="66.2" class="st0" width="0.5" height="0.9"/>
<rect id="Rectangle_44674" x="118.9" y="70.2" class="st0" width="0.5" height="0.9"/>
<rect id="Rectangle_44675" x="118.9" y="72.2" class="st0" width="0.5" height="0.9"/>
<rect id="Rectangle_44676" x="118.9" y="74.2" class="st0" width="0.5" height="0.9"/>
<g id="Group_105132">
	<path id="Path_75394" class="st0" d="M55.2,32.1l1.7-9.2l1.7,9.2l0.3-1.7v-0.1l-1.6-8.7l-0.4-0.3l-0.4,0.3l-1.6,8.7v0.1L55.2,32.1z
		"/>
	<path id="Path_75395" class="st0" d="M64,51.3h-1v0.3c0,0.2-0.1,0.3-0.3,0.3l0,0h-1.4l0,0h2v0.5h-0.2V53H64V51.3z"/>
	<path id="Path_75396" class="st0" d="M50.5,52.4h-0.2v-0.5h2l0,0H51c-0.2,0-0.3-0.1-0.3-0.3v-0.3h-1V53h0.8V52.4z"/>
	<path id="Path_75397" class="st0" d="M51.1,78.8V53h1.2v-0.6h-1.9v26.4H51.1z"/>
	<path id="Path_75398" class="st0" d="M62.6,78.8h0.6V52.4h-1.9V53h1.2L62.6,78.8z"/>
	<rect id="Rectangle_44677" x="60.8" y="66.4" class="st0" width="0.6" height="12.4"/>
	<rect id="Rectangle_44678" x="52.3" y="66.4" class="st0" width="0.6" height="12.4"/>
	<path id="Path_75399" class="st0" d="M58.1,67.1h-2.4v4.1h2.4V67.1z M57.4,70.6h-1.2v-2.9h1.2V70.6z"/>
	<path id="Path_75400" class="st0" d="M61.4,64.9h-0.6v0.9H53v-0.9h-0.6v1.5h9.1L61.4,64.9L61.4,64.9z"/>
	<path id="Path_75401" class="st0" d="M60.8,58.9v5.3H53v-5.3h-0.6v5.9h9.1v-5.9H60.8z"/>
	<path id="Path_75402" class="st0" d="M52.3,58.9h9.1v-1.5h-0.6v0.9H53v-0.9h-0.6L52.3,58.9L52.3,58.9z"/>
	<path id="Path_75403" class="st0" d="M59.8,39.1v10.6c0.2,0.1,0.4,0.3,0.6,0.5V39.1H59.8z"/>
	<path id="Path_75404" class="st0" d="M53.8,49.7V39.1h-0.6v11.1C53.4,50,53.6,49.8,53.8,49.7"/>
	<path id="Path_75405" class="st0" d="M57.9,37.5c0,0.2-0.1,0.3-0.3,0.3l0,0h0.8c-0.2,0-0.3-0.1-0.3-0.3l0,0v-0.3h-0.2V37.5z"/>
	<path id="Path_75406" class="st0" d="M53.8,39.1h7.3v-1.9h-1v0.3c0,0.2-0.1,0.3-0.3,0.3l0,0h0.6v0.7h-7.3v-0.7h0.6
		c-0.2,0-0.3-0.1-0.3-0.3v-0.3h-1v1.9H53.8L53.8,39.1z"/>
	<path id="Path_75407" class="st0" d="M55.8,37.5v-0.3h-0.2v0.3c0,0.2-0.1,0.3-0.3,0.3h0.8C55.9,37.8,55.8,37.6,55.8,37.5"/>
	<path id="Path_75408" class="st0" d="M52.7,51.6c0,0.2-0.1,0.3-0.3,0.3h-0.1l0,0c0,0.1,0,0.3,0,0.4v5.1h9.1v-5.1c0-0.1,0-0.3,0-0.4
		l0,0h-0.1c-0.2,0-0.3-0.1-0.3-0.3l0,0v-0.8c-0.3-0.4-0.7-0.8-1.1-1.1c-0.3-0.2-0.7-0.3-1.1-0.3c-0.5,0-0.9-0.7-1.1-1.3H57
		c0.2,0.5,0.7,1.8,1.7,1.9c1.2,0.1,2,1.1,2,2.3v4.5h-7.8v-4.5c0-1.2,0.9-2.2,2-2.3c1-0.1,1.6-1.3,1.7-1.9H56
		c-0.2,0.5-0.6,1.2-1.1,1.3c-0.4,0-0.7,0.1-1.1,0.3c-0.5,0.3-0.8,0.6-1.1,1.1L52.7,51.6z"/>
	<path id="Path_75409" class="st0" d="M55.6,52v2.7h2.5V52c0-0.6-0.6-1.1-1.2-1.1l0,0C56.2,50.8,55.7,51.3,55.6,52
		C55.6,51.9,55.6,52,55.6,52 M57.5,52v2.1h-1.2V52c0-0.1,0-0.5,0.6-0.5C57.4,51.5,57.4,51.9,57.5,52"/>
	<path id="Path_75410" class="st0" d="M61,51.6c0,0.2,0.1,0.3,0.3,0.3l0,0h1.5c0.2,0,0.3-0.1,0.3-0.3l0,0v-3c0-0.1,0-0.2-0.1-0.2
		v0.2c0,0.2-0.1,0.3-0.3,0.4l0,0h-0.2v2.4h-0.8V49h-0.2c-0.2,0-0.3-0.1-0.3-0.3l0,0v-0.2c-0.2-0.1-0.2-0.1-0.2,0V51.6L61,51.6z"/>
	<path id="Path_75411" class="st0" d="M61.1,48.7c0.1,0.1,0.1,0.1,0.2,0.1h1.3c0.2,0,0.3-0.1,0.3-0.3l0,0v-0.2l-0.6-3.7
		c0-0.2-0.2-0.3-0.4-0.3c-0.1,0-0.2,0.1-0.3,0.3L61,48.3v0.2C61,48.6,61,48.7,61.1,48.7 M62,46.5l0.3,1.7h-0.6L62,46.5z"/>
	<path id="Path_75412" class="st0" d="M51,51.9h1.5c0.2,0,0.3-0.1,0.3-0.3v-3c0-0.1,0-0.2-0.1-0.2v0.2c0,0.2-0.1,0.3-0.3,0.4l0,0
		h-0.2v2.4h-0.8V49H51c-0.2,0-0.3-0.1-0.3-0.3c0,0,0,0,0-0.1v-0.2c-0.1,0.1-0.1,0.1-0.1,0.2v3C50.7,51.8,50.8,51.9,51,51.9"/>
	<path id="Path_75413" class="st0" d="M50.8,48.7c0.1,0.1,0.1,0.1,0.2,0.1h1.3c0.2,0,0.3-0.1,0.3-0.3l0,0v-0.2L52,44.6
		c0-0.2-0.2-0.3-0.4-0.3c-0.1,0-0.2,0.1-0.3,0.3l-0.6,3.7v0.2C50.7,48.6,50.7,48.7,50.8,48.7 M51.7,46.5l0.3,1.7h-0.6L51.7,46.5z"/>
	<path id="Path_75414" class="st0" d="M58.3,47.8c-0.1-0.8-0.9-1.4-1.8-1.2c-0.6,0.1-1.1,0.6-1.2,1.2c0,0.2,0.1,0.3,0.3,0.3H58
		C58.2,48.1,58.4,48,58.3,47.8C58.4,47.8,58.4,47.8,58.3,47.8 M56.1,47.5c0.4-0.4,1.1-0.5,1.5-0.1c0,0,0,0,0.1,0.1H56.1z"/>
	<path id="Path_75415" class="st0" d="M56.8,40.6c-1.4,0-2.6,1.2-2.6,2.6s1.2,2.6,2.6,2.6s2.6-1.2,2.6-2.6
		C59.5,41.8,58.3,40.6,56.8,40.6 M56.8,45.2c-1.1,0-2-0.9-2-2s0.9-2,2-2s2,0.9,2,2S57.9,45.2,56.8,45.2"/>
	<path id="Path_75416" class="st0" d="M53.8,37.8h1.5c0.2,0,0.3-0.1,0.3-0.3v-3c0-0.1,0-0.2-0.1-0.2v0.2c0,0.2-0.1,0.3-0.3,0.4l0,0
		H55v2.4h-0.8v-2.4H54c-0.2,0-0.3-0.1-0.3-0.3l0,0v-0.2c-0.1,0.1-0.1,0.1-0.1,0.2v3C53.5,37.6,53.7,37.8,53.8,37.8"/>
	<path id="Path_75417" class="st0" d="M53.7,34.6c0.1,0.1,0.1,0.1,0.2,0.1h1.3c0.2,0,0.3-0.1,0.3-0.3l0,0v-0.2l-0.3-2.1l-0.3-1.7
		v-0.1c-0.1-0.2-0.3-0.2-0.4-0.1c-0.1,0-0.1,0.1-0.2,0.2l-0.6,3.7v0.2C53.6,34.4,53.6,34.5,53.7,34.6 M54.9,34.1h-0.6l0.3-1.7
		L54.9,34.1z"/>
	<path id="Path_75418" class="st0" d="M57.9,37.4v-3c0-0.1,0-0.2-0.1-0.2v0.2c0,0.2-0.1,0.3-0.3,0.4l0,0h-0.2v2.4h-0.8v-2.4h-0.2
		c-0.2,0-0.3-0.1-0.3-0.3l0,0v-0.2c-0.1,0.1-0.1,0.1-0.1,0.2v3c0,0.2,0.1,0.3,0.3,0.3l0,0h1.5C57.8,37.8,57.9,37.6,57.9,37.4
		L57.9,37.4"/>
	<path id="Path_75419" class="st0" d="M56,34.6c0.1,0.1,0.1,0.1,0.2,0.1h1.3c0.2,0,0.3-0.1,0.3-0.3l0,0v-0.2l-0.6-3.7
		c0-0.2-0.2-0.3-0.4-0.3c-0.1,0-0.2,0.1-0.3,0.3l-0.6,3.7v0.2C55.9,34.4,55.9,34.5,56,34.6 M56.8,32.4l0.3,1.7h-0.6L56.8,32.4z"/>
	<path id="Path_75420" class="st0" d="M60,34.6c-0.1,0.1-0.1,0.1-0.2,0.1h-0.2v2.4h-0.8v-2.4h-0.2c-0.2,0-0.3-0.1-0.3-0.3l0,0v-0.2
		c-0.1,0.1-0.1,0.1-0.1,0.2v3c0,0.2,0.1,0.3,0.3,0.3l0,0H60c0.2,0,0.3-0.1,0.3-0.3l0,0v-3c0-0.1,0-0.2-0.1-0.2v0.2
		C60.1,34.4,60.1,34.5,60,34.6"/>
	<path id="Path_75421" class="st0" d="M58.5,32.1l-0.3,2.1v0.2c0,0.2,0.1,0.3,0.3,0.4l0,0h1.3c0.2,0,0.3-0.1,0.3-0.3l0,0v-0.2
		l-0.6-3.7c0-0.2-0.2-0.3-0.4-0.3c-0.1,0-0.2,0.1-0.2,0.2v0.1L58.5,32.1z M59.4,34.1h-0.6l0.3-1.7L59.4,34.1z"/>
	<path id="Path_75422" class="st0" d="M56.8,21.4l0.4,0.3l1.7,1.2l-0.8-2.4l2.1-1.5h-2.5l-0.8-2.4L56.1,19h-2.5l2.1,1.5l-0.8,2.4
		l1.7-1.2L56.8,21.4z M55.4,19.6h1.1l0.3-1l0.3,1h1.1l-0.9,0.6l0.3,1l-0.9-0.6L56,21.3l0.3-1L55.4,19.6z"/>
	<rect id="Rectangle_44679" x="43.2" y="47.2" class="st0" width="0.5" height="1.5"/>
	<rect id="Rectangle_44680" x="43.2" y="47.2" class="st0" width="0.5" height="1.5"/>
	<rect id="Rectangle_44681" x="4.5" y="47.2" class="st0" width="0.5" height="1.5"/>
	<rect id="Rectangle_44682" x="4.5" y="47.2" class="st0" width="0.5" height="1.5"/>
	<path id="Path_75423" class="st0" d="M5,47.2h11.5v-0.5H4.1v-0.4h11.7v-0.5H3.6v1.5L5,47.2L5,47.2z"/>
	<path id="Path_75424" class="st0" d="M5,47.2h11.5v-0.5H4.1v-0.4h11.7v-0.5H3.6v1.5L5,47.2L5,47.2z"/>
	<path id="Path_75425" class="st0" d="M32.4,46.2h11.7v0.4H31.6v0.5h12.9v-1.5H32.4V46.2z"/>
	<path id="Path_75426" class="st0" d="M32.4,46.2h11.7v0.4H31.6v0.5h12.9v-1.5H32.4V46.2z"/>
	<path id="Path_75427" class="st0" d="M45.7,54.7L46,77h0.5l-0.3-22.2L45.7,54.7L45.7,54.7z"/>
	<path id="Path_75428" class="st0" d="M45.7,54.7L46,77h0.5l-0.3-22.2L45.7,54.7L45.7,54.7z"/>
	<path id="Path_75429" class="st0" d="M44,77l0.3-22.2h-0.5L43.5,77H44z"/>
	<path id="Path_75430" class="st0" d="M44,77l0.3-22.2h-0.5L43.5,77H44z"/>
	<path id="Path_75431" class="st0" d="M46,77h-3.4v1.8h4.8V77C47.4,77,46,77,46,77z M46.9,77.5v0.8h-3.7v-0.8H46.9L46.9,77.5z"/>
	<path id="Path_75432" class="st0" d="M46,77h-3.4v1.8h4.8V77C47.4,77,46,77,46,77z M46.9,77.5v0.8h-3.7v-0.8H46.9L46.9,77.5z"/>
	<path id="Path_75433" class="st0" d="M44.3,54.7H47v-0.9h-0.5v0.4h-3v-0.4H43v0.9H44.3z"/>
	<path id="Path_75434" class="st0" d="M44.3,54.7H47v-0.9h-0.5v0.4h-3v-0.4H43v0.9H44.3z"/>
	<path id="Path_75435" class="st0" d="M35.6,77l0.3-22.2h-0.5L35.1,77H35.6z"/>
	<path id="Path_75436" class="st0" d="M35.6,77l0.3-22.2h-0.5L35.1,77H35.6z"/>
	<path id="Path_75437" class="st0" d="M37.4,54.7L37.6,77h0.5l-0.3-22.2L37.4,54.7L37.4,54.7z"/>
	<path id="Path_75438" class="st0" d="M37.4,54.7L37.6,77h0.5l-0.3-22.2L37.4,54.7L37.4,54.7z"/>
	<path id="Path_75439" class="st0" d="M37.6,77h-3.4v1.8H39V77H37.6z M38.5,77.5v0.8h-3.7v-0.8H38.5L38.5,77.5z"/>
	<path id="Path_75440" class="st0" d="M37.6,77h-3.4v1.8H39V77H37.6z M38.5,77.5v0.8h-3.7v-0.8H38.5L38.5,77.5z"/>
	<path id="Path_75441" class="st0" d="M38.1,53.8v0.4h-3v-0.4h-0.5v0.9h4.1v-0.9H38.1z"/>
	<path id="Path_75442" class="st0" d="M38.1,53.8v0.4h-3v-0.4h-0.5v0.9h4.1v-0.9H38.1z"/>
	<path id="Path_75443" class="st0" d="M29,54.7L29.3,77h0.5l-0.3-22.2L29,54.7L29,54.7z"/>
	<path id="Path_75444" class="st0" d="M29,54.7L29.3,77h0.5l-0.3-22.2L29,54.7L29,54.7z"/>
	<path id="Path_75445" class="st0" d="M27.3,77l0.3-22.2H27L26.8,77H27.3z"/>
	<path id="Path_75446" class="st0" d="M27.3,77l0.3-22.2H27L26.8,77H27.3z"/>
	<path id="Path_75447" class="st0" d="M29.3,77h-3.4v1.8h4.8V77H29.3z M30.1,77.5v0.8h-3.7v-0.8H30.1L30.1,77.5z"/>
	<path id="Path_75448" class="st0" d="M29.3,77h-3.4v1.8h4.8V77H29.3z M30.1,77.5v0.8h-3.7v-0.8H30.1L30.1,77.5z"/>
	<path id="Path_75449" class="st0" d="M29.8,53.8v0.4h-3v-0.4h-0.5v0.9h4.1v-0.9H29.8z"/>
	<path id="Path_75450" class="st0" d="M29.8,53.8v0.4h-3v-0.4h-0.5v0.9h4.1v-0.9H29.8z"/>
	<path id="Path_75451" class="st0" d="M18.9,77l0.3-22.2h-0.5L18.4,77H18.9z"/>
	<path id="Path_75452" class="st0" d="M18.9,77l0.3-22.2h-0.5L18.4,77H18.9z"/>
	<path id="Path_75453" class="st0" d="M20.6,54.7L20.9,77h0.5l-0.3-22.2L20.6,54.7L20.6,54.7z"/>
	<path id="Path_75454" class="st0" d="M20.6,54.7L20.9,77h0.5l-0.3-22.2L20.6,54.7L20.6,54.7z"/>
	<path id="Path_75455" class="st0" d="M20.9,77h-3.4v1.8h4.8V77H20.9z M21.8,77.5v0.8H18v-0.8H21.8z"/>
	<path id="Path_75456" class="st0" d="M20.9,77h-3.4v1.8h4.8V77H20.9z M21.8,77.5v0.8H18v-0.8H21.8z"/>
	<path id="Path_75457" class="st0" d="M21.4,53.8v0.4h-3v-0.4h-0.5v0.9H22v-0.9H21.4z"/>
	<path id="Path_75458" class="st0" d="M21.4,53.8v0.4h-3v-0.4h-0.5v0.9H22v-0.9H21.4z"/>
	<path id="Path_75459" class="st0" d="M10.6,77l0.3-22.2h-0.5L10,77H10.6z"/>
	<path id="Path_75460" class="st0" d="M10.6,77l0.3-22.2h-0.5L10,77H10.6z"/>
	<path id="Path_75461" class="st0" d="M12.3,54.7L12.5,77H13l-0.3-22.2L12.3,54.7L12.3,54.7z"/>
	<path id="Path_75462" class="st0" d="M12.3,54.7L12.5,77H13l-0.3-22.2L12.3,54.7L12.3,54.7z"/>
	<path id="Path_75463" class="st0" d="M12.5,77H9.2v1.8H14V77H12.5z M13.4,77.5v0.8H9.7v-0.8H13.4z"/>
	<path id="Path_75464" class="st0" d="M12.5,77H9.2v1.8H14V77H12.5z M13.4,77.5v0.8H9.7v-0.8H13.4z"/>
	<path id="Path_75465" class="st0" d="M13.1,53.8v0.4h-3v-0.4H9.5v0.9h4.1v-0.9H13.1z"/>
	<path id="Path_75466" class="st0" d="M13.1,53.8v0.4h-3v-0.4H9.5v0.9h4.1v-0.9H13.1z"/>
	<path id="Path_75467" class="st0" d="M3.9,54.7L4.2,77h0.5L4.4,54.7H3.9z"/>
	<path id="Path_75468" class="st0" d="M3.9,54.7L4.2,77h0.5L4.4,54.7H3.9z"/>
	<path id="Path_75469" class="st0" d="M2.2,77l0.3-22.2H1.9L1.7,77H2.2z"/>
	<path id="Path_75470" class="st0" d="M2.2,77l0.3-22.2H1.9L1.7,77H2.2z"/>
	<path id="Path_75471" class="st0" d="M4.2,77H0.8v1.8h4.8V77H4.2z M5.1,77.5v0.8H1.3v-0.8H5.1L5.1,77.5z"/>
	<path id="Path_75472" class="st0" d="M4.2,77H0.8v1.8h4.8V77H4.2z M5.1,77.5v0.8H1.3v-0.8H5.1L5.1,77.5z"/>
	<path id="Path_75473" class="st0" d="M4.7,53.8v0.4h-3v-0.4H1.2v0.9h4.1v-0.9H4.7z"/>
	<path id="Path_75474" class="st0" d="M4.7,53.8v0.4h-3v-0.4H1.2v0.9h4.1v-0.9H4.7z"/>
	<path id="Path_75475" class="st0" d="M43.5,53.8h4.6v-2h-0.7v0.5h0.1v1h-47v-1h0.1v-0.5H0.1v2H43.5z"/>
	<path id="Path_75476" class="st0" d="M43.5,53.8h4.6v-2h-0.7v0.5h0.1v1h-47v-1h0.1v-0.5H0.1v2H43.5z"/>
	<path id="Path_75477" class="st0" d="M0.7,52.3h1.7v-0.5H1.2v-1.4H0.7V52.3L0.7,52.3z"/>
	<path id="Path_75478" class="st0" d="M0.7,52.3h1.7v-0.5H1.2v-1.4H0.7V52.3L0.7,52.3z"/>
	<path id="Path_75479" class="st0" d="M47,50.4v1.4h-1.2v0.5h1.7v-1.9H47z"/>
	<path id="Path_75480" class="st0" d="M47,50.4v1.4h-1.2v0.5h1.7v-1.9H47z"/>
	<rect id="Rectangle_44683" x="40.8" y="51.8" class="st0" width="1.6" height="0.5"/>
	<rect id="Rectangle_44684" x="40.8" y="51.8" class="st0" width="1.6" height="0.5"/>
	<rect id="Rectangle_44685" x="25.8" y="51.8" class="st0" width="1.6" height="0.5"/>
	<rect id="Rectangle_44686" x="25.8" y="51.8" class="st0" width="1.6" height="0.5"/>
	<rect id="Rectangle_44687" x="10.9" y="51.8" class="st0" width="1.6" height="0.5"/>
	<rect id="Rectangle_44688" x="10.9" y="51.8" class="st0" width="1.6" height="0.5"/>
	<rect id="Rectangle_44689" x="15.8" y="51.8" class="st0" width="1.6" height="0.5"/>
	<rect id="Rectangle_44690" x="15.8" y="51.8" class="st0" width="1.6" height="0.5"/>
	<rect id="Rectangle_44691" x="5.9" y="51.8" class="st0" width="1.6" height="0.5"/>
	<rect id="Rectangle_44692" x="5.9" y="51.8" class="st0" width="1.6" height="0.5"/>
	<rect id="Rectangle_44693" x="30.8" y="51.8" class="st0" width="1.6" height="0.5"/>
	<rect id="Rectangle_44694" x="30.8" y="51.8" class="st0" width="1.6" height="0.5"/>
	<rect id="Rectangle_44695" x="35.8" y="51.8" class="st0" width="1.6" height="0.5"/>
	<rect id="Rectangle_44696" x="35.8" y="51.8" class="st0" width="1.6" height="0.5"/>
	<rect id="Rectangle_44697" x="20.8" y="51.8" class="st0" width="1.6" height="0.5"/>
	<rect id="Rectangle_44698" x="20.8" y="51.8" class="st0" width="1.6" height="0.5"/>
	<path id="Path_75481" class="st0" d="M22.4,52.3h0.8v-0.5h-0.3v-1.4h-0.5V52.3L22.4,52.3z"/>
	<path id="Path_75482" class="st0" d="M22.4,52.3h0.8v-0.5h-0.3v-1.4h-0.5V52.3L22.4,52.3z"/>
	<path id="Path_75483" class="st0" d="M25,51.8v0.5h0.8v-1.9h-0.5v1.4H25z"/>
	<path id="Path_75484" class="st0" d="M25,51.8v0.5h0.8v-1.9h-0.5v1.4H25z"/>
	<path id="Path_75485" class="st0" d="M23.2,52.3H25v-1.9h-0.5v1.4h-0.7v-1.4h-0.5C23.2,50.4,23.2,52.3,23.2,52.3z"/>
	<path id="Path_75486" class="st0" d="M23.2,52.3H25v-1.9h-0.5v1.4h-0.7v-1.4h-0.5C23.2,50.4,23.2,52.3,23.2,52.3z"/>
	<path id="Path_75487" class="st0" d="M3.3,51.8H3v-1.4H2.4v1.9h0.8L3.3,51.8z"/>
	<path id="Path_75488" class="st0" d="M3.3,51.8H3v-1.4H2.4v1.9h0.8L3.3,51.8z"/>
	<path id="Path_75489" class="st0" d="M5,51.8v0.5h0.8v-1.9H5.4v1.4H5z"/>
	<path id="Path_75490" class="st0" d="M5,51.8v0.5h0.8v-1.9H5.4v1.4H5z"/>
	<path id="Path_75491" class="st0" d="M3.3,52.3H5v-1.9H4.5v1.4H3.8v-1.4H3.3V52.3z"/>
	<path id="Path_75492" class="st0" d="M3.3,52.3H5v-1.9H4.5v1.4H3.8v-1.4H3.3V52.3z"/>
	<path id="Path_75493" class="st0" d="M7.4,52.3h0.8v-0.5H7.9v-1.4H7.4V52.3L7.4,52.3z"/>
	<path id="Path_75494" class="st0" d="M7.4,52.3h0.8v-0.5H7.9v-1.4H7.4V52.3L7.4,52.3z"/>
	<path id="Path_75495" class="st0" d="M10,51.8v0.5h0.8v-1.9h-0.5v1.4H10z"/>
	<path id="Path_75496" class="st0" d="M10,51.8v0.5h0.8v-1.9h-0.5v1.4H10z"/>
	<path id="Path_75497" class="st0" d="M8.3,52.3H10v-1.9H9.5v1.4H8.8v-1.4H8.3C8.3,50.4,8.3,52.3,8.3,52.3z"/>
	<path id="Path_75498" class="st0" d="M8.3,52.3H10v-1.9H9.5v1.4H8.8v-1.4H8.3C8.3,50.4,8.3,52.3,8.3,52.3z"/>
	<path id="Path_75499" class="st0" d="M12.4,52.3h0.8v-0.5h-0.3v-1.4h-0.5V52.3L12.4,52.3z"/>
	<path id="Path_75500" class="st0" d="M12.4,52.3h0.8v-0.5h-0.3v-1.4h-0.5V52.3L12.4,52.3z"/>
	<path id="Path_75501" class="st0" d="M15,51.8v0.5h0.8v-1.9h-0.5v1.4H15z"/>
	<path id="Path_75502" class="st0" d="M15,51.8v0.5h0.8v-1.9h-0.5v1.4H15z"/>
	<path id="Path_75503" class="st0" d="M13.2,52.3H15v-1.9h-0.5v1.4h-0.7v-1.4h-0.5L13.2,52.3L13.2,52.3z"/>
	<path id="Path_75504" class="st0" d="M13.2,52.3H15v-1.9h-0.5v1.4h-0.7v-1.4h-0.5L13.2,52.3L13.2,52.3z"/>
	<path id="Path_75505" class="st0" d="M17.4,52.3h0.8v-0.5h-0.3v-1.4h-0.5V52.3L17.4,52.3z"/>
	<path id="Path_75506" class="st0" d="M17.4,52.3h0.8v-0.5h-0.3v-1.4h-0.5V52.3L17.4,52.3z"/>
	<path id="Path_75507" class="st0" d="M20,51.8v0.5h0.8v-1.9h-0.5v1.4H20z"/>
	<path id="Path_75508" class="st0" d="M20,51.8v0.5h0.8v-1.9h-0.5v1.4H20z"/>
	<path id="Path_75509" class="st0" d="M18.2,52.3H20v-1.9h-0.5v1.4h-0.7v-1.4h-0.5C18.2,50.4,18.2,52.3,18.2,52.3z"/>
	<path id="Path_75510" class="st0" d="M18.2,52.3H20v-1.9h-0.5v1.4h-0.7v-1.4h-0.5C18.2,50.4,18.2,52.3,18.2,52.3z"/>
	<path id="Path_75511" class="st0" d="M27.4,52.3h0.8v-0.5h-0.3v-1.4h-0.5V52.3L27.4,52.3z"/>
	<path id="Path_75512" class="st0" d="M27.4,52.3h0.8v-0.5h-0.3v-1.4h-0.5V52.3L27.4,52.3z"/>
	<path id="Path_75513" class="st0" d="M29.9,51.8v0.5h0.8v-1.9h-0.5v1.4H29.9z"/>
	<path id="Path_75514" class="st0" d="M29.9,51.8v0.5h0.8v-1.9h-0.5v1.4H29.9z"/>
	<path id="Path_75515" class="st0" d="M28.2,52.3h1.7v-1.9h-0.5v1.4h-0.7v-1.4h-0.5C28.2,50.4,28.2,52.3,28.2,52.3z"/>
	<path id="Path_75516" class="st0" d="M28.2,52.3h1.7v-1.9h-0.5v1.4h-0.7v-1.4h-0.5C28.2,50.4,28.2,52.3,28.2,52.3z"/>
	<path id="Path_75517" class="st0" d="M32.3,52.3h0.8v-0.5h-0.3v-1.4h-0.5V52.3L32.3,52.3z"/>
	<path id="Path_75518" class="st0" d="M32.3,52.3h0.8v-0.5h-0.3v-1.4h-0.5V52.3L32.3,52.3z"/>
	<path id="Path_75519" class="st0" d="M34.9,51.8v0.5h0.8v-1.9h-0.5v1.4H34.9z"/>
	<path id="Path_75520" class="st0" d="M34.9,51.8v0.5h0.8v-1.9h-0.5v1.4H34.9z"/>
	<path id="Path_75521" class="st0" d="M33.2,52.3h1.7v-1.9h-0.5v1.4h-0.7v-1.4h-0.5V52.3L33.2,52.3z"/>
	<path id="Path_75522" class="st0" d="M33.2,52.3h1.7v-1.9h-0.5v1.4h-0.7v-1.4h-0.5V52.3L33.2,52.3z"/>
	<path id="Path_75523" class="st0" d="M37.3,52.3h0.8v-0.5h-0.3v-1.4h-0.5V52.3L37.3,52.3z"/>
	<path id="Path_75524" class="st0" d="M37.3,52.3h0.8v-0.5h-0.3v-1.4h-0.5V52.3L37.3,52.3z"/>
	<path id="Path_75525" class="st0" d="M39.9,51.8v0.5h0.8v-1.9h-0.5v1.4H39.9z"/>
	<path id="Path_75526" class="st0" d="M39.9,51.8v0.5h0.8v-1.9h-0.5v1.4H39.9z"/>
	<path id="Path_75527" class="st0" d="M38.2,52.3h1.7v-1.9h-0.5v1.4h-0.7v-1.4h-0.5C38.2,50.4,38.2,52.3,38.2,52.3z"/>
	<path id="Path_75528" class="st0" d="M38.2,52.3h1.7v-1.9h-0.5v1.4h-0.7v-1.4h-0.5C38.2,50.4,38.2,52.3,38.2,52.3z"/>
	<path id="Path_75529" class="st0" d="M42.3,52.3h0.8v-0.5h-0.3v-1.4h-0.5V52.3L42.3,52.3z"/>
	<path id="Path_75530" class="st0" d="M42.3,52.3h0.8v-0.5h-0.3v-1.4h-0.5V52.3L42.3,52.3z"/>
	<path id="Path_75531" class="st0" d="M44.9,51.8v0.5h0.8v-1.9h-0.5v1.4H44.9z"/>
	<path id="Path_75532" class="st0" d="M44.9,51.8v0.5h0.8v-1.9h-0.5v1.4H44.9z"/>
	<path id="Path_75533" class="st0" d="M43.2,52.3h1.7v-1.9h-0.5v1.4h-0.7v-1.4h-0.5V52.3z"/>
	<path id="Path_75534" class="st0" d="M43.2,52.3h1.7v-1.9h-0.5v1.4h-0.7v-1.4h-0.5V52.3z"/>
	<path id="Path_75535" class="st0" d="M1.2,50.4h46.7v-1.7H31.6v0.5h15.8v0.7H0.8v-0.7h15.8v-0.5H0.3v1.7H1.2z"/>
	<path id="Path_75536" class="st0" d="M1.2,50.4h46.7v-1.7H31.6v0.5h15.8v0.7H0.8v-0.7h15.8v-0.5H0.3v1.7H1.2z"/>
	<path id="Path_75537" class="st0" d="M31.6,46.7v-0.4h-0.5v2.4h-14v-2.4h-0.5v2.9h15.1L31.6,46.7L31.6,46.7z"/>
	<path id="Path_75538" class="st0" d="M31.6,46.7v-0.4h-0.5v2.4h-14v-2.4h-0.5v2.9h15.1L31.6,46.7L31.6,46.7z"/>
	<path id="Path_75539" class="st0" d="M15.8,46.2h16.7v-1.6h-3.6v0.5H32v0.6H16.3v-0.6h3.1v-0.5h-3.6C15.8,44.6,15.8,46.2,15.8,46.2
		z"/>
	<path id="Path_75540" class="st0" d="M15.8,46.2h16.7v-1.6h-3.6v0.5H32v0.6H16.3v-0.6h3.1v-0.5h-3.6C15.8,44.6,15.8,46.2,15.8,46.2
		z"/>
	<rect id="Rectangle_44699" x="22.1" y="44.7" class="st0" width="0.6" height="0.5"/>
	<rect id="Rectangle_44700" x="22.1" y="44.7" class="st0" width="0.6" height="0.5"/>
	<rect id="Rectangle_44701" x="25.5" y="44.7" class="st0" width="0.6" height="0.5"/>
	<rect id="Rectangle_44702" x="25.5" y="44.7" class="st0" width="0.6" height="0.5"/>
	<path id="Path_75541" class="st0" d="M22.7,45.2h2.8v-4.7h-0.7V41H25v3.7h-1.7V41h0.1v-0.5h-0.7L22.7,45.2L22.7,45.2z"/>
	<path id="Path_75542" class="st0" d="M22.7,45.2h2.8v-4.7h-0.7V41H25v3.7h-1.7V41h0.1v-0.5h-0.7L22.7,45.2L22.7,45.2z"/>
	<path id="Path_75543" class="st0" d="M26,45.2h2.8v-3.9H26V45.2z M26.6,41.8h1.7v2.9h-1.7V41.8z"/>
	<path id="Path_75544" class="st0" d="M26,45.2h2.8v-3.9H26V45.2z M26.6,41.8h1.7v2.9h-1.7V41.8z"/>
	<path id="Path_75545" class="st0" d="M19.4,45.2h2.8v-3.9h-2.8V45.2z M19.9,41.8h1.7v2.9h-1.7V41.8z"/>
	<path id="Path_75546" class="st0" d="M19.4,45.2h2.8v-3.9h-2.8V45.2z M19.9,41.8h1.7v2.9h-1.7V41.8z"/>
	<path id="Path_75547" class="st0" d="M23.4,41h1.5v-4.1h-1.5V41z M23.9,37.4h0.4v3.1h-0.4V37.4z"/>
	<path id="Path_75548" class="st0" d="M23.4,41h1.5v-4.1h-1.5V41z M23.9,37.4h0.4v3.1h-0.4V37.4z"/>
	<path id="Path_75549" class="st0" d="M100.4,78.4h-5.1v-2.5c0-0.2-0.1-0.3-0.3-0.3h-3.9v-2l0,0v-0.1l0,0c0,0,0,0,0-0.1l-1.4-1.7
		V55.3h1.2c0.2,0,0.3-0.1,0.3-0.3v-1.9c0-0.2-0.1-0.3-0.3-0.3h-1.2l-0.7-8l0,0c0-0.1-0.7-8.9-1.1-15.6l0.3,0.3
		c0.1,0,0.1,0.1,0.2,0.1l0,0c0.1,0,0.2-0.1,0.2-0.1l1.4-1.9l0.3,0.2c0.2,0.2,0.6,0.1,0.8-0.1l1-1.4c0.2-0.2,0.1-0.6-0.1-0.8
		l-0.3-0.2l0.9-1.3c0.1-0.1,0.1-0.3-0.1-0.4L89.3,21c-0.1-0.1-0.3-0.1-0.4,0l0,0l-1.1,1.5l-0.4-0.4c0-0.3,0-0.4,0-0.5
		c0.1-0.6-0.2-1.2-0.7-1.5l0,0l-0.6-0.3l-0.9-3.9c0.1-0.2,0.2-0.5,0.2-0.7l0.6-0.6c1.1-0.9,2.4-2,2.6-2.1l0.1-0.1l0,0
		c0-0.1,0-0.1,0-0.2c0-0.2-0.1-0.3-0.3-0.3l0,0c-0.1,0-1.2,0.1-2.4,0.2c0.3-0.8,0.6-1.6,0.8-2.4c0-0.1-0.1-0.2-0.2-0.3
		c-0.2-0.1-0.3-0.1-2.6,1.5l-0.9-2.7C83.1,8.1,83,8,82.8,8c-0.1,0-0.3,0.1-0.3,0.2l-1,2.6l-2.1-1.4c-0.1-0.1-0.3-0.1-0.4,0.1
		c-0.1,0.1-0.1,0.2,0,0.3l0.6,2.1l-1.3-0.2l-0.7-2.5c0.2-0.9,0.4-1.8,0.5-2c0.1-0.4-0.3-1.1-0.7-1.7c-0.1-0.1-0.2-0.1-0.3-0.2V4.4
		c0.5-0.3,0.8-0.8,1-1.3c0-0.2-0.1-0.3-0.2-0.4c0,0,0,0-0.1,0h-1.4V2.4c0-0.2-0.1-0.3-0.3-0.3h-0.7c-0.2,0-0.4-0.2-0.4-0.4
		s0.2-0.4,0.4-0.4h1.8c0.6,0,1-0.4,1-1c0-0.2-0.1-0.3-0.3-0.3s-0.3,0.1-0.3,0.3l0,0c0,0.2-0.2,0.4-0.4,0.4h-1.8c-0.5,0-1,0.4-1,1
		c0,0.5,0.4,0.9,0.8,1h-0.9C74.1,2.7,74,2.8,74,3c0,0,0,0,0,0.1c0,0.6,0.4,1.1,1,1.4v0.6l0,0c-0.1,0-0.3,0.1-0.4,0.2
		s-0.1,0.3-0.1,0.4l0.2,1.7c0,0.2,0.2,0.4,0.3,0.4v0.9C75,8.9,75.1,9,75.3,9h0.4c0,0.8-0.1,3.8-0.1,4l0,0c0,0.4,0,0.9,0.1,1.3
		c0,0.3,0,0.6,0,0.9c-0.5,0.4-0.7,1.1-0.5,1.7c0.1,0.4,0.3,0.7,0.6,1l0.3,3.5l0,0l-0.4,1.1c0,0.1,0,0.2,0,0.3l0.7,1.1
		c-0.2,0.4-0.2,0.8-0.1,1.2c0.1,0.4,0.1,0.8,0,1.3l-1,8.4c-0.9,3.5-1.9,7.3-2.7,10c0,0.1,0,0.3,0.1,0.3c0,0,0,0,0.1,0l-1.9,7.7H70
		c-0.2,0-0.3,0.1-0.3,0.3V55c0,0.2,0.1,0.3,0.3,0.3h1.1v16.4l-1.4,1.7c0,0,0,0,0,0.1l0,0v0.1l0,0v2h-3.9c-0.2,0-0.3,0.1-0.3,0.3v2.5
		h-4.8c-0.2,0-0.3,0.1-0.3,0.3v2.5c0,0.2,0.1,0.3,0.3,0.3h39.8c0.2,0,0.3-0.1,0.3-0.3v-2.5C100.7,78.6,100.6,78.4,100.4,78.4
		 M65.8,79.1h34.3V81H61v-1.9H65.8z M66.1,76.2h28.6v2.2H66.1V76.2z M71.7,55.3H89v16.2H71.7V55.3z M71.5,72.2h17.7l1,1.2H70.6
		L71.5,72.2z M70.3,74h20.2v1.6H70.3V74z M70.3,53.4h20.2v1.2H70.3V53.4z M76.5,22.6l1.1-2.9c0-0.1,0-0.2,0-0.2
		c-0.1-0.2-0.3-0.2-0.4-0.2s-0.1,0.1-0.2,0.2L76.8,20l-0.2-1.9c0.1,0,0.1-0.1,0.1-0.2c0.1-0.2,0-0.3-0.2-0.4
		c-0.3-0.1-0.6-0.4-0.7-0.8c0-0.2,0-0.3,0-0.5c0,0,0,0,0.1,0c0.3,0.1,0.7,0.2,1,0.2c0.2,0,0.4,0,0.6-0.1c0.5-0.2,0.9-0.5,1.1-0.9
		v0.4v0.6c0,0.2,0.1,0.3,0.3,0.3l0,0c0.1,0,0.2,0,0.2-0.1l0.1-0.1l1.8,1.6l-0.8,2.4c0,0.1,0,0.2,0,0.2c0,0.1,0.1,0.1,0.2,0.2h0.1
		c0.1,0,0.3-0.1,0.3-0.2l0.7-2.2l1.3,0.5l-1.4,2.5l-4.5,4.2c0-0.2,0-0.5-0.1-0.7c-0.1-0.4,0-0.8,0.3-1.1l1-1.2
		c0.1-0.1,0.1-0.1,0.1-0.2c0-0.2-0.2-0.3-0.3-0.3c-0.1,0-0.2,0-0.2,0.1l-1,1.2L76.5,22.6z M77.3,3.3c-0.4,0.7-1.3,1-2,0.6
		c-0.2-0.1-0.4-0.3-0.6-0.6C74.7,3.3,77.3,3.3,77.3,3.3z M76,4.7c0.2,0,0.3,0,0.5-0.1v0.3c0,0,0,0-0.1,0L75.6,5V4.7
		C75.7,4.7,75.8,4.7,76,4.7 M76.3,5.6l0.2,1.5l-1.2,0.2l-0.2-1.5L76.3,5.6z M76.3,7.8v0.6h-0.5V7.8L76.3,7.8z M76.6,9
		c0.2,0,0.3-0.1,0.3-0.3L77,7.6c0.1,0,0.1-0.1,0.2-0.1c0.1-0.1,0.1-0.3,0.1-0.4l-0.1-0.8c0.1,0.2,0.2,0.4,0.3,0.6
		C77.4,7.2,77.1,8.5,77,9c0,0.1,0,0.1,0,0.2l0.8,2.8l0,0l0.7,2.7c0,0.5-0.4,0.9-0.9,1.1c-0.3,0.1-0.7,0.1-1,0c0-0.5,0-1.1,0-1.6
		c-0.1-0.4-0.2-0.7-0.1-1.1l0,0C76.5,13,76.5,12.3,76.6,9L76.6,9L76.6,9L76.6,9z M86.8,22.7l-0.7,0.6l0,0l0,0l-1.7,1.5
		c0.4-1.4,0.9-2.9,1.4-4.5l0.7,0.4c0,0,0.3,0.2,0.3,0.9C86.7,21.7,86.8,22.1,86.8,22.7 M89.6,26.4l0.9-1.2l1,0.7l-0.9,1.2L89.6,26.4
		z M90.8,24.6c-0.2-0.2-0.6-0.1-0.8,0.1l-1,1.4c-0.2,0.2-0.1,0.6,0.1,0.8l0.4,0.3l-1.2,1.6l-0.5-0.4c-0.1-1.7-0.2-3.3-0.3-4.4
		l1.7-2.2L92,24l-0.7,1L90.8,24.6z M76.1,35c0.4-1.5,0.8-3.1,1.2-4.5l0,0l7.4-9.2c-1.4,4.6-5.5,17.9-5.8,18.9
		c-0.3,0.3-2.8,2.1-5.2,3.9C74.2,42.4,75.1,38.7,76.1,35 M80.7,23.3L78,28.1c0.5-1.9,0.7-2.7,0.8-3L80.7,23.3z M79.5,15.7l-0.1-0.5
		c0-0.2-0.1-0.5-0.3-0.6c-0.1-0.1-0.1-0.1-0.2-0.1L78.8,14c0.2,0.2,0.3,0.4,0.5,0.5l0,0l0.6,0.7l0,0c0,0.1,0,0.1,0,0.2
		c0,0.1,0,0.2,0.1,0.3l0,0L79.9,16L79.5,15.7z M84.1,15.6c0,0.8-0.6,1.4-1.4,1.4s-1.4-0.6-1.4-1.4l0,0V15c0.5-0.2,1-0.5,1.4-1
		c0.3,0.5,0.8,0.9,1.4,1.1V15.6z M81.1,16.8c0.1,0.1,0.2,0.2,0.3,0.3v0.2L81.1,17V16.8z M82,17.5c0.4,0.2,0.9,0.2,1.4,0v1L82,17.9
		V17.5z M83.9,19.3l1.1,0.6L79.2,27l4.4-7.8L83.9,19.3z M84.3,18.8l-0.2-0.1v-1.6l0.1-0.1L84.3,18.8z M84.8,14.7
		c-1.6-0.4-1.7-1.5-1.7-1.5c0-0.2-0.2-0.3-0.3-0.3c-0.1,0-0.2,0.1-0.3,0.2c-0.4,0.8-1.1,1.3-1.9,1.4c0.1-1.2,1.1-2.1,2.3-2
		C84,12.7,84.8,13.6,84.8,14.7L84.8,14.7 M76.7,52.8l0.6-5.1c0,0,0,0,0-0.1L79,44l-1,8.8H76.7z M74.8,52.8l1.7-3.4l-0.4,3.4H74.8z
		 M79.5,40.5c0-0.1,1.6-5,4.5-14.6l1.9-1.6l-1.5,21.1l-5.7-4.2C79.4,40.6,79.5,40.6,79.5,40.5 M79.9,42.8l1.1,0.8l-1.1,9.2h-1.3
		L79.9,42.8z M81.6,44l1.2,0.9l-0.9,7.9h-1.3L81.6,44z M83.4,45.4l1.2,0.8h0.1l-0.8,6.6h-1.3L83.4,45.4z M85.5,44.5l1.3,0.3l-0.9,8
		h-1.3L85.5,44.5z M88.5,47l-0.7,5.8h-1.3l0.9-7.9l1,0.2L88.5,47z M88.5,52.8l0.3-2.7l0.2,2.7H88.5z M85.2,43.8l1.4-20.1l0.3-0.2
		c0.3,5,1.3,18.3,1.5,21L85.2,43.8z M84.9,19.2l-0.2-2.3l0.6,2.5L84.9,19.2z M86,13.7c-0.1-0.3-0.3-0.7-0.5-1l0,0l1.5-0.1h0.4
		C87.1,12.9,86.6,13.3,86,13.7 M85.3,12.3C85.3,12.3,85.3,12.4,85.3,12.3c-0.1-0.1-0.2-0.2-0.4-0.3l0,0l0,0
		c-0.2-0.1-0.4-0.3-0.6-0.4c0.6-0.4,1.2-0.9,1.7-1.2C85.8,10.9,85.5,11.7,85.3,12.3 M82.9,11.3L82.9,11.3
		C82.8,11.3,82.8,11.3,82.9,11.3c-0.1,0-0.2,0-0.2,0c-0.2,0-0.5,0-0.7,0.1l0.8-2.1l0.7,2.1C83.3,11.3,83.1,11.3,82.9,11.3
		 M80.2,12.2L80.2,12.2l-0.5-1.8l1.6,1.1C81,11.7,80.6,11.9,80.2,12.2 M79.4,13.6c-0.4-0.4-0.8-0.9-1-1.1v-0.1l1.5,0.3l0,0
		C79.7,12.9,79.5,13.2,79.4,13.6 M77.1,26.6l0.7-0.7c-0.3,1-0.7,2.6-1.2,4.5L77.1,26.6z M78.2,41.6l1,0.7l-5.1,10.5h-2.3l2-8
		C76,43.2,77.4,42.2,78.2,41.6"/>
	<path id="Path_75550" class="st0" d="M100.4,78.4h-5.1v-2.5c0-0.2-0.1-0.3-0.3-0.3h-3.9v-2l0,0v-0.1l0,0c0,0,0,0,0-0.1l-1.4-1.7
		V55.3h1.2c0.2,0,0.3-0.1,0.3-0.3v-1.9c0-0.2-0.1-0.3-0.3-0.3h-1.2l-0.7-8l0,0c0-0.1-0.7-8.9-1.1-15.6l0.3,0.3
		c0.1,0,0.1,0.1,0.2,0.1l0,0c0.1,0,0.2-0.1,0.2-0.1l1.4-1.9l0.3,0.2c0.2,0.2,0.6,0.1,0.8-0.1l1-1.4c0.2-0.2,0.1-0.6-0.1-0.8
		l-0.3-0.2l0.9-1.3c0.1-0.1,0.1-0.3-0.1-0.4L89.3,21c-0.1-0.1-0.3-0.1-0.4,0l0,0l-1.1,1.5l-0.4-0.4c0-0.3,0-0.4,0-0.5
		c0.1-0.6-0.2-1.2-0.7-1.5l0,0l-0.6-0.3l-0.9-3.9c0.1-0.2,0.2-0.5,0.2-0.7l0.6-0.6c1.1-0.9,2.4-2,2.6-2.1l0.1-0.1l0,0
		c0-0.1,0-0.1,0-0.2c0-0.2-0.1-0.3-0.3-0.3l0,0c-0.1,0-1.2,0.1-2.4,0.2c0.3-0.8,0.6-1.6,0.8-2.4c0-0.1-0.1-0.2-0.2-0.3
		c-0.2-0.1-0.3-0.1-2.6,1.5l-0.9-2.7C83.1,8.1,83,8,82.8,8c-0.1,0-0.3,0.1-0.3,0.2l-1,2.6l-2.1-1.4c-0.1-0.1-0.3-0.1-0.4,0.1
		c-0.1,0.1-0.1,0.2,0,0.3l0.6,2.1l-1.3-0.2l-0.7-2.5c0.2-0.9,0.4-1.8,0.5-2c0.1-0.4-0.3-1.1-0.7-1.7c-0.1-0.1-0.2-0.1-0.3-0.2V4.4
		c0.5-0.3,0.8-0.8,1-1.3c0-0.2-0.1-0.3-0.2-0.4c0,0,0,0-0.1,0h-1.4V2.4c0-0.2-0.1-0.3-0.3-0.3h-0.7c-0.2,0-0.4-0.2-0.4-0.4
		s0.2-0.4,0.4-0.4h1.8c0.6,0,1-0.4,1-1c0-0.2-0.1-0.3-0.3-0.3s-0.3,0.1-0.3,0.3l0,0c0,0.2-0.2,0.4-0.4,0.4h-1.8c-0.5,0-1,0.4-1,1
		c0,0.5,0.4,0.9,0.8,1h-0.9C74.1,2.7,74,2.8,74,3c0,0,0,0,0,0.1c0,0.6,0.4,1.1,1,1.4v0.6l0,0c-0.1,0-0.3,0.1-0.4,0.2
		s-0.1,0.3-0.1,0.4l0.2,1.7c0,0.2,0.2,0.4,0.3,0.4v0.9C75,8.9,75.1,9,75.3,9h0.4c0,0.8-0.1,3.8-0.1,4l0,0c0,0.4,0,0.9,0.1,1.3
		c0,0.3,0,0.6,0,0.9c-0.5,0.4-0.7,1.1-0.5,1.7c0.1,0.4,0.3,0.7,0.6,1l0.3,3.5l0,0l-0.4,1.1c0,0.1,0,0.2,0,0.3l0.7,1.1
		c-0.2,0.4-0.2,0.8-0.1,1.2c0.1,0.4,0.1,0.8,0,1.3l-1,8.4c-0.9,3.5-1.9,7.3-2.7,10c0,0.1,0,0.3,0.1,0.3c0,0,0,0,0.1,0l-1.9,7.7H70
		c-0.2,0-0.3,0.1-0.3,0.3V55c0,0.2,0.1,0.3,0.3,0.3h1.1v16.4l-1.4,1.7c0,0,0,0,0,0.1l0,0v0.1l0,0v2h-3.9c-0.2,0-0.3,0.1-0.3,0.3v2.5
		h-4.8c-0.2,0-0.3,0.1-0.3,0.3v2.5c0,0.2,0.1,0.3,0.3,0.3h39.8c0.2,0,0.3-0.1,0.3-0.3v-2.5C100.7,78.6,100.6,78.4,100.4,78.4z
		 M65.8,79.1h34.3V81H61v-1.9H65.8z M66.1,76.2h28.6v2.2H66.1V76.2z M71.7,55.3H89v16.2H71.7V55.3z M71.5,72.2h17.7l1,1.2H70.6
		L71.5,72.2z M70.3,74h20.2v1.6H70.3V74z M70.3,53.4h20.2v1.2H70.3V53.4z M76.5,22.6l1.1-2.9c0-0.1,0-0.2,0-0.2
		c-0.1-0.2-0.3-0.2-0.4-0.2s-0.1,0.1-0.2,0.2L76.8,20l-0.2-1.9c0.1,0,0.1-0.1,0.1-0.2c0.1-0.2,0-0.3-0.2-0.4
		c-0.3-0.1-0.6-0.4-0.7-0.8c0-0.2,0-0.3,0-0.5c0,0,0,0,0.1,0c0.3,0.1,0.7,0.2,1,0.2c0.2,0,0.4,0,0.6-0.1c0.5-0.2,0.9-0.5,1.1-0.9
		v0.4v0.6c0,0.2,0.1,0.3,0.3,0.3l0,0c0.1,0,0.2,0,0.2-0.1l0.1-0.1l1.8,1.6l-0.8,2.4c0,0.1,0,0.2,0,0.2c0,0.1,0.1,0.1,0.2,0.2h0.1
		c0.1,0,0.3-0.1,0.3-0.2l0.7-2.2l1.3,0.5l-1.4,2.5l-4.5,4.2c0-0.2,0-0.5-0.1-0.7c-0.1-0.4,0-0.8,0.3-1.1l1-1.2
		c0.1-0.1,0.1-0.1,0.1-0.2c0-0.2-0.2-0.3-0.3-0.3c-0.1,0-0.2,0-0.2,0.1l-1,1.2L76.5,22.6z M77.3,3.3c-0.4,0.7-1.3,1-2,0.6
		c-0.2-0.1-0.4-0.3-0.6-0.6C74.7,3.3,77.3,3.3,77.3,3.3z M76,4.7c0.2,0,0.3,0,0.5-0.1v0.3c0,0,0,0-0.1,0L75.6,5V4.7
		C75.7,4.7,75.8,4.7,76,4.7L76,4.7z M76.3,5.6l0.2,1.5l-1.2,0.2l-0.2-1.5L76.3,5.6z M76.3,7.8v0.6h-0.5V7.8L76.3,7.8z M76.6,9
		c0.2,0,0.3-0.1,0.3-0.3L77,7.6c0.1,0,0.1-0.1,0.2-0.1c0.1-0.1,0.1-0.3,0.1-0.4l-0.1-0.8c0.1,0.2,0.2,0.4,0.3,0.6
		C77.4,7.2,77.1,8.5,77,9c0,0.1,0,0.1,0,0.2l0.8,2.8l0,0l0.7,2.7c0,0.5-0.4,0.9-0.9,1.1c-0.3,0.1-0.7,0.1-1,0c0-0.5,0-1.1,0-1.6
		c-0.1-0.4-0.2-0.7-0.1-1.1l0,0C76.5,13,76.5,12.3,76.6,9L76.6,9L76.6,9L76.6,9z M86.8,22.7l-0.7,0.6l0,0l0,0l-1.7,1.5
		c0.4-1.4,0.9-2.9,1.4-4.5l0.7,0.4c0,0,0.3,0.2,0.3,0.9C86.7,21.7,86.8,22.1,86.8,22.7L86.8,22.7z M89.6,26.4l0.9-1.2l1,0.7
		l-0.9,1.2L89.6,26.4z M90.8,24.6c-0.2-0.2-0.6-0.1-0.8,0.1l-1,1.4c-0.2,0.2-0.1,0.6,0.1,0.8l0.4,0.3l-1.2,1.6l-0.5-0.4
		c-0.1-1.7-0.2-3.3-0.3-4.4l1.7-2.2L92,24l-0.7,1L90.8,24.6z M76.1,35c0.4-1.5,0.8-3.1,1.2-4.5l0,0l7.4-9.2
		c-1.4,4.6-5.5,17.9-5.8,18.9c-0.3,0.3-2.8,2.1-5.2,3.9C74.2,42.4,75.1,38.7,76.1,35L76.1,35z M80.7,23.3L78,28.1
		c0.5-1.9,0.7-2.7,0.8-3L80.7,23.3z M79.5,15.7l-0.1-0.5c0-0.2-0.1-0.5-0.3-0.6c-0.1-0.1-0.1-0.1-0.2-0.1L78.8,14
		c0.2,0.2,0.3,0.4,0.5,0.5l0,0l0.6,0.7l0,0c0,0.1,0,0.1,0,0.2c0,0.1,0,0.2,0.1,0.3l0,0L79.9,16L79.5,15.7z M84.1,15.6
		c0,0.8-0.6,1.4-1.4,1.4s-1.4-0.6-1.4-1.4V15c0.5-0.2,1-0.5,1.4-1c0.3,0.5,0.8,0.9,1.4,1.1V15.6z M81.1,16.8
		c0.1,0.1,0.2,0.2,0.3,0.3v0.2L81.1,17V16.8z M82,17.5c0.4,0.2,0.9,0.2,1.4,0v1L82,17.9V17.5z M83.9,19.3l1.1,0.6L79.2,27l4.4-7.8
		L83.9,19.3z M84.3,18.8l-0.2-0.1v-1.6l0.1-0.1L84.3,18.8z M84.8,14.7c-1.6-0.4-1.7-1.5-1.7-1.5c0-0.2-0.2-0.3-0.3-0.3
		c-0.1,0-0.2,0.1-0.3,0.2c-0.4,0.8-1.1,1.3-1.9,1.4c0.1-1.2,1.1-2.1,2.3-2C84,12.7,84.8,13.6,84.8,14.7L84.8,14.7L84.8,14.7z
		 M76.7,52.8l0.6-5.1c0,0,0,0,0-0.1L79,44l-1,8.8H76.7z M74.8,52.8l1.7-3.4l-0.4,3.4H74.8z M79.5,40.5c0-0.1,1.6-5,4.5-14.6l1.9-1.6
		l-1.5,21.1l-5.7-4.2C79.4,40.6,79.5,40.6,79.5,40.5L79.5,40.5z M79.9,42.8l1.1,0.8l-1.1,9.2h-1.3L79.9,42.8z M81.6,44l1.2,0.9
		l-0.9,7.9h-1.3L81.6,44z M83.4,45.4l1.2,0.8h0.1l-0.8,6.6h-1.3L83.4,45.4z M85.5,44.5l1.3,0.3l-0.9,8h-1.3L85.5,44.5z M88.5,47
		l-0.7,5.8h-1.3l0.9-7.9l1,0.2L88.5,47z M88.5,52.8l0.3-2.7l0.2,2.7H88.5z M85.2,43.8l1.4-20.1l0.3-0.2c0.3,5,1.3,18.3,1.5,21
		L85.2,43.8z M84.9,19.2l-0.2-2.3l0.6,2.5L84.9,19.2z M86,13.7c-0.1-0.3-0.3-0.7-0.5-1l0,0l1.5-0.1h0.4C87.1,12.9,86.6,13.3,86,13.7
		L86,13.7z M85.3,12.3C85.3,12.3,85.3,12.4,85.3,12.3c-0.1-0.1-0.2-0.2-0.4-0.3l0,0l0,0c-0.2-0.1-0.4-0.3-0.6-0.4
		c0.6-0.4,1.2-0.9,1.7-1.2C85.8,10.9,85.5,11.7,85.3,12.3L85.3,12.3z M82.9,11.3L82.9,11.3C82.8,11.3,82.8,11.3,82.9,11.3
		c-0.1,0-0.2,0-0.2,0c-0.2,0-0.5,0-0.7,0.1l0.8-2.1l0.7,2.1C83.3,11.3,83.1,11.3,82.9,11.3z M80.2,12.2L80.2,12.2l-0.5-1.8l1.6,1.1
		C80.9,11.7,80.6,11.9,80.2,12.2z M79.4,13.6c-0.4-0.4-0.8-0.9-1-1.1v-0.1l1.5,0.3l0,0C79.7,12.9,79.5,13.2,79.4,13.6L79.4,13.6z
		 M77.1,26.6l0.7-0.7c-0.3,1-0.7,2.6-1.2,4.5L77.1,26.6z M78.2,41.6l1,0.7l-5.1,10.5h-2.3l2-8C76,43.2,77.4,42.2,78.2,41.6
		L78.2,41.6z"/>
</g>
</svg>
